<svg xmlns="http://www.w3.org/2000/svg">
<defs>
<font id="Podkova-SemiBold" horiz-adv-x="0" >
  <font-face 
    font-family="Podkova SemiBold"
    font-weight="600"
    font-stretch="normal"
    units-per-em="1000"
    panose-1="0 0 0 0 0 0 0 0 0 0"
    ascent="800"
    descent="-200"
    x-height="440"
    cap-height="589"
    bbox="-173 -320 1035 994"
    underline-thickness="50"
    underline-position="-175"
    unicode-range="U+000D-FB02"
  />
<missing-glyph horiz-adv-x="966" 
d="M941 570q4 0 2 -3l-64 -66l-1 1q0 -37 -9 -83.5t-33.5 -99t-72 -107.5t-126.5 -109q0 -5 -3.5 -14.5t-14.5 -9.5l-12 -12q23 -8 47.5 -17.5t47.5 -20.5q16 0 38 -0.5t45 -17.5q0 -4 -1 -4.5t-3 -2.5q-14 7 -26.5 11t-31.5 2q10 -5 19.5 -11.5t17.5 -18.5q-1 -4 -9 -6
q-14 14 -29.5 23.5t-34.5 8.5q-16 0 -25 -3t-26 -11q-2 2 -3.5 1.5t-2.5 4.5q10 11 19 13.5t24 7.5q-32 18 -59.5 25t-27.5 13t11 15q-8 0 -13 8t-6 11h-27q-14 0 -27.5 1t-27.5 3q-2 -6 -8.5 -15.5t-18.5 -7.5q-12 -7 -15 -10q20 -13 41.5 -26.5t42.5 -30.5q17 -4 36 -7
t36 -26q0 -4 -1.5 -4.5t-3.5 -2.5q-12 11 -20.5 15.5t-28.5 7.5q20 -12 27 -39q-2 -5 -8 -4q-10 16 -22.5 29.5t-30.5 17.5q-31 4 -70 -5q-3 5 -3 8q12 8 26.5 9.5t30.5 2.5q-25 21 -50 35t-25 22q0 5 3.5 7t9.5 7q-7 7 -7.5 16.5t0.5 15.5q-58 32 -99 73.5t-68.5 83
t-46.5 71.5q-53 18 -103.5 36.5t-82.5 44.5q-7 6 -5.5 14t11.5 8l256 -22q114 23 182.5 36t104.5 25.5t50 33.5q30 53 61.5 75.5t74.5 22.5q14 0 25.5 -2t21.5 -5v1l74 26q3 0 3 -2v-1l-25 -69zM660 188q3 1 9.5 8t12.5 15.5t5 10.5q-12 11 -36.5 31.5t-53.5 46.5
q24 32 43.5 57.5t29.5 39.5q-6 5 -16.5 13.5t-20.5 12.5l-74 -93q-30 24 -56.5 43.5t-40.5 29.5q-5 -6 -13 -16.5t-13 -22.5l91 -72l-72 -93q1 -3 8 -9.5t15.5 -12t10.5 -5.5l78 88z" />
    <glyph glyph-name="fi" unicode="fi" horiz-adv-x="711" 
d="M125 489q0 87 47 133.5t137 46.5q39 0 74 -10.5t59 -31.5l-36 -70q-42 30 -92 30q-43 0 -67 -26.5t-24 -78.5v-42h124v-79h-124v-281h90v-80h-272v80h84v281h-84v79h84v49zM420 440h184v-360h83v-80h-267v80h83v281h-83v79zM543 656q30 0 48.5 -18.5t18.5 -48.5
t-18.5 -48t-48.5 -18q-29 0 -47 18t-18 48t18 48.5t47 18.5z" />
    <glyph glyph-name="fl" unicode="fl" horiz-adv-x="679" 
d="M571 80h84v-80h-268v80h84v471q-29 20 -58.5 31.5t-66.5 11.5q-51 0 -86 -28t-35 -84v-42h124v-79h-124v-281h90v-80h-274v80h84v281h-84v79h84v49q0 55 28.5 98t78.5 67.5t115 24.5q70 0 124.5 -22.5t99.5 -64.5v-512z" />
    <glyph glyph-name=".notdef" horiz-adv-x="966" 
d="M941 570q4 0 2 -3l-64 -66l-1 1q0 -37 -9 -83.5t-33.5 -99t-72 -107.5t-126.5 -109q0 -5 -3.5 -14.5t-14.5 -9.5l-12 -12q23 -8 47.5 -17.5t47.5 -20.5q16 0 38 -0.5t45 -17.5q0 -4 -1 -4.5t-3 -2.5q-14 7 -26.5 11t-31.5 2q10 -5 19.5 -11.5t17.5 -18.5q-1 -4 -9 -6
q-14 14 -29.5 23.5t-34.5 8.5q-16 0 -25 -3t-26 -11q-2 2 -3.5 1.5t-2.5 4.5q10 11 19 13.5t24 7.5q-32 18 -59.5 25t-27.5 13t11 15q-8 0 -13 8t-6 11h-27q-14 0 -27.5 1t-27.5 3q-2 -6 -8.5 -15.5t-18.5 -7.5q-12 -7 -15 -10q20 -13 41.5 -26.5t42.5 -30.5q17 -4 36 -7
t36 -26q0 -4 -1.5 -4.5t-3.5 -2.5q-12 11 -20.5 15.5t-28.5 7.5q20 -12 27 -39q-2 -5 -8 -4q-10 16 -22.5 29.5t-30.5 17.5q-31 4 -70 -5q-3 5 -3 8q12 8 26.5 9.5t30.5 2.5q-25 21 -50 35t-25 22q0 5 3.5 7t9.5 7q-7 7 -7.5 16.5t0.5 15.5q-58 32 -99 73.5t-68.5 83
t-46.5 71.5q-53 18 -103.5 36.5t-82.5 44.5q-7 6 -5.5 14t11.5 8l256 -22q114 23 182.5 36t104.5 25.5t50 33.5q30 53 61.5 75.5t74.5 22.5q14 0 25.5 -2t21.5 -5v1l74 26q3 0 3 -2v-1l-25 -69zM660 188q3 1 9.5 8t12.5 15.5t5 10.5q-12 11 -36.5 31.5t-53.5 46.5
q24 32 43.5 57.5t29.5 39.5q-6 5 -16.5 13.5t-20.5 12.5l-74 -93q-30 24 -56.5 43.5t-40.5 29.5q-5 -6 -13 -16.5t-13 -22.5l91 -72l-72 -93q1 -3 8 -9.5t15.5 -12t10.5 -5.5l78 88z" />
    <glyph glyph-name=".null" 
 />
    <glyph glyph-name="nonmarkingreturn" horiz-adv-x="333" 
 />
    <glyph glyph-name="NULL" 
 />
    <glyph glyph-name="NULL" 
 />
    <glyph glyph-name="CR" unicode="&#xd;" horiz-adv-x="243" 
 />
    <glyph glyph-name="space" unicode=" " horiz-adv-x="243" 
 />
    <glyph glyph-name="exclam" unicode="!" horiz-adv-x="226" 
d="M58 599h111l-19 -406h-76zM113 128q29 0 50.5 -22t21.5 -51t-21.5 -51t-50.5 -22q-31 0 -52 22t-21 51t21 51t52 22z" />
    <glyph glyph-name="quotedbl" unicode="&#x22;" horiz-adv-x="352" 
d="M203 599h96l-24 -194h-49zM54 599h96l-24 -194h-49z" />
    <glyph glyph-name="numbersign" unicode="#" horiz-adv-x="619" 
d="M258 589h79l-52 -187h121l52 187h79l-51 -187h123v-74h-144l-39 -142h148v-74h-168l-51 -184h-80l50 184h-120l-50 -184h-80l51 184h-116v74h136l39 142h-140v74h161zM265 328l-39 -142h120l39 142h-120z" />
    <glyph glyph-name="dollar" unicode="$" horiz-adv-x="470" 
d="M116 96q21 -8 40.5 -13t36.5 -7v180q-78 10 -121 53.5t-43 109.5q0 47 20.5 80.5t57 53t86.5 21.5v90h76v-89q30 -1 52.5 -6t43 -13.5t41.5 -21.5l17 -126l-79 -8l-13 79q-13 8 -28.5 12t-33.5 4v-170l20 -3q73 -12 112 -48t39 -105q0 -77 -43.5 -120.5t-128.5 -49.5v-82
h-75v82q-35 3 -65 10.5t-51 14.5t-32 11l-17 116l78 10zM268 77q43 8 65.5 30t22.5 58q0 38 -22 57t-66 22v-167zM193 498q-42 -3 -62.5 -22.5t-20.5 -52.5q0 -70 83 -86v161z" />
    <glyph glyph-name="percent" unicode="%" horiz-adv-x="788" 
d="M490 613h83l-280 -634h-84zM194 615q61 0 99 -39.5t38 -139.5q0 -99 -38 -138.5t-99 -39.5q-40 0 -71 17t-48.5 56t-17.5 105q0 67 17.5 106t48.5 56t71 17zM194 538q-16 0 -29 -8t-21.5 -30t-8.5 -64q0 -41 8.5 -63t21.5 -30t29 -8t29 8t21.5 30.5t8.5 62.5
q0 42 -8.5 64t-21.5 30t-29 8zM594 338q61 0 99 -39.5t38 -139.5q0 -98 -38 -137.5t-99 -39.5q-41 0 -72 16.5t-48.5 55.5t-17.5 105q0 67 17.5 106t48.5 56t72 17zM593 261q-15 0 -28.5 -7.5t-21.5 -30t-8 -64.5q0 -41 8 -63t21.5 -30t28.5 -8q17 0 30 8t21 30t8 63
q0 42 -8.5 64.5t-21 30t-29.5 7.5z" />
    <glyph glyph-name="ampersand" unicode="&#x26;" horiz-adv-x="724" 
d="M487 76q-35 -46 -88 -74t-132 -28q-34 0 -71.5 8.5t-70.5 30t-53.5 58t-20.5 92.5q0 52 20.5 87t53 60t69.5 46q-25 34 -39 66t-14 62q0 41 13.5 67t35 39.5t45.5 19t46 5.5q38 0 69.5 -13t50 -39.5t18.5 -67.5q0 -52 -30.5 -87.5t-72.5 -64.5q31 -35 69.5 -70.5
t79.5 -68.5q18 42 30 89.5t22 92.5l125 40l26 -80l-76 -26q-10 -36 -24 -81.5t-35 -88.5q44 -32 82 -59t67 -46l-45 -76q-17 13 -57.5 41t-92.5 66zM243 293q-37 -25 -64.5 -56t-27.5 -74q0 -33 13.5 -54.5t32.5 -34t39.5 -18t34.5 -5.5q55 0 89.5 21.5t61.5 55.5
q-46 37 -93.5 79.5t-85.5 85.5zM283 548q-28 0 -40 -17t-12 -45q0 -21 9.5 -43t27.5 -49q27 19 48.5 41.5t21.5 55.5q0 28 -13 42.5t-42 14.5z" />
    <glyph glyph-name="quotesingle" unicode="'" horiz-adv-x="203" 
d="M55 599h101l-16 -214h-70z" />
    <glyph glyph-name="parenleft" unicode="(" horiz-adv-x="241" 
d="M249 602q-44 -43 -71 -91t-40.5 -94.5t-18.5 -86.5t-5 -67t5 -66.5t18.5 -86t40.5 -94.5t71 -91l-51 -65q-35 23 -68 63t-60 94t-42.5 116.5t-15.5 129.5t15.5 130t42.5 116.5t60 94t68 63.5z" />
    <glyph glyph-name="parenright" unicode=")" horiz-adv-x="242" 
d="M43 667q35 -23 68.5 -63.5t60 -94t42.5 -116.5t16 -130t-16 -129.5t-42.5 -116.5t-60 -94t-68.5 -63l-51 65q44 43 71 91t41 94.5t18.5 86t4.5 66.5t-4.5 67t-18.5 86.5t-41 94.5t-71 91z" />
    <glyph glyph-name="asterisk" unicode="*" horiz-adv-x="428" 
d="M162 655h97l-13 -147l138 60l32 -92l-146 -34l95 -111l-78 -58l-75 123l-74 -123l-81 56l100 114l-143 31l29 94l134 -60z" />
    <glyph glyph-name="plus" unicode="+" horiz-adv-x="484" 
d="M195 494h94v-146h145v-85h-145v-145h-94v145h-145v85h145v146z" />
    <glyph glyph-name="comma" unicode="," horiz-adv-x="226" 
d="M89 -131l-36 36l8.5 12t19.5 30.5t19 35.5q-29 5 -43.5 24t-14.5 42q0 32 21 51.5t53 19.5q30 0 53 -22.5t23 -53.5q0 -32 -13.5 -61t-33 -53.5t-35.5 -40t-21 -20.5z" />
    <glyph glyph-name="hyphen" unicode="-" horiz-adv-x="411" 
d="M45 269h320v-83h-320v83z" />
    <glyph glyph-name="period" unicode="." horiz-adv-x="239" 
d="M120 128q29 0 51 -22t22 -51t-22 -51t-51 -22q-30 0 -51.5 22t-21.5 51t21.5 51t51.5 22z" />
    <glyph glyph-name="slash" unicode="/" horiz-adv-x="373" 
d="M301 589h98l-326 -720h-99z" />
    <glyph glyph-name="zero" unicode="0" horiz-adv-x="602" 
d="M301 607q53 0 98 -15t78.5 -51t52 -96.5t18.5 -150.5q0 -89 -18.5 -149.5t-52 -96t-78.5 -51t-98 -15.5t-98 15.5t-78.5 51t-52 96t-18.5 149.5q0 90 18.5 150.5t52 96.5t78.5 51t98 15zM301 517q-28 0 -53 -9t-44 -32t-30 -67t-11 -115q0 -70 11 -113.5t30 -67t44 -32.5
t53 -9t53 9t44.5 32.5t30 67t10.5 113.5q0 71 -10.5 115t-30 67t-44.5 32t-53 9z" />
    <glyph glyph-name="one" unicode="1" horiz-adv-x="494" 
d="M255 599h65l-1 -510h153v-89h-416v89h162v359l-127 -105l-58 71z" />
    <glyph glyph-name="two" unicode="2" horiz-adv-x="545" 
d="M60 0l-26 83q68 63 131.5 117t114.5 104q34 32 52 62.5t19 62.5q0 43 -28.5 66.5t-73.5 23.5q-37 0 -75 -17t-68 -47l-63 63q49 49 102 70.5t111 21.5q57 0 103 -21.5t73 -61t27 -94.5q0 -47 -32.5 -93t-83.5 -92q-42 -39 -90 -78.5t-95 -80.5h231l49 78l75 -41l-75 -126
h-378z" />
    <glyph glyph-name="three" unicode="3" horiz-adv-x="515" 
d="M247 348q44 0 70.5 24.5t26.5 65.5q0 37 -28.5 58.5t-74.5 22.5q-39 1 -77 -14t-63 -39l-65 63q37 39 91.5 58.5t115.5 19.5q94 0 148.5 -45.5t54.5 -117.5q0 -31 -13 -59.5t-35.5 -49t-52.5 -29.5q58 -12 93 -49.5t35 -92.5t-27 -96t-77.5 -63.5t-119.5 -22.5
q-50 0 -89.5 9t-72 26.5t-60.5 41.5l60 74q39 -32 75.5 -47t85.5 -15q54 0 86.5 26t32.5 68t-36 68t-97 26h-56v89h69z" />
    <glyph glyph-name="four" unicode="4" horiz-adv-x="560" 
d="M216 0v89h113v77h-306v68l219 390l80 -45l-187 -328h194v233h102v-233l84 1v-86h-84v-77h80v-89h-295z" />
    <glyph glyph-name="five" unicode="5" horiz-adv-x="527" 
d="M174 364q28 18 57.5 26t59.5 8q54 0 98 -23t70.5 -67t26.5 -108q0 -106 -62.5 -161.5t-173.5 -55.5q-56 0 -110.5 20.5t-94.5 61.5l67 63q30 -29 67 -44t76 -15q63 0 96 32.5t33 91.5q0 39 -17 66t-45.5 41t-60.5 14t-65 -14t-60 -43l-60 28v304h364v-89h-266v-136z" />
    <glyph glyph-name="six" unicode="6" horiz-adv-x="559" 
d="M448 484q-7 5 -27.5 13.5t-44.5 15t-47 6.5q-44 0 -75.5 -18t-52 -47.5t-30.5 -66t-11 -73.5q27 26 69 45t90 19q51 0 97 -17.5t75 -60t29 -118.5q0 -27 -10 -61.5t-34.5 -66t-69.5 -52t-114 -20.5q-122 0 -180.5 78.5t-58.5 230.5q0 89 33.5 160.5t95 113.5t145.5 42
q38 0 71.5 -9.5t56.5 -20.5t30 -16zM307 297q-46 0 -85.5 -17t-58.5 -45q6 -71 27 -107t49.5 -48t59.5 -12q40 0 66 17.5t38.5 44t12.5 52.5q0 59 -29 87t-80 28z" />
    <glyph glyph-name="seven" unicode="7" horiz-adv-x="507" 
d="M494 531q-73 -94 -118 -188.5t-65.5 -182t-20.5 -160.5h-104q5 77 24.5 156.5t58 165t99.5 178.5h-237l-15 -67l-90 20l25 136h443v-58z" />
    <glyph glyph-name="eight" unicode="8" horiz-adv-x="541" 
d="M270 607q57 0 104 -18.5t75 -56.5t28 -97q0 -26 -11.5 -53t-34 -47.5t-55.5 -29.5q38 -9 63.5 -31t38 -51.5t12.5 -59.5q0 -63 -31 -103.5t-80.5 -59t-107.5 -18.5t-108.5 18.5t-81.5 59t-31 103.5q0 31 13 60t38 51t64 31q-33 9 -55.5 29.5t-34 47.5t-11.5 53
q0 59 27.5 97t74.5 56.5t104 18.5zM271 261q-57 0 -84.5 -29t-27.5 -69q0 -43 31 -70t80 -27q50 0 81 27t31 70q0 40 -27.5 69t-83.5 29zM270 523q-48 0 -74.5 -25t-26.5 -63t26.5 -65t74.5 -27q49 0 75.5 27t26.5 65t-26.5 63t-75.5 25z" />
    <glyph glyph-name="nine" unicode="9" horiz-adv-x="556" 
d="M115 105q9 -5 29 -13.5t46.5 -15t53.5 -6.5q42 0 72 16t49 44t28 62t10 69q-27 -26 -68 -45.5t-90 -19.5q-51 0 -97 18.5t-75.5 63.5t-29.5 124q0 29 10 64t35 67.5t69.5 53t114.5 20.5q121 0 181 -79t60 -231q0 -84 -22.5 -144t-61.5 -98t-87.5 -55.5t-100.5 -17.5
q-40 0 -74 9.5t-57.5 20.5t-31.5 16zM264 521q-39 0 -65 -18t-38.5 -46.5t-12.5 -60.5q0 -55 29 -87t79 -32q51 0 89 19.5t56 48.5q-3 57 -16 91.5t-32 53t-42 25t-47 6.5z" />
    <glyph glyph-name="colon" unicode=":" horiz-adv-x="227" 
d="M113 454q30 0 52 -22t22 -51q0 -30 -22 -52t-52 -22t-51.5 22t-21.5 52q0 29 21.5 51t51.5 22zM113 128q30 0 52 -22t22 -51t-22 -51t-52 -22t-51.5 22t-21.5 51t21.5 51t51.5 22z" />
    <glyph glyph-name="semicolon" unicode=";" horiz-adv-x="223" 
d="M51 -95l8.5 12.5t20 30.5t18.5 36q-29 4 -43.5 23.5t-14.5 42.5q0 32 21 51.5t53 19.5q30 0 53 -23t23 -54q0 -32 -13.5 -61t-32.5 -53t-35.5 -40t-20.5 -21zM112 454q29 0 51 -22t22 -51q0 -30 -22 -52t-51 -22q-30 0 -51.5 22t-21.5 52q0 29 21.5 51t51.5 22z" />
    <glyph glyph-name="less" unicode="&#x3c;" horiz-adv-x="484" 
d="M403 531l39 -81l-281 -137v-6l281 -147l-39 -80l-362 195v74z" />
    <glyph glyph-name="equal" unicode="=" horiz-adv-x="484" 
d="M50 351v85h384v-85h-384zM50 178v85h384v-85h-384z" />
    <glyph glyph-name="greater" unicode="&#x3e;" horiz-adv-x="484" 
d="M81 531l361 -182v-74l-361 -195l-40 80l282 147v6l-282 137z" />
    <glyph glyph-name="question" unicode="?" horiz-adv-x="382" 
d="M20 565q24 18 71.5 30t96.5 12q90 0 139.5 -38.5t49.5 -105.5q0 -45 -25 -74t-78 -57q-34 -18 -52.5 -30t-25 -21.5t-6.5 -21.5q0 -11 7.5 -21.5t24.5 -24.5l-55 -44q-40 26 -52 50t-12 50q0 25 9.5 43t32.5 36t63 39q30 16 45 28t21 23.5t6 27.5q0 28 -25.5 45.5
t-68.5 17.5q-24 0 -46 -4.5t-41 -12.5l-13 -83l-82 9zM185 128q30 0 52 -22t22 -51t-22 -51t-52 -22q-29 0 -51 22t-22 51q0 30 22 51.5t51 21.5z" />
    <glyph glyph-name="at" unicode="@" horiz-adv-x="776" 
d="M549 -71l-18.5 -12t-54 -24.5t-87.5 -12.5q-109 0 -181.5 44.5t-109 120t-36.5 168.5q0 55 19.5 113t60 108t104 80.5t150.5 30.5q79 0 139 -25.5t100.5 -69.5t61.5 -102t21 -122q0 -66 -22.5 -110t-58 -67t-73.5 -23q-29 0 -50.5 11.5t-38.5 30.5q-4 -3 -15 -12
t-28.5 -17t-42.5 -8q-42 0 -76 17t-54.5 55t-20.5 98q0 48 14.5 81t39 54t55 30.5t61.5 9.5q27 0 52 -7.5t43.5 -17.5t25.5 -16v-225q6 -6 14.5 -11t19.5 -5q15 0 29.5 12.5t24 41.5t9.5 77q0 50 -13 94t-40.5 76.5t-71 51.5t-105.5 19q-66 0 -120 -31t-85.5 -87.5
t-31.5 -134.5q0 -71 19.5 -120t52.5 -78t74.5 -42t85.5 -13q28 0 52.5 6t41.5 13t22 9zM452 297q-4 1 -16.5 5t-27.5 4q-39 0 -61 -25t-22 -81q0 -52 21.5 -76t50.5 -24q18 0 28.5 5t16.5 9.5t10 6.5v176z" />
    <glyph glyph-name="A" unicode="A" horiz-adv-x="669" 
d="M8 0v89h97l157 411h-91v89h215l183 -500h92v-89h-253v89h57l-31 88h-206l-32 -88h60v-89h-248zM255 252h153l-74 228z" />
    <glyph glyph-name="B" unicode="B" horiz-adv-x="579" 
d="M40 0v89h88v411h-88v89h259q113 0 172.5 -40.5t59.5 -116.5q0 -42 -21 -76.5t-59 -53.5q44 -14 71 -50.5t27 -90.5q0 -73 -49.5 -117t-149.5 -44h-310zM230 89h108q50 0 77 21.5t27 64.5q0 40 -25.5 61t-72.5 21h-113zM231 336h114q38 0 58 22t20 60q0 82 -113 82h-79
v-164z" />
    <glyph glyph-name="C" unicode="C" horiz-adv-x="595" 
d="M445 501q-5 3 -21 7.5t-38 8.5t-48 4q-91 0 -139.5 -59.5t-48.5 -166.5q0 -108 50 -167.5t138 -59.5q25 0 47 5t38 10.5t22 7.5l21 84l86 -20l-28 -132l-23 -10t-65.5 -20.5t-97.5 -10.5q-88 0 -154.5 36t-103 106t-37.5 171q0 97 36 167t102.5 108t155.5 37
q64 0 106.5 -12t63 -24.5t20.5 -13.5l26 -131l-87 -19z" />
    <glyph glyph-name="D" unicode="D" horiz-adv-x="662" 
d="M310 589q147 0 228.5 -80.5t81.5 -224.5q0 -133 -79.5 -208.5t-222.5 -75.5h-278v89h88v411h-88v89h270zM300 89q105 0 159 49.5t54 145.5q0 107 -51.5 161.5t-151.5 54.5h-79v-411h69z" />
    <glyph glyph-name="E" unicode="E" horiz-adv-x="601" 
d="M41 589h450l56 -168l-84 -29l-39 108h-192v-154h176v-88h-176v-169h216l37 103l84 -29l-56 -163h-473v89h89l1 411h-89v89z" />
    <glyph glyph-name="F" unicode="F" horiz-adv-x="575" 
d="M40 589h451l57 -172l-84 -28l-40 111h-193v-158h158v-89h-159v-164h125v-89h-315v89h89l1 411h-90v89z" />
    <glyph glyph-name="G" unicode="G" horiz-adv-x="613" 
d="M553 57q-34 -24 -64.5 -41t-67 -25.5t-87.5 -8.5q-84 0 -150 36.5t-103.5 106t-37.5 170.5q0 95 36 165t102.5 108.5t158.5 38.5q57 0 105.5 -15t85.5 -44l28 -123l-86 -20l-20 89q-24 13 -49 20.5t-62 7.5q-50 0 -94 -27t-71 -78t-27 -122q0 -76 24.5 -126t66 -75
t92.5 -25q41 0 68 8.5t55 24.5v113h-128v83h225v-241z" />
    <glyph glyph-name="H" unicode="H" horiz-adv-x="728" 
d="M40 589h252v-89h-60l-1 -156h266v156h-59v89h250v-89h-88l-2 -411h89v-89h-249v89h59v166h-266v-166h59v-89h-250v89h89v411h-89v89z" />
    <glyph glyph-name="I" unicode="I" horiz-adv-x="372" 
d="M41 589h292v-89h-94l-1 -411h95v-89h-293v89h96v411h-95v89z" />
    <glyph glyph-name="J" unicode="J" horiz-adv-x="523" 
d="M406 238q0 -81 -22.5 -138t-68 -87.5t-115.5 -30.5q-41 0 -77 11t-71 27l-28 135l87 21l21 -95q18 -7 34.5 -10.5t29.5 -3.5q51 0 79 41t28 115v277h-127v89h319v-89h-89v-262z" />
    <glyph glyph-name="K" unicode="K" horiz-adv-x="684" 
d="M40 589h249v-89h-60v-162h82l119 162h-59v89h254v-89h-92l-143 -186l159 -225h100v-89h-285v89h74l-113 163h-96l1 -163h59v-89h-249v89h88v411h-88v89z" />
    <glyph glyph-name="L" unicode="L" horiz-adv-x="558" 
d="M40 589h311v-89h-107l-1 -411h171l37 102l84 -29l-56 -162h-439v89h102l1 411h-103v89z" />
    <glyph glyph-name="M" unicode="M" horiz-adv-x="860" 
d="M41 589h248l147 -389l138 389h246v-89h-88v-411h88v-89h-254v89h64v423l-42 -133l-112 -308h-85l-125 317l-42 120l-2 -419h66v-89h-249v89h89l1 411h-88v89z" />
    <glyph glyph-name="N" unicode="N" horiz-adv-x="732" 
d="M41 589h244l229 -440v351h-79v89h269v-89h-95v-500h-121l-264 501l1 -412h84v-89h-269v89h90l-1 411h-88v89z" />
    <glyph glyph-name="O" unicode="O" horiz-adv-x="656" 
d="M327 607q85 0 149.5 -37.5t100.5 -107t36 -167.5q0 -97 -36 -167t-100 -108t-149 -38q-84 0 -148.5 38t-100.5 108t-36 167q0 98 36 167.5t100 107t148 37.5zM328 520q-86 0 -132 -58.5t-46 -166.5q0 -109 46 -167.5t132 -58.5t132 58.5t46 167.5q0 108 -46 166.5
t-132 58.5z" />
    <glyph glyph-name="P" unicode="P" horiz-adv-x="553" 
d="M302 589q112 0 171.5 -48.5t59.5 -140.5q0 -94 -59.5 -143.5t-171.5 -49.5h-73v-118h108v-89h-297v89h87v411h-87v89h262zM301 290q125 0 125 108q0 102 -125 102h-71v-210h71z" />
    <glyph glyph-name="Q" unicode="Q" horiz-adv-x="680" 
d="M470 16q-62 -34 -142 -34q-84 0 -148 37t-100.5 107.5t-36.5 168.5q0 99 36 168.5t100 106.5t148 37q85 0 149.5 -37t100.5 -106.5t36 -168.5q0 -73 -20.5 -130t-57.5 -98l125 -73l-66 -82zM328 521q-89 0 -133.5 -58.5t-44.5 -167.5t44.5 -168t133.5 -59t133.5 59
t44.5 168t-44 167.5t-134 58.5z" />
    <glyph glyph-name="R" unicode="R" horiz-adv-x="623" 
d="M40 0v89h87v411h-87v89h264q88 0 137.5 -22t69.5 -64t20 -102q0 -93 -50 -140.5t-163 -47.5h-88v-124h56v-89h-246zM231 302h71q42 0 69 8t40 29.5t13 61.5t-14 61.5t-41.5 29.5t-66.5 8h-71v-198zM432 0l-121 222l99 15l88 -148h97v-89h-163z" />
    <glyph glyph-name="S" unicode="S" horiz-adv-x="551" 
d="M278 -18q-72 0 -125.5 12t-90.5 26l-19 131l84 10l12 -74q30 -10 61.5 -16t72.5 -6q38 0 69.5 10t51 31t19.5 55q0 35 -20 60t-81 34l-74 12q-88 15 -135 58.5t-47 113.5q0 52 27.5 90t78.5 58t119 20q36 0 67 -3.5t60.5 -11.5t60.5 -21l18 -138l-87 -9l-13 86
q-21 7 -48 11.5t-60 4.5q-61 0 -96 -21.5t-35 -59.5t25.5 -59t79.5 -29l81 -14q92 -13 133 -57t41 -112q0 -53 -20 -90t-53.5 -59.5t-74 -32.5t-82.5 -10z" />
    <glyph glyph-name="T" unicode="T" horiz-adv-x="595" 
d="M32 589h526v-186h-92v97h-119l-1 -411h88v-89h-280v89h89v411h-118v-97h-93v186z" />
    <glyph glyph-name="U" unicode="U" horiz-adv-x="684" 
d="M567 214q0 -109 -56 -170.5t-171 -61.5q-113 0 -168 61.5t-55 170.5v286h-89v89h251v-89h-60v-309q0 -65 32.5 -94.5t88.5 -29.5q58 0 91 32.5t33 101.5v299h-59v89h251v-89h-89v-286z" />
    <glyph glyph-name="V" unicode="V" horiz-adv-x="665" 
d="M5 589h261v-89h-63l96 -249l45 -143l42 139l91 253h-66v89h248v-89h-82l-180 -500h-109l-196 500h-87v89z" />
    <glyph glyph-name="W" unicode="W" horiz-adv-x="925" 
d="M4 589h260v-89h-58l69 -254l35 -137l27 134l76 271h121l70 -267l28 -138l33 138l74 253h-63v89h246v-89h-81l-158 -500h-119l-64 267l-30 130l-35 -130l-68 -267h-116l-158 500h-89v89z" />
    <glyph glyph-name="X" unicode="X" horiz-adv-x="686" 
d="M24 0v88h94l161 208l-167 204h-84v89h263v-89h-60l111 -137l109 137h-61v89h258v-89h-92l-155 -202l169 -210h97v-88h-279v88h65l-115 141l-113 -141h59v-88h-260z" />
    <glyph glyph-name="Y" unicode="Y" horiz-adv-x="658" 
d="M5 589h260v-89h-60l130 -180l137 180h-69v89h250v-89h-70l-201 -255l-1 -157h94v-88h-289v88h94l1 155l-195 257h-81v89z" />
    <glyph glyph-name="Z" unicode="Z" horiz-adv-x="555" 
d="M62 589h435v-65l-319 -435h222l37 100l85 -28l-55 -161h-422v71l315 429h-222l-20 -92l-85 13z" />
    <glyph glyph-name="bracketleft" unicode="[" horiz-adv-x="246" 
d="M56 659h191v-81h-94v-628h94v-81h-191v790z" />
    <glyph glyph-name="backslash" unicode="\" horiz-adv-x="375" 
d="M-26 589h98l329 -720h-99z" />
    <glyph glyph-name="bracketright" unicode="]" horiz-adv-x="245" 
d="M-1 659h190v-790h-190v81h94v628h-94v81z" />
    <glyph glyph-name="asciicircum" unicode="^" horiz-adv-x="484" 
d="M285 717l188 -286l-71 -53l-149 229h-6l-150 -229l-70 53l188 286h70z" />
    <glyph glyph-name="underscore" unicode="_" horiz-adv-x="609" 
d="M64 -17h481v-87h-481v87z" />
    <glyph glyph-name="grave" unicode="`" horiz-adv-x="291" 
d="M200 500l-154 175l70 53l129 -197z" />
    <glyph glyph-name="a" unicode="a" horiz-adv-x="541" 
d="M362 24q-68 -41 -142 -41q-90 0 -136.5 35t-47.5 102q-1 137 177 137l118 -1q0 63 -24.5 93.5t-68.5 30.5q-23 0 -44 -3t-40 -9l-10 -52l-83 13l18 100q39 14 79 21.5t80 7.5q95 0 144.5 -50.5t49.5 -148.5v-169l88 -29l-26 -82zM216 186q-37 0 -57 -16.5t-20 -47.5
q0 -62 85 -62q60 0 107 32v94h-115z" />
    <glyph glyph-name="b" unicode="b" horiz-adv-x="536" 
d="M266 -17q-57 0 -108.5 14t-91.5 42v507l-98 34l28 83l169 -58v-178q55 31 111 31q110 0 164 -57.5t54 -173.5q0 -123 -56.5 -183.5t-171.5 -60.5zM265 64q64 0 95.5 40.5t31.5 122.5q0 76 -29 112.5t-88 36.5q-60 0 -110 -35v-258q40 -19 100 -19z" />
    <glyph glyph-name="c" unicode="c" horiz-adv-x="486" 
d="M352 369q-19 7 -37 9.5t-38 2.5q-64 0 -99.5 -41t-35.5 -122q0 -74 38.5 -113.5t94.5 -39.5q32 0 66 11.5t67 34.5l41 -61q-28 -21 -54 -36t-55.5 -23t-70.5 -8q-69 0 -121 27.5t-80 80.5t-28 127q0 79 29 132.5t82.5 81t124.5 27.5q40 0 76.5 -8t77.5 -21l20 -122
l-84 -18z" />
    <glyph glyph-name="d" unicode="d" horiz-adv-x="579" 
d="M531 -21l-130 45q-58 -41 -131 -41q-109 0 -169.5 64.5t-60.5 178.5q0 110 60.5 171t169.5 61q23 0 49 -5t50 -14v107l-97 34l28 83l169 -58v-511l89 -31zM271 64q22 0 49 8t49 21v261q-19 10 -46.5 16t-51.5 6q-58 0 -93.5 -41t-35.5 -108q0 -74 35.5 -118.5t93.5 -44.5
z" />
    <glyph glyph-name="e" unicode="e" horiz-adv-x="510" 
d="M463 53q-42 -36 -87.5 -53t-95.5 -17q-74 0 -129 29t-84.5 82.5t-29.5 125.5q0 71 28 124.5t79.5 83.5t118.5 30q66 0 114 -27.5t74.5 -76.5t26.5 -115q0 -11 -1 -24t-3 -25l-340 -1q3 -44 23.5 -71.5t52 -41t68.5 -13.5q43 0 80 13t67 38zM378 261q0 52 -30.5 84.5
t-82.5 32.5q-49 0 -86.5 -32.5t-42.5 -84.5h242z" />
    <glyph glyph-name="f" unicode="f" horiz-adv-x="376" 
d="M125 489q0 87 47 133.5t137 46.5q39 0 74 -10.5t59 -31.5l-36 -70q-42 30 -92 30q-43 0 -67 -26.5t-24 -78.5v-42h124v-79h-124v-281h90v-80h-272v80h84v281h-84v79h84v49z" />
    <glyph glyph-name="g" unicode="g" horiz-adv-x="559" 
d="M240 116q-97 0 -152.5 43t-55.5 121q0 83 56.5 130.5t152.5 47.5q38 0 67 -6.5t55 -20.5l148 53l30 -87l-120 -22q16 -19 22.5 -42.5t6.5 -46.5q0 -57 -27.5 -95t-75 -56.5t-107.5 -18.5zM248 -234q-47 0 -91 8t-79.5 20t-53.5 22l36 78q43 -20 91.5 -31.5t96.5 -11.5
q44 0 71.5 7.5t41 20t13.5 29.5q0 25 -20.5 38.5t-69.5 13.5h-152v196l85 -22v-92h84q85 0 127.5 -34t42.5 -97q0 -49 -29 -81.5t-79.5 -48t-114.5 -15.5zM242 193q52 0 82 26t30 67q0 45 -29 69.5t-83 24.5q-55 0 -84 -24.5t-29 -69.5q0 -41 30 -67t83 -26z" />
    <glyph glyph-name="h" unicode="h" horiz-adv-x="624" 
d="M21 0v80h84v470l-95 33l26 80l169 -57v-188q64 40 140 40q85 0 128 -45t43 -133v-200h84v-80h-227v80h42v184q0 58 -22.5 84t-71.5 26q-27 0 -59 -8t-56 -21v-265h43v-80h-228z" />
    <glyph glyph-name="i" unicode="i" horiz-adv-x="330" 
d="M39 440h184v-360h83v-80h-267v80h83v281h-83v79zM161 656q30 0 48.5 -18.5t18.5 -48.5t-18.5 -48t-48.5 -18q-29 0 -47 18t-18 48t18 48.5t47 18.5z" />
    <glyph glyph-name="j" unicode="j" horiz-adv-x="271" 
d="M208 -33q0 -33 -3.5 -68.5t-20 -65.5t-54.5 -48.5t-108 -18.5q-17 0 -35.5 2.5t-30.5 4.5l12 79q11 -1 25 -2t25 -1q35 0 53.5 10t26 26.5t9 35t1.5 36.5v404h-84v79h184v-473zM148 656q30 0 48.5 -18.5t18.5 -48.5t-18.5 -48t-48.5 -18q-29 0 -47 18t-18 48t18 48.5
t47 18.5z" />
    <glyph glyph-name="k" unicode="k" horiz-adv-x="573" 
d="M39 664l169 -58v-346h80l59 101h-51v79h229v-79h-79l-85 -137l93 -144h84v-80h-138l-111 181h-81v-101h38v-80h-222v80h84v471l-95 33z" />
    <glyph glyph-name="l" unicode="l" horiz-adv-x="319" 
d="M27 0v80h84v476l-98 27l24 81l174 -49v-535h84v-80h-268z" />
    <glyph glyph-name="m" unicode="m" horiz-adv-x="908" 
d="M44 0v80h83v262l-95 31l26 80l139 -46q30 24 67.5 37.5t74.5 13.5q45 0 80.5 -14t57.5 -41q28 24 67 39.5t79 15.5q93 0 134.5 -43.5t41.5 -141.5v-193h85v-80h-226v80h41v183q0 60 -20 85t-68 25q-26 0 -53.5 -9.5t-43.5 -24.5v-259h41v-80h-184v80h42v183
q0 60 -19.5 85t-67.5 25q-26 0 -53.5 -9.5t-44.5 -24.5v-259h42v-80h-226z" />
    <glyph glyph-name="n" unicode="n" horiz-adv-x="646" 
d="M44 0v80h84v259l-96 33l27 81l136 -47q38 25 77.5 38.5t88.5 13.5q56 0 95.5 -22t60.5 -62.5t21 -95.5v-198h83v-80h-226v80h43v182q0 54 -25.5 82t-73.5 28q-28 0 -57.5 -9.5t-53.5 -24.5v-258h43v-80h-227z" />
    <glyph glyph-name="o" unicode="o" horiz-adv-x="542" 
d="M270 458q72 0 123.5 -28.5t79.5 -82t28 -128.5q0 -111 -62 -173.5t-169 -62.5q-70 0 -121.5 28t-79 81.5t-27.5 126.5q0 75 27.5 128.5t79 82t121.5 28.5zM270 376q-63 0 -95.5 -40.5t-32.5 -116.5q0 -75 32.5 -115t95.5 -40q66 0 98.5 40t32.5 115q0 76 -32.5 116.5
t-98.5 40.5z" />
    <glyph glyph-name="p" unicode="p" horiz-adv-x="583" 
d="M30 -215v79h84v481l-94 31l26 82l139 -48q32 22 69 35t69 13q103 0 161.5 -61.5t58.5 -168.5q0 -73 -28 -129t-79.5 -86.5t-121.5 -30.5q-53 0 -99 14v-132h84v-79h-269zM313 63q60 0 94 43t34 121q0 73 -31 111t-91 38q-29 0 -58 -10t-47 -27v-256q17 -9 44.5 -14.5
t54.5 -5.5z" />
    <glyph glyph-name="q" unicode="q" horiz-adv-x="535" 
d="M277 -215v79h93v145q-23 -12 -51.5 -19t-55.5 -7q-105 0 -164 65t-59 181q0 108 64.5 168.5t175.5 60.5q50 0 100 -14.5t90 -42.5v-537h76v-79h-269zM268 64q25 0 53 7.5t49 19.5v259q-19 12 -44 19t-57 7q-57 0 -92 -40t-35 -106q0 -75 35 -120.5t91 -45.5z" />
    <glyph glyph-name="r" unicode="r" horiz-adv-x="452" 
d="M201 405q39 26 79.5 38.5t80.5 12.5q37 0 59 -9l17 -116l-83 -18l-10 55q-33 -2 -63 -11t-52 -24l-1 -253h98v-80h-282v80h84v260l-96 32l27 81z" />
    <glyph glyph-name="s" unicode="s" horiz-adv-x="460" 
d="M313 368q-19 7 -38.5 11.5t-44.5 4.5q-36 0 -64.5 -14.5t-28.5 -43.5q0 -25 19.5 -40t65.5 -21l53 -7q79 -9 113.5 -42t34.5 -89q0 -46 -25.5 -79t-68.5 -49.5t-96 -16.5q-54 0 -99 12.5t-81 32.5l-17 104l85 16l12 -60q22 -11 46 -17t49 -6q42 0 73.5 15.5t31.5 45.5
q0 24 -17 37t-64 19l-52 7q-73 10 -113 44t-40 88q0 44 24.5 75t66 47t92.5 16q46 0 85 -10t73 -31l18 -96l-76 -15z" />
    <glyph glyph-name="t" unicode="t" horiz-adv-x="387" 
d="M263 -17q-44 0 -79 17t-55 55.5t-20 101.5v204h-83v79h83v90l97 28v-118h122v-79h-122v-167q0 -61 14.5 -96.5t53.5 -35.5q29 0 68 19l19 -73q-23 -10 -48 -17.5t-50 -7.5z" />
    <glyph glyph-name="u" unicode="u" horiz-adv-x="626" 
d="M443 26q-33 -20 -73 -31.5t-75 -11.5q-99 0 -145 43t-46 136v199h-80v79h181v-262q0 -57 22.5 -83t71.5 -26q27 0 59.5 8.5t55.5 21.5v262h-80v79h181v-344l90 -31l-26 -85z" />
    <glyph glyph-name="v" unicode="v" horiz-adv-x="588" 
d="M3 440h231v-79h-51l77 -183l36 -90l37 90l77 183h-51v79h225v-79h-71l-163 -361h-111l-158 361h-77z" />
    <glyph glyph-name="w" unicode="w" horiz-adv-x="772" 
d="M195 0l-119 361h-72v79h235v-79h-60l46 -160l31 -106l28 104l55 178h100l55 -180l29 -104l28 101l52 167h-59v79h224v-79h-71l-125 -361h-103l-81 265l-86 -265h-107z" />
    <glyph glyph-name="x" unicode="x" horiz-adv-x="609" 
d="M30 0v80h86l125 145l-134 136h-77v79h239v-79h-43l85 -91l78 91h-40v79h219v-79h-75l-124 -144l136 -137h81v-80h-241v80h43l-88 91l-81 -91h42v-80h-231z" />
    <glyph glyph-name="y" unicode="y" horiz-adv-x="576" 
d="M151 -235q-19 0 -38.5 3.5t-41.5 12.5l17 77q17 -5 30.5 -8t27.5 -3q26 0 43 10t32.5 37t33.5 77l146 390h-53l3 79h222v-79h-75l-176 -442q-32 -79 -73 -116.5t-98 -37.5zM277 -68l-201 429h-73v79h231v-79h-56l143 -333z" />
    <glyph glyph-name="z" unicode="z" horiz-adv-x="480" 
d="M47 0v68l256 293h-172l-12 -57l-87 17l23 119h367v-65l-259 -295h185l12 61l88 -16l-25 -125h-376z" />
    <glyph glyph-name="braceleft" unicode="{" horiz-adv-x="252" 
d="M50 292q13 0 18.5 12t7 30.5t1.5 36.5v102q0 51 16 90t52.5 62t97.5 27l11 -83q-37 -4 -56 -18.5t-26 -38t-7 -55.5v-115q0 -36 -16.5 -56t-40.5 -31q24 -10 40.5 -30.5t16.5 -56.5v-109q0 -32 7 -55.5t26 -38t56 -19.5l-11 -82q-61 4 -97.5 27t-52.5 62t-16 90v96
q0 23 -2 41t-7.5 28t-17.5 10h-61v74h61z" />
    <glyph glyph-name="bar" unicode="|" horiz-adv-x="307" 
d="M107 653h93v-869h-93v869z" />
    <glyph glyph-name="braceright" unicode="}" horiz-adv-x="253" 
d="M203 218q-12 0 -18 -10t-7.5 -28t-1.5 -41v-96q0 -51 -16 -90t-52.5 -62t-98.5 -27l-11 82q38 5 57 19.5t26 38t7 55.5v109q0 36 16.5 56.5t40.5 30.5q-24 11 -40.5 31t-16.5 56v115q0 32 -7 55.5t-26 38t-57 18.5l11 83q62 -4 98.5 -27t52.5 -62t16 -90v-102
q0 -18 1.5 -36.5t7 -30.5t18.5 -12h61v-74h-61z" />
    <glyph glyph-name="asciitilde" unicode="~" horiz-adv-x="484" 
d="M95 238l-51 59q30 26 59 44.5t68 18.5q29 0 55.5 -11.5t50.5 -23t45 -11.5q15 0 32 7t40 30l46 -56q-26 -23 -45.5 -37t-38 -20.5t-42.5 -6.5q-20 0 -43.5 11t-47.5 22t-47 11q-21 0 -39 -9.5t-42 -27.5z" />
    <glyph glyph-name="uni00A0" unicode="&#xa0;" horiz-adv-x="243" 
 />
    <glyph glyph-name="exclamdown" unicode="&#xa1;" horiz-adv-x="227" 
d="M75 236h76l19 -433h-111zM113 447q30 0 51.5 -22t21.5 -52q0 -29 -21.5 -51t-51.5 -22t-51.5 22t-21.5 51q0 30 21.5 52t51.5 22z" />
    <glyph glyph-name="cent" unicode="&#xa2;" horiz-adv-x="453" 
d="M326 437q-4 2 -15.5 6t-25.5 4v-308q26 5 56 17.5t50 26.5l42 -61q-40 -28 -78 -44t-70 -21v-86h-78v87q-86 14 -134.5 75t-48.5 157q0 97 48.5 159.5t134.5 75.5v91h78v-88q34 -2 66.5 -9t48.5 -16l24 -121l-84 -18zM207 443q-85 -26 -85 -153q0 -124 85 -148v301z" />
    <glyph glyph-name="sterling" unicode="&#xa3;" horiz-adv-x="551" 
d="M218 303q11 -52 10 -87.5t-18 -65.5t-57 -68l2 -3q22 13 43 18t43 5q30 0 54 -8.5l48 -17t50 -8.5q24 0 46.5 9t44.5 27l45 -70q-32 -25 -68.5 -38.5t-71.5 -13.5t-59.5 6t-45 14.5t-41 15t-47.5 6.5q-31 0 -60.5 -10.5t-64.5 -32.5l-46 64q48 33 74.5 68t34.5 78t-4 98
q-22 107 -8 178t64 106t133 35q33 0 59 -4.5t52.5 -14.5t57.5 -27l23 -137l-75 -13l-20 100q-22 14 -45.5 19t-53.5 5q-46 1 -74 -24t-34.5 -76.5t9.5 -132.5zM378 327v-68h-334v68h334z" />
    <glyph glyph-name="currency" unicode="&#xa4;" horiz-adv-x="511" 
d="M87 91l-46 68l65 43q-28 43 -27 94t28 93l-66 44l46 69l83 -57q38 20 84 20.5t85 -19.5l82 56l46 -68l-64 -43q21 -29 27.5 -62.5t0.5 -67t-26 -60.5l63 -41l-47 -68l-80 53q-39 -20 -87 -20t-85 20zM255 197q42 0 70 28.5t28 68.5q0 41 -28 70.5t-70 29.5
q-40 0 -68.5 -29.5t-28.5 -70.5q0 -40 28.5 -68.5t68.5 -28.5z" />
    <glyph glyph-name="yen" unicode="&#xa5;" horiz-adv-x="666" 
d="M190 0v88h94v47h-153v61h153v38h-153v62h127l-168 204h-81v89h260v-89h-56l127 -169l121 169h-54v89h250v-89h-90l-157 -204h128v-62h-152v-38h152v-61h-152l-1 -47h94v-88h-289z" />
    <glyph glyph-name="brokenbar" unicode="&#xa6;" horiz-adv-x="307" 
d="M107 664h93v-369h-93v369zM107 149h93v-365h-93v365z" />
    <glyph glyph-name="section" unicode="&#xa7;" horiz-adv-x="521" 
d="M273 208q85 -28 124.5 -67t38.5 -95q0 -42 -25.5 -73.5t-67.5 -49.5t-94 -18q-48 0 -91 13t-77 40l-16 93l79 16l12 -57q17 -14 39 -20.5t52 -6.5q45 0 70.5 17t25.5 49q0 28 -32.5 49.5t-95.5 41.5t-98.5 56.5t-35.5 82.5q0 40 24 69t64 42l49 -27q-27 -9 -39.5 -26.5
t-12.5 -40.5q0 -27 26.5 -48t80.5 -40zM286 155q65 36 65 88q0 33 -25.5 58.5t-84.5 43.5q-70 21 -107.5 57.5t-37.5 84.5q0 42 23.5 72.5t62.5 46t89 15.5q44 0 85 -13t74 -37l14 -97l-80 -14l-12 68q-37 20 -79 20q-41 0 -65 -13.5t-24 -41.5q0 -23 26.5 -43t82.5 -38
q70 -24 109 -63.5t39 -92.5q0 -75 -89 -128z" />
    <glyph glyph-name="dieresis" unicode="&#xa8;" horiz-adv-x="415" 
d="M300 637q26 0 44.5 -19t18.5 -45t-18.5 -45t-44.5 -19q-27 0 -45.5 19t-18.5 45t18.5 45t45.5 19zM114 637q26 0 45 -19t19 -45t-19 -45t-45 -19t-45 19t-19 45t19 45t45 19z" />
    <glyph glyph-name="copyright" unicode="&#xa9;" horiz-adv-x="857" 
d="M430 663q80 0 147.5 -27t116.5 -77t76 -117.5t27 -148.5q0 -79 -27 -146t-76 -116.5t-116.5 -77t-147.5 -27.5t-148 27.5t-117.5 77t-77 116.5t-27.5 146q0 81 27.5 148.5t77 117.5t117.5 77t148 27zM505 417q-7 2 -21.5 7t-39.5 5q-61 0 -90 -36t-29 -96t30 -97.5
t89 -37.5q19 0 37 4.5t25 7.5l16 56l69 -21l-25 -89l-15.5 -7t-44 -14t-66.5 -7q-89 0 -144 51t-56 153q0 98 54.5 150t145.5 52q41 0 69.5 -9t43.5 -18.5l15 -9.5l21 -84l-65 -20zM426 586q-85 0 -150 -40t-100.5 -107t-35.5 -151q0 -80 35.5 -144.5t100.5 -102.5t150 -38
q86 0 151.5 38t103 102.5t37.5 144.5q0 84 -37.5 151t-103 107t-151.5 40z" />
    <glyph glyph-name="ordfeminine" unicode="&#xaa;" horiz-adv-x="379" 
d="M331 152l-74 27q-24 -13 -46 -20t-48 -7q-56 0 -87.5 25.5t-31.5 66.5q-1 46 30 66.5t85 20.5h71q0 38 -12.5 54t-44.5 16q-14 0 -26 -2t-21 -4l-8 -34l-60 12l12 64q13 5 41.5 13t60.5 8q40 0 66 -9.5t39.5 -27t18.5 -40t5 -49.5v-105l49 -16zM166 209q22 0 38.5 8
t25.5 15v46h-69q-19 0 -31.5 -7t-12.5 -26q0 -16 14 -26t35 -10z" />
    <glyph glyph-name="guillemotleft" unicode="&#xab;" horiz-adv-x="335" 
d="M150 441l65 -46l-123 -178l123 -177l-65 -46l-157 223zM263 365l63 -44l-67 -104l67 -103l-63 -45l-93 148z" />
    <glyph glyph-name="logicalnot" unicode="&#xac;" horiz-adv-x="484" 
d="M50 348h384v-229h-101v144h-283v85z" />
    <glyph glyph-name="uni00AD" unicode="&#xad;" horiz-adv-x="374" 
d="M46 321h282v-93h-282v93z" />
    <glyph glyph-name="registered" unicode="&#xae;" horiz-adv-x="667" 
d="M333 65q-77 0 -137.5 35t-95.5 95.5t-35 137.5t35 138t95.5 96.5t137.5 35.5q78 0 138.5 -35t95.5 -96.5t35 -138.5t-35 -137.5t-95.5 -95.5t-138.5 -35zM332 127q60 0 105.5 27t71 73t25.5 102q0 60 -25.5 107.5t-71 75t-105.5 27.5q-59 0 -104 -27.5t-70 -75
t-25 -107.5q0 -56 25 -102t70 -73t104 -27zM218 200v50h38v172h-38v48h121q58 0 82 -21.5t24 -66.5q0 -29 -12 -47.5t-37 -28.5l32 -56h45v-50h-79l-49 97h-34v-47h26v-50h-119zM312 343h28q20 0 34 7t14 30q0 27 -13.5 34.5t-36.5 7.5h-26v-79z" />
    <glyph glyph-name="macron" unicode="&#xaf;" horiz-adv-x="439" 
d="M60 607h321v-69h-321v69z" />
    <glyph glyph-name="degree" unicode="&#xb0;" horiz-adv-x="386" 
d="M193 612q43 0 76 -28.5t33 -82.5q0 -53 -33 -81.5t-76 -28.5t-76.5 28.5t-33.5 81.5q0 54 33.5 82.5t76.5 28.5zM193 560q-21 0 -36.5 -15t-15.5 -44q0 -28 15.5 -43t36.5 -15q20 0 35.5 15t15.5 43q0 29 -15.5 44t-35.5 15z" />
    <glyph glyph-name="plusminus" unicode="&#xb1;" horiz-adv-x="484" 
d="M195 494h94v-125h145v-85h-145v-105h-94v105h-145v85h145v125zM434 141v-85h-384v85h384z" />
    <glyph glyph-name="uni00B2" unicode="&#xb2;" horiz-adv-x="398" 
d="M52 218l-27 79q40 24 77.5 46t65.5 43q38 27 56.5 52t18.5 47q0 24 -17.5 35t-43.5 11q-25 0 -55.5 -11t-55.5 -34l-51 57q37 31 75 48t82 17q45 0 80 -14t55.5 -39.5t20.5 -61.5q0 -41 -26 -74.5t-66 -60.5q-26 -20 -58 -37t-65 -34h156l39 54l62 -39l-57 -84h-266z" />
    <glyph glyph-name="uni00B3" unicode="&#xb3;" horiz-adv-x="382" 
d="M178 438q31 0 49 14t18 35q0 20 -19 32t-54 12q-26 0 -54 -8t-48 -24l-46 54q30 26 68 38.5t80 12.5q74 0 115.5 -30.5t41.5 -76.5q0 -32 -20.5 -54.5t-53.5 -31.5q41 -9 65 -31t24 -57q0 -33 -20.5 -60.5t-56.5 -43.5t-84 -16q-53 0 -93 14t-73 39l43 66
q27 -20 55 -32.5t64 -12.5q37 0 57.5 14.5t20.5 35.5t-19.5 35t-55.5 14h-50v62h46z" />
    <glyph glyph-name="acute" unicode="&#xb4;" horiz-adv-x="291" 
d="M175 728l71 -53l-155 -175l-44 31z" />
    <glyph glyph-name="uni00B5" unicode="&#xb5;" horiz-adv-x="637" 
d="M254 -225q-82 0 -118.5 50.5t-36.5 157.5l-1 457h101v-239q0 -75 25 -105.5t75 -30.5q27 0 58 10.5t51 29.5v335h100v-343l91 -31l-27 -82l-135 47q-34 -23 -73 -35t-74 -12q-65 0 -104 41v-50q0 -65 22 -91.5t62 -26.5q28 0 58 11l17 -78q-23 -7 -47 -11t-44 -4z" />
    <glyph glyph-name="paragraph" unicode="&#xb6;" horiz-adv-x="625" 
d="M226 285q-91 0 -132.5 38.5t-41.5 113.5q0 76 44 114t118 38h371v-86h-91v-418h87v-85h-173v503h-70v-503h-181v85h97v200h-28z" />
    <glyph glyph-name="periodcentered" unicode="&#xb7;" horiz-adv-x="239" 
d="M120 293q30 0 51.5 -21.5t21.5 -51.5t-21.5 -51.5t-51.5 -21.5t-51.5 21.5t-21.5 51.5t21.5 51.5t51.5 21.5z" />
    <glyph glyph-name="cedilla" unicode="&#xb8;" horiz-adv-x="311" 
d="M151 -230q-30 0 -54 8.5t-40 18.5l-24 15l28 44q19 -12 41.5 -20t47.5 -8q24 0 35.5 9.5t11.5 26.5q0 16 -12.5 25t-45.5 9h-50v102h63v-56q60 1 89.5 -19t29.5 -63q0 -30 -15.5 -50.5t-42.5 -31t-62 -10.5z" />
    <glyph glyph-name="uni00B9" unicode="&#xb9;" horiz-adv-x="366" 
d="M188 589h52v-302h114v-69h-312v69h114l1 193l-96 -65l-38 53z" />
    <glyph glyph-name="ordmasculine" unicode="&#xba;" horiz-adv-x="381" 
d="M190 458q66 0 106 -39.5t40 -112.5q0 -68 -39.5 -109t-106.5 -41q-63 0 -104 39.5t-41 110.5q0 73 41 112.5t104 39.5zM191 393q-34 0 -51.5 -23t-17.5 -64q0 -39 17.5 -62.5t51.5 -23.5t51.5 23.5t17.5 62.5q0 41 -17.5 64t-51.5 23z" />
    <glyph glyph-name="guillemotright" unicode="&#xbb;" horiz-adv-x="335" 
d="M71 365l94 -148l-94 -148l-62 45l67 103l-67 104zM184 441l157 -224l-157 -223l-64 46l123 177l-123 178z" />
    <glyph glyph-name="onequarter" unicode="&#xbc;" horiz-adv-x="956" 
d="M188 589h52v-302h114v-69h-312v69h114l1 193l-96 -65l-38 53zM654 652h82l-440 -728h-83zM685 0v69h86v38h-223v75l174 226l60 -52l-147 -180h136v118h85v-118h65v-69h-65v-38h63v-69h-234z" />
    <glyph glyph-name="onehalf" unicode="&#xbd;" horiz-adv-x="966" 
d="M188 589h52v-302h114v-69h-312v69h114l1 193l-96 -65l-38 53zM654 652h82l-440 -728h-83zM621 0l-27 79q40 24 77.5 46t65.5 43q38 27 56.5 52t18.5 47q0 24 -17.5 35t-43.5 11q-25 0 -55.5 -11t-55.5 -34l-51 57q37 31 75 48t82 17q45 0 80 -14t55.5 -39.5t20.5 -61.5
q0 -41 -26 -74.5t-66 -60.5q-26 -20 -58 -37t-65 -34h156l39 54l62 -39l-57 -84h-266z" />
    <glyph glyph-name="threequarters" unicode="&#xbe;" horiz-adv-x="935" 
d="M178 438q31 0 49 14t18 35q0 20 -19 32t-54 12q-26 0 -54 -8t-48 -24l-46 54q30 26 68 38.5t80 12.5q74 0 115.5 -30.5t41.5 -76.5q0 -32 -20.5 -54.5t-53.5 -31.5q41 -9 65 -31t24 -57q0 -33 -20.5 -60.5t-56.5 -43.5t-84 -16q-53 0 -93 14t-73 39l43 66
q27 -20 55 -32.5t64 -12.5q37 0 57.5 14.5t20.5 35.5t-19.5 35t-55.5 14h-50v62h46zM634 652h82l-440 -728h-83zM665 0v69h86v38h-223v75l174 226l60 -52l-147 -180h136v118h85v-118h65v-69h-65v-38h63v-69h-234z" />
    <glyph glyph-name="questiondown" unicode="&#xbf;" horiz-adv-x="382" 
d="M362 -188q-24 -18 -71.5 -30t-97.5 -12q-89 0 -138.5 38.5t-49.5 105.5q0 45 25 74t77 57q36 18 53.5 30t24 21.5t6.5 21.5q0 11 -7 21t-24 24l55 45q40 -26 51.5 -50t11.5 -50q0 -25 -9.5 -43t-32 -35.5t-62.5 -39.5q-30 -16 -45.5 -27.5t-21 -23.5t-5.5 -28
q0 -28 25.5 -45.5t67.5 -17.5q25 0 47 5t41 12l12 83l82 -9zM196 249q-29 0 -51 22t-22 51q0 30 22 51.5t51 21.5q30 0 51.5 -21.5t21.5 -51.5q0 -29 -21.5 -51t-51.5 -22z" />
    <glyph glyph-name="Agrave" unicode="&#xc0;" horiz-adv-x="669" 
d="M8 0v89h97l157 411h-91v89h215l183 -500h92v-89h-253v89h57l-31 88h-206l-32 -88h60v-89h-248zM255 252h153l-74 228zM150 781l243 -87l-13 -41l-253 42z" />
    <glyph glyph-name="Aacute" unicode="&#xc1;" horiz-adv-x="669" 
d="M8 0v89h97l157 411h-91v89h215l183 -500h92v-89h-253v89h57l-31 88h-206l-32 -88h60v-89h-248zM255 252h153l-74 228zM480 783l23 -87l-252 -42l-14 42z" />
    <glyph glyph-name="Acircumflex" unicode="&#xc2;" horiz-adv-x="669" 
d="M8 0v89h97l157 411h-91v89h215l183 -500h92v-89h-253v89h57l-31 88h-206l-32 -88h60v-89h-248zM255 252h153l-74 228zM326 789l176 -102l-26 -38l-150 57l-153 -57l-24 38z" />
    <glyph glyph-name="Atilde" unicode="&#xc3;" horiz-adv-x="669" 
d="M8 0v89h97l157 411h-91v89h215l183 -500h92v-89h-253v89h57l-31 88h-206l-32 -88h60v-89h-248zM255 252h153l-74 228zM194 667l-26 58q33 24 57 35t59 11q29 0 50 -10t39 -20t39 -10q19 0 33.5 7t39.5 24l26 -61q-28 -26 -51 -36t-54 -11q-22 -1 -42 9.5t-39.5 21
t-42.5 10.5q-24 0 -41.5 -7t-46.5 -21z" />
    <glyph glyph-name="Adieresis" unicode="&#xc4;" horiz-adv-x="669" 
d="M8 0v89h97l157 411h-91v89h215l183 -500h92v-89h-253v89h57l-31 88h-206l-32 -88h60v-89h-248zM255 252h153l-74 228zM418 792q26 0 44.5 -19t18.5 -45t-18.5 -45t-44.5 -19q-27 0 -45.5 19t-18.5 45t18.5 45t45.5 19zM232 792q26 0 45 -19t19 -45t-19 -45t-45 -19
t-45 19t-19 45t19 45t45 19z" />
    <glyph glyph-name="Aring" unicode="&#xc5;" horiz-adv-x="669" 
d="M8 0v89h97l157 411h-91v89h215l183 -500h92v-89h-253v89h57l-31 88h-206l-32 -88h60v-89h-248zM255 252h153l-74 228zM344 759q44 0 70.5 -26.5t26.5 -70.5t-26.5 -70.5t-70.5 -26.5t-70.5 26.5t-26.5 70.5t26.5 70.5t70.5 26.5zM344 707q-20 0 -33 -12.5t-13 -32.5
t13 -32.5t33 -12.5t32.5 12.5t12.5 32.5t-12.5 32.5t-32.5 12.5z" />
    <glyph glyph-name="AE" unicode="&#xc6;" horiz-adv-x="931" 
d="M28 0v89h97l256 411h-97v89h537l56 -168l-84 -29l-39 108h-177v-160h161v-88h-162v-163h201l38 103l84 -29l-55 -163h-459v89h89v79h-201l-48 -79h55v-89h-252zM325 256h149l1 244z" />
    <glyph glyph-name="Ccedilla" unicode="&#xc7;" horiz-adv-x="595" 
d="M445 501q-5 3 -21 7.5t-38 8.5t-48 4q-91 0 -139.5 -59.5t-48.5 -166.5q0 -108 50 -167.5t138 -59.5q25 0 47 5t38 10.5t22 7.5l21 84l86 -20l-28 -132l-23 -10t-65.5 -20.5t-97.5 -10.5q-88 0 -154.5 36t-103 106t-37.5 171q0 97 36 167t102.5 108t155.5 37
q64 0 106.5 -12t63 -24.5t20.5 -13.5l26 -131l-87 -19zM368 -230q-30 0 -54 8.5t-40 18.5l-24 15l28 44q19 -12 41.5 -20t47.5 -8q24 0 35.5 9.5t11.5 26.5q0 16 -12.5 25t-45.5 9h-50v102h63v-56q60 1 89.5 -19t29.5 -63q0 -30 -15.5 -50.5t-42.5 -31t-62 -10.5z" />
    <glyph glyph-name="Egrave" unicode="&#xc8;" horiz-adv-x="601" 
d="M41 589h450l56 -168l-84 -29l-39 108h-192v-154h176v-88h-176v-169h216l37 103l84 -29l-56 -163h-473v89h89l1 411h-89v89zM120 781l243 -87l-13 -41l-253 42z" />
    <glyph glyph-name="Eacute" unicode="&#xc9;" horiz-adv-x="601" 
d="M41 589h450l56 -168l-84 -29l-39 108h-192v-154h176v-88h-176v-169h216l37 103l84 -29l-56 -163h-473v89h89l1 411h-89v89zM451 783l23 -87l-252 -42l-14 42z" />
    <glyph glyph-name="Ecircumflex" unicode="&#xca;" horiz-adv-x="601" 
d="M41 589h450l56 -168l-84 -29l-39 108h-192v-154h176v-88h-176v-169h216l37 103l84 -29l-56 -163h-473v89h89l1 411h-89v89zM297 789l176 -102l-26 -38l-150 57l-153 -57l-24 38z" />
    <glyph glyph-name="Edieresis" unicode="&#xcb;" horiz-adv-x="601" 
d="M41 589h450l56 -168l-84 -29l-39 108h-192v-154h176v-88h-176v-169h216l37 103l84 -29l-56 -163h-473v89h89l1 411h-89v89zM389 792q26 0 44.5 -19t18.5 -45t-18.5 -45t-44.5 -19q-27 0 -45.5 19t-18.5 45t18.5 45t45.5 19zM203 792q26 0 45 -19t19 -45t-19 -45t-45 -19
t-45 19t-19 45t19 45t45 19z" />
    <glyph glyph-name="Igrave" unicode="&#xcc;" horiz-adv-x="372" 
d="M41 589h292v-89h-94l-1 -411h95v-89h-293v89h96v411h-95v89zM11 781l243 -87l-13 -41l-253 42z" />
    <glyph glyph-name="Iacute" unicode="&#xcd;" horiz-adv-x="372" 
d="M41 589h292v-89h-94l-1 -411h95v-89h-293v89h96v411h-95v89zM341 783l23 -87l-252 -42l-14 42z" />
    <glyph glyph-name="Icircumflex" unicode="&#xce;" horiz-adv-x="372" 
d="M41 589h292v-89h-94l-1 -411h95v-89h-293v89h96v411h-95v89zM187 789l176 -102l-26 -38l-150 57l-153 -57l-24 38z" />
    <glyph glyph-name="Idieresis" unicode="&#xcf;" horiz-adv-x="372" 
d="M41 589h292v-89h-94l-1 -411h95v-89h-293v89h96v411h-95v89zM279 792q26 0 44.5 -19t18.5 -45t-18.5 -45t-44.5 -19q-27 0 -45.5 19t-18.5 45t18.5 45t45.5 19zM93 792q26 0 45 -19t19 -45t-19 -45t-45 -19t-45 19t-19 45t19 45t45 19z" />
    <glyph glyph-name="Eth" unicode="&#xd0;" horiz-adv-x="677" 
d="M324 589q94 0 163.5 -28.5t108 -95.5t38.5 -181q0 -97 -39.5 -160t-108 -93.5t-154.5 -30.5h-278v89h88v172h-88v86h88v153h-88v89h270zM314 89q71 0 118.5 19t71 62.5t23.5 113.5q0 86 -23 133t-68 65t-112 18h-79v-153h102v-86h-102v-172h69z" />
    <glyph glyph-name="Ntilde" unicode="&#xd1;" horiz-adv-x="732" 
d="M41 589h244l229 -440v351h-79v89h269v-89h-95v-500h-121l-264 501l1 -412h84v-89h-269v89h90l-1 411h-88v89zM237 667l-26 58q33 24 57 35t59 11q29 0 50 -10t39 -20t39 -10q19 0 33.5 7t39.5 24l26 -61q-28 -26 -51 -36t-54 -11q-22 -1 -42 9.5t-39.5 21t-42.5 10.5
q-24 0 -41.5 -7t-46.5 -21z" />
    <glyph glyph-name="Ograve" unicode="&#xd2;" horiz-adv-x="656" 
d="M327 607q85 0 149.5 -37.5t100.5 -107t36 -167.5q0 -97 -36 -167t-100 -108t-149 -38q-84 0 -148.5 38t-100.5 108t-36 167q0 98 36 167.5t100 107t148 37.5zM328 520q-86 0 -132 -58.5t-46 -166.5q0 -109 46 -167.5t132 -58.5t132 58.5t46 167.5q0 108 -46 166.5
t-132 58.5zM152 781l243 -87l-13 -41l-253 42z" />
    <glyph glyph-name="Oacute" unicode="&#xd3;" horiz-adv-x="656" 
d="M327 607q85 0 149.5 -37.5t100.5 -107t36 -167.5q0 -97 -36 -167t-100 -108t-149 -38q-84 0 -148.5 38t-100.5 108t-36 167q0 98 36 167.5t100 107t148 37.5zM328 520q-86 0 -132 -58.5t-46 -166.5q0 -109 46 -167.5t132 -58.5t132 58.5t46 167.5q0 108 -46 166.5
t-132 58.5zM482 783l23 -87l-252 -42l-14 42z" />
    <glyph glyph-name="Ocircumflex" unicode="&#xd4;" horiz-adv-x="656" 
d="M327 607q85 0 149.5 -37.5t100.5 -107t36 -167.5q0 -97 -36 -167t-100 -108t-149 -38q-84 0 -148.5 38t-100.5 108t-36 167q0 98 36 167.5t100 107t148 37.5zM328 520q-86 0 -132 -58.5t-46 -166.5q0 -109 46 -167.5t132 -58.5t132 58.5t46 167.5q0 108 -46 166.5
t-132 58.5zM328 789l176 -102l-26 -38l-150 57l-153 -57l-24 38z" />
    <glyph glyph-name="Otilde" unicode="&#xd5;" horiz-adv-x="656" 
d="M327 607q85 0 149.5 -37.5t100.5 -107t36 -167.5q0 -97 -36 -167t-100 -108t-149 -38q-84 0 -148.5 38t-100.5 108t-36 167q0 98 36 167.5t100 107t148 37.5zM328 520q-86 0 -132 -58.5t-46 -166.5q0 -109 46 -167.5t132 -58.5t132 58.5t46 167.5q0 108 -46 166.5
t-132 58.5zM196 667l-26 58q33 24 57 35t59 11q29 0 50 -10t39 -20t39 -10q19 0 33.5 7t39.5 24l26 -61q-28 -26 -51 -36t-54 -11q-22 -1 -42 9.5t-39.5 21t-42.5 10.5q-24 0 -41.5 -7t-46.5 -21z" />
    <glyph glyph-name="Odieresis" unicode="&#xd6;" horiz-adv-x="656" 
d="M327 607q85 0 149.5 -37.5t100.5 -107t36 -167.5q0 -97 -36 -167t-100 -108t-149 -38q-84 0 -148.5 38t-100.5 108t-36 167q0 98 36 167.5t100 107t148 37.5zM328 520q-86 0 -132 -58.5t-46 -166.5q0 -109 46 -167.5t132 -58.5t132 58.5t46 167.5q0 108 -46 166.5
t-132 58.5zM420 792q26 0 44.5 -19t18.5 -45t-18.5 -45t-44.5 -19q-27 0 -45.5 19t-18.5 45t18.5 45t45.5 19zM234 792q26 0 45 -19t19 -45t-19 -45t-45 -19t-45 19t-19 45t19 45t45 19z" />
    <glyph glyph-name="multiply" unicode="&#xd7;" horiz-adv-x="484" 
d="M141 470l102 -102l104 103l61 -59l-105 -105l103 -102l-64 -64l-102 103l-104 -104l-60 60l104 104l-103 103z" />
    <glyph glyph-name="Oslash" unicode="&#xd8;" horiz-adv-x="656" 
d="M128 -69l50 109l30 50l197 431l25 49l37 81h88l-56 -121l-30 -52l-196 -431l-21 -37l-36 -79h-88zM327 607q85 0 149.5 -37.5t100.5 -107t36 -167.5q0 -97 -36 -167t-100 -108t-149 -38q-84 0 -148.5 38t-100.5 108t-36 167q0 98 36 167.5t100 107t148 37.5zM328 520
q-86 0 -132 -58.5t-46 -166.5q0 -109 46 -167.5t132 -58.5t132 58.5t46 167.5q0 108 -46 166.5t-132 58.5z" />
    <glyph glyph-name="Ugrave" unicode="&#xd9;" horiz-adv-x="684" 
d="M567 214q0 -109 -56 -170.5t-171 -61.5q-113 0 -168 61.5t-55 170.5v286h-89v89h251v-89h-60v-309q0 -65 32.5 -94.5t88.5 -29.5q58 0 91 32.5t33 101.5v299h-59v89h251v-89h-89v-286zM166 781l243 -87l-13 -41l-253 42z" />
    <glyph glyph-name="Uacute" unicode="&#xda;" horiz-adv-x="684" 
d="M567 214q0 -109 -56 -170.5t-171 -61.5q-113 0 -168 61.5t-55 170.5v286h-89v89h251v-89h-60v-309q0 -65 32.5 -94.5t88.5 -29.5q58 0 91 32.5t33 101.5v299h-59v89h251v-89h-89v-286zM496 783l23 -87l-252 -42l-14 42z" />
    <glyph glyph-name="Ucircumflex" unicode="&#xdb;" horiz-adv-x="684" 
d="M567 214q0 -109 -56 -170.5t-171 -61.5q-113 0 -168 61.5t-55 170.5v286h-89v89h251v-89h-60v-309q0 -65 32.5 -94.5t88.5 -29.5q58 0 91 32.5t33 101.5v299h-59v89h251v-89h-89v-286zM342 789l176 -102l-26 -38l-150 57l-153 -57l-24 38z" />
    <glyph glyph-name="Udieresis" unicode="&#xdc;" horiz-adv-x="684" 
d="M567 214q0 -109 -56 -170.5t-171 -61.5q-113 0 -168 61.5t-55 170.5v286h-89v89h251v-89h-60v-309q0 -65 32.5 -94.5t88.5 -29.5q58 0 91 32.5t33 101.5v299h-59v89h251v-89h-89v-286zM434 792q26 0 44.5 -19t18.5 -45t-18.5 -45t-44.5 -19q-27 0 -45.5 19t-18.5 45
t18.5 45t45.5 19zM248 792q26 0 45 -19t19 -45t-19 -45t-45 -19t-45 19t-19 45t19 45t45 19z" />
    <glyph glyph-name="Yacute" unicode="&#xdd;" horiz-adv-x="658" 
d="M5 589h260v-89h-60l130 -180l137 180h-69v89h250v-89h-70l-201 -255l-1 -157h94v-88h-289v88h94l1 155l-195 257h-81v89zM483 783l23 -87l-252 -42l-14 42z" />
    <glyph glyph-name="Thorn" unicode="&#xde;" horiz-adv-x="552" 
d="M40 0v89h87v419h-87v81h275v-81h-85v-49h87q72 0 119.5 -16t71.5 -48.5t24 -83.5q0 -53 -24.5 -88.5t-71 -53t-113.5 -17.5h-94v-63h115v-89h-304zM230 237h83q52 0 82 14t30 55q0 43 -30 56.5t-83 13.5h-82v-139z" />
    <glyph glyph-name="germandbls" unicode="&#xdf;" horiz-adv-x="599" 
d="M416 -16q-38 0 -75.5 13t-55.5 34l-16 88l79 16l9 -55q9 -8 25.5 -13.5t33.5 -5.5q28 0 44.5 15.5t16.5 39.5q0 25 -18.5 44t-57.5 35t-65 35t-38.5 42.5t-12.5 51.5q0 34 12 56.5t30 38.5t35 30t29 29t12 36q0 27 -23.5 44.5t-60.5 17.5q-52 0 -73 -26.5t-21 -92.5v-457
h-185v85h84v271h-84v84h84v41q0 89 48 130.5t142 41.5q83 0 132 -37.5t49 -101.5q0 -32 -12 -54t-29 -38.5t-34 -30t-29 -27t-12 -31.5q0 -21 16.5 -35.5t59.5 -31.5q114 -47 114 -146q0 -59 -42.5 -97.5t-110.5 -38.5z" />
    <glyph glyph-name="agrave" unicode="&#xe0;" horiz-adv-x="541" 
d="M362 24q-68 -41 -142 -41q-90 0 -136.5 35t-47.5 102q-1 137 177 137l118 -1q0 63 -24.5 93.5t-68.5 30.5q-23 0 -44 -3t-40 -9l-10 -52l-83 13l18 100q39 14 79 21.5t80 7.5q95 0 144.5 -50.5t49.5 -148.5v-169l88 -29l-26 -82zM216 186q-37 0 -57 -16.5t-20 -47.5
q0 -62 85 -62q60 0 107 32v94h-115zM239 500l-154 175l70 53l129 -197z" />
    <glyph glyph-name="aacute" unicode="&#xe1;" horiz-adv-x="541" 
d="M362 24q-68 -41 -142 -41q-90 0 -136.5 35t-47.5 102q-1 137 177 137l118 -1q0 63 -24.5 93.5t-68.5 30.5q-23 0 -44 -3t-40 -9l-10 -52l-83 13l18 100q39 14 79 21.5t80 7.5q95 0 144.5 -50.5t49.5 -148.5v-169l88 -29l-26 -82zM216 186q-37 0 -57 -16.5t-20 -47.5
q0 -62 85 -62q60 0 107 32v94h-115zM322 728l71 -53l-155 -175l-44 31z" />
    <glyph glyph-name="acircumflex" unicode="&#xe2;" horiz-adv-x="541" 
d="M362 24q-68 -41 -142 -41q-90 0 -136.5 35t-47.5 102q-1 137 177 137l118 -1q0 63 -24.5 93.5t-68.5 30.5q-23 0 -44 -3t-40 -9l-10 -52l-83 13l18 100q39 14 79 21.5t80 7.5q95 0 144.5 -50.5t49.5 -148.5v-169l88 -29l-26 -82zM216 186q-37 0 -57 -16.5t-20 -47.5
q0 -62 85 -62q60 0 107 32v94h-115zM243 658l159 -109l-31 -48l-127 72l-132 -71l-31 47z" />
    <glyph glyph-name="atilde" unicode="&#xe3;" horiz-adv-x="541" 
d="M362 24q-68 -41 -142 -41q-90 0 -136.5 35t-47.5 102q-1 137 177 137l118 -1q0 63 -24.5 93.5t-68.5 30.5q-23 0 -44 -3t-40 -9l-10 -52l-83 13l18 100q39 14 79 21.5t80 7.5q95 0 144.5 -50.5t49.5 -148.5v-169l88 -29l-26 -82zM216 186q-37 0 -57 -16.5t-20 -47.5
q0 -62 85 -62q60 0 107 32v94h-115zM110 518l-26 58q33 24 57 35t59 11q29 0 50 -10t39 -20t39 -10q19 0 33.5 7t39.5 24l26 -61q-28 -26 -51 -36t-54 -11q-22 -1 -42 9.5t-39.5 21t-42.5 10.5q-24 0 -41.5 -7t-46.5 -21z" />
    <glyph glyph-name="adieresis" unicode="&#xe4;" horiz-adv-x="541" 
d="M362 24q-68 -41 -142 -41q-90 0 -136.5 35t-47.5 102q-1 137 177 137l118 -1q0 63 -24.5 93.5t-68.5 30.5q-23 0 -44 -3t-40 -9l-10 -52l-83 13l18 100q39 14 79 21.5t80 7.5q95 0 144.5 -50.5t49.5 -148.5v-169l88 -29l-26 -82zM216 186q-37 0 -57 -16.5t-20 -47.5
q0 -62 85 -62q60 0 107 32v94h-115zM334 643q26 0 44.5 -19t18.5 -45t-18.5 -45t-44.5 -19q-27 0 -45.5 19t-18.5 45t18.5 45t45.5 19zM148 643q26 0 45 -19t19 -45t-19 -45t-45 -19t-45 19t-19 45t19 45t45 19z" />
    <glyph glyph-name="aring" unicode="&#xe5;" horiz-adv-x="541" 
d="M362 24q-68 -41 -142 -41q-90 0 -136.5 35t-47.5 102q-1 137 177 137l118 -1q0 63 -24.5 93.5t-68.5 30.5q-23 0 -44 -3t-40 -9l-10 -52l-83 13l18 100q39 14 79 21.5t80 7.5q95 0 144.5 -50.5t49.5 -148.5v-169l88 -29l-26 -82zM216 186q-37 0 -57 -16.5t-20 -47.5
q0 -62 85 -62q60 0 107 32v94h-115zM242 704q44 0 70.5 -26.5t26.5 -70.5t-26.5 -70.5t-70.5 -26.5t-70.5 26.5t-26.5 70.5t26.5 70.5t70.5 26.5zM242 652q-20 0 -33 -12.5t-13 -32.5t13 -32.5t33 -12.5t32.5 12.5t12.5 32.5t-12.5 32.5t-32.5 12.5z" />
    <glyph glyph-name="ae" unicode="&#xe6;" horiz-adv-x="792" 
d="M78 422q37 14 71.5 22.5t81.5 8.5q68 0 108 -25t55 -67q30 43 74.5 67.5t96.5 24.5q44 0 80.5 -17.5t61.5 -51t35.5 -82.5t1.5 -111l-315 -1q5 -61 39.5 -94.5t90.5 -33.5q43 0 74 10.5t50 21.5t25 16l44 -58l-12.5 -11t-37 -24.5t-60.5 -24t-84 -10.5q-49 0 -90.5 14
t-72.5 45q-18 -13 -48 -26.5t-64 -23t-63 -9.5q-86 0 -134.5 38.5t-49.5 99.5q0 51 24 82t64 45t89 14l123 -1q0 34 -7 57.5t-28.5 36.5t-65.5 13q-23 0 -43.5 -3t-37.5 -7l-9 -51l-84 15zM216 185q-19 0 -37 -5t-29 -18t-11 -40q0 -31 25.5 -45t59.5 -14q22 0 47.5 6
t47.5 15.5t36 17.5q-7 19 -12.5 39.5t-7.5 42.5zM662 266q-1 49 -25 77t-78 28q-51 0 -85 -27.5t-44 -77.5h232z" />
    <glyph glyph-name="ccedilla" unicode="&#xe7;" horiz-adv-x="486" 
d="M352 369q-19 7 -37 9.5t-38 2.5q-64 0 -99.5 -41t-35.5 -122q0 -74 38.5 -113.5t94.5 -39.5q32 0 66 11.5t67 34.5l41 -61q-28 -21 -54 -36t-55.5 -23t-70.5 -8q-69 0 -121 27.5t-80 80.5t-28 127q0 79 29 132.5t82.5 81t124.5 27.5q40 0 76.5 -8t77.5 -21l20 -122
l-84 -18zM310 -230q-30 0 -54 8.5t-40 18.5l-24 15l28 44q19 -12 41.5 -20t47.5 -8q24 0 35.5 9.5t11.5 26.5q0 16 -12.5 25t-45.5 9h-50v102h63v-56q60 1 89.5 -19t29.5 -63q0 -30 -15.5 -50.5t-42.5 -31t-62 -10.5z" />
    <glyph glyph-name="egrave" unicode="&#xe8;" horiz-adv-x="510" 
d="M463 53q-42 -36 -87.5 -53t-95.5 -17q-74 0 -129 29t-84.5 82.5t-29.5 125.5q0 71 28 124.5t79.5 83.5t118.5 30q66 0 114 -27.5t74.5 -76.5t26.5 -115q0 -11 -1 -24t-3 -25l-340 -1q3 -44 23.5 -71.5t52 -41t68.5 -13.5q43 0 80 13t67 38zM378 261q0 52 -30.5 84.5
t-82.5 32.5q-49 0 -86.5 -32.5t-42.5 -84.5h242zM257 500l-154 175l70 53l129 -197z" />
    <glyph glyph-name="eacute" unicode="&#xe9;" horiz-adv-x="510" 
d="M463 53q-42 -36 -87.5 -53t-95.5 -17q-74 0 -129 29t-84.5 82.5t-29.5 125.5q0 71 28 124.5t79.5 83.5t118.5 30q66 0 114 -27.5t74.5 -76.5t26.5 -115q0 -11 -1 -24t-3 -25l-340 -1q3 -44 23.5 -71.5t52 -41t68.5 -13.5q43 0 80 13t67 38zM378 261q0 52 -30.5 84.5
t-82.5 32.5q-49 0 -86.5 -32.5t-42.5 -84.5h242zM340 728l71 -53l-155 -175l-44 31z" />
    <glyph glyph-name="ecircumflex" unicode="&#xea;" horiz-adv-x="510" 
d="M463 53q-42 -36 -87.5 -53t-95.5 -17q-74 0 -129 29t-84.5 82.5t-29.5 125.5q0 71 28 124.5t79.5 83.5t118.5 30q66 0 114 -27.5t74.5 -76.5t26.5 -115q0 -11 -1 -24t-3 -25l-340 -1q3 -44 23.5 -71.5t52 -41t68.5 -13.5q43 0 80 13t67 38zM378 261q0 52 -30.5 84.5
t-82.5 32.5q-49 0 -86.5 -32.5t-42.5 -84.5h242zM261 658l159 -109l-31 -48l-127 72l-132 -71l-31 47z" />
    <glyph glyph-name="edieresis" unicode="&#xeb;" horiz-adv-x="510" 
d="M463 53q-42 -36 -87.5 -53t-95.5 -17q-74 0 -129 29t-84.5 82.5t-29.5 125.5q0 71 28 124.5t79.5 83.5t118.5 30q66 0 114 -27.5t74.5 -76.5t26.5 -115q0 -11 -1 -24t-3 -25l-340 -1q3 -44 23.5 -71.5t52 -41t68.5 -13.5q43 0 80 13t67 38zM378 261q0 52 -30.5 84.5
t-82.5 32.5q-49 0 -86.5 -32.5t-42.5 -84.5h242zM352 643q26 0 44.5 -19t18.5 -45t-18.5 -45t-44.5 -19q-27 0 -45.5 19t-18.5 45t18.5 45t45.5 19zM166 643q26 0 45 -19t19 -45t-19 -45t-45 -19t-45 19t-19 45t19 45t45 19z" />
    <glyph glyph-name="igrave" unicode="&#xec;" horiz-adv-x="330" 
d="M39 440h184v-360h83v-80h-267v80h83v281h-83v79zM160 500l-154 175l70 53l129 -197z" />
    <glyph glyph-name="iacute" unicode="&#xed;" horiz-adv-x="330" 
d="M39 440h184v-360h83v-80h-267v80h83v281h-83v79zM243 728l71 -53l-155 -175l-44 31z" />
    <glyph glyph-name="icircumflex" unicode="&#xee;" horiz-adv-x="330" 
d="M39 440h184v-360h83v-80h-267v80h83v281h-83v79zM164 658l159 -109l-31 -48l-127 72l-132 -71l-31 47z" />
    <glyph glyph-name="idieresis" unicode="&#xef;" horiz-adv-x="330" 
d="M39 440h184v-360h83v-80h-267v80h83v281h-83v79zM255 643q26 0 44.5 -19t18.5 -45t-18.5 -45t-44.5 -19q-27 0 -45.5 19t-18.5 45t18.5 45t45.5 19zM69 643q26 0 45 -19t19 -45t-19 -45t-45 -19t-45 19t-19 45t19 45t45 19z" />
    <glyph glyph-name="eth" unicode="&#xf0;" horiz-adv-x="542" 
d="M309 583q57 -30 98.5 -80.5t65.5 -112t25 -128.5q0 -99 -31 -161t-83.5 -91t-116.5 -29q-60 0 -112.5 24.5t-84.5 76.5t-32 135q0 52 17.5 92.5t48.5 68.5t70.5 43t82.5 15q30 0 58 -5.5t48 -15.5q-21 36 -48 63t-59 47l-44 -49l-53 49l32 35q-20 10 -43 19t-48 18l18 64
q39 -11 69.5 -21t55.5 -22l47 51l52 -49zM271 362q-64 0 -97.5 -39t-33.5 -110q0 -74 32.5 -112t95.5 -38q43 0 72 23.5t43.5 65.5t14.5 95q0 24 -3.5 44.5t-8.5 41.5q-20 13 -51 21t-64 8z" />
    <glyph glyph-name="ntilde" unicode="&#xf1;" horiz-adv-x="646" 
d="M44 0v80h84v259l-96 33l27 81l136 -47q38 25 77.5 38.5t88.5 13.5q56 0 95.5 -22t60.5 -62.5t21 -95.5v-198h83v-80h-226v80h43v182q0 54 -25.5 82t-73.5 28q-28 0 -57.5 -9.5t-53.5 -24.5v-258h43v-80h-227zM191 518l-26 58q33 24 57 35t59 11q29 0 50 -10t39 -20
t39 -10q19 0 33.5 7t39.5 24l26 -61q-28 -26 -51 -36t-54 -11q-22 -1 -42 9.5t-39.5 21t-42.5 10.5q-24 0 -41.5 -7t-46.5 -21z" />
    <glyph glyph-name="ograve" unicode="&#xf2;" horiz-adv-x="542" 
d="M270 458q72 0 123.5 -28.5t79.5 -82t28 -128.5q0 -111 -62 -173.5t-169 -62.5q-70 0 -121.5 28t-79 81.5t-27.5 126.5q0 75 27.5 128.5t79 82t121.5 28.5zM270 376q-63 0 -95.5 -40.5t-32.5 -116.5q0 -75 32.5 -115t95.5 -40q66 0 98.5 40t32.5 115q0 76 -32.5 116.5
t-98.5 40.5zM268 500l-154 175l70 53l129 -197z" />
    <glyph glyph-name="oacute" unicode="&#xf3;" horiz-adv-x="542" 
d="M270 458q72 0 123.5 -28.5t79.5 -82t28 -128.5q0 -111 -62 -173.5t-169 -62.5q-70 0 -121.5 28t-79 81.5t-27.5 126.5q0 75 27.5 128.5t79 82t121.5 28.5zM270 376q-63 0 -95.5 -40.5t-32.5 -116.5q0 -75 32.5 -115t95.5 -40q66 0 98.5 40t32.5 115q0 76 -32.5 116.5
t-98.5 40.5zM352 728l71 -53l-155 -175l-44 31z" />
    <glyph glyph-name="ocircumflex" unicode="&#xf4;" horiz-adv-x="542" 
d="M270 458q72 0 123.5 -28.5t79.5 -82t28 -128.5q0 -111 -62 -173.5t-169 -62.5q-70 0 -121.5 28t-79 81.5t-27.5 126.5q0 75 27.5 128.5t79 82t121.5 28.5zM270 376q-63 0 -95.5 -40.5t-32.5 -116.5q0 -75 32.5 -115t95.5 -40q66 0 98.5 40t32.5 115q0 76 -32.5 116.5
t-98.5 40.5zM273 658l159 -109l-31 -48l-127 72l-132 -71l-31 47z" />
    <glyph glyph-name="otilde" unicode="&#xf5;" horiz-adv-x="542" 
d="M270 458q72 0 123.5 -28.5t79.5 -82t28 -128.5q0 -111 -62 -173.5t-169 -62.5q-70 0 -121.5 28t-79 81.5t-27.5 126.5q0 75 27.5 128.5t79 82t121.5 28.5zM270 376q-63 0 -95.5 -40.5t-32.5 -116.5q0 -75 32.5 -115t95.5 -40q66 0 98.5 40t32.5 115q0 76 -32.5 116.5
t-98.5 40.5zM140 518l-26 58q33 24 57 35t59 11q29 0 50 -10t39 -20t39 -10q19 0 33.5 7t39.5 24l26 -61q-28 -26 -51 -36t-54 -11q-22 -1 -42 9.5t-39.5 21t-42.5 10.5q-24 0 -41.5 -7t-46.5 -21z" />
    <glyph glyph-name="odieresis" unicode="&#xf6;" horiz-adv-x="542" 
d="M270 458q72 0 123.5 -28.5t79.5 -82t28 -128.5q0 -111 -62 -173.5t-169 -62.5q-70 0 -121.5 28t-79 81.5t-27.5 126.5q0 75 27.5 128.5t79 82t121.5 28.5zM270 376q-63 0 -95.5 -40.5t-32.5 -116.5q0 -75 32.5 -115t95.5 -40q66 0 98.5 40t32.5 115q0 76 -32.5 116.5
t-98.5 40.5zM364 643q26 0 44.5 -19t18.5 -45t-18.5 -45t-44.5 -19q-27 0 -45.5 19t-18.5 45t18.5 45t45.5 19zM178 643q26 0 45 -19t19 -45t-19 -45t-45 -19t-45 19t-19 45t19 45t45 19z" />
    <glyph glyph-name="divide" unicode="&#xf7;" horiz-adv-x="484" 
d="M242 204q28 0 49 -21t21 -49q0 -29 -21 -49.5t-49 -20.5q-29 0 -50 20.5t-21 49.5q0 28 21 49t50 21zM242 537q28 0 49 -21t21 -49q0 -29 -21 -50t-49 -21q-29 0 -50 21t-21 49q0 29 21 50t50 21zM434 348v-85h-384v85h384z" />
    <glyph glyph-name="oslash" unicode="&#xf8;" horiz-adv-x="542" 
d="M174 -73h-57l247 581h57zM270 458q72 0 123.5 -28.5t79.5 -82t28 -128.5q0 -111 -62 -173.5t-169 -62.5q-70 0 -121.5 28t-79 81.5t-27.5 126.5q0 75 27.5 128.5t79 82t121.5 28.5zM270 376q-63 0 -95.5 -40.5t-32.5 -116.5q0 -75 32.5 -115t95.5 -40q66 0 98.5 40
t32.5 115q0 76 -32.5 116.5t-98.5 40.5z" />
    <glyph glyph-name="ugrave" unicode="&#xf9;" horiz-adv-x="626" 
d="M443 26q-33 -20 -73 -31.5t-75 -11.5q-99 0 -145 43t-46 136v199h-80v79h181v-262q0 -57 22.5 -83t71.5 -26q27 0 59.5 8.5t55.5 21.5v262h-80v79h181v-344l90 -31l-26 -85zM286 500l-154 175l70 53l129 -197z" />
    <glyph glyph-name="uacute" unicode="&#xfa;" horiz-adv-x="626" 
d="M443 26q-33 -20 -73 -31.5t-75 -11.5q-99 0 -145 43t-46 136v199h-80v79h181v-262q0 -57 22.5 -83t71.5 -26q27 0 59.5 8.5t55.5 21.5v262h-80v79h181v-344l90 -31l-26 -85zM369 728l71 -53l-155 -175l-44 31z" />
    <glyph glyph-name="ucircumflex" unicode="&#xfb;" horiz-adv-x="626" 
d="M443 26q-33 -20 -73 -31.5t-75 -11.5q-99 0 -145 43t-46 136v199h-80v79h181v-262q0 -57 22.5 -83t71.5 -26q27 0 59.5 8.5t55.5 21.5v262h-80v79h181v-344l90 -31l-26 -85zM290 658l159 -109l-31 -48l-127 72l-132 -71l-31 47z" />
    <glyph glyph-name="udieresis" unicode="&#xfc;" horiz-adv-x="626" 
d="M443 26q-33 -20 -73 -31.5t-75 -11.5q-99 0 -145 43t-46 136v199h-80v79h181v-262q0 -57 22.5 -83t71.5 -26q27 0 59.5 8.5t55.5 21.5v262h-80v79h181v-344l90 -31l-26 -85zM381 643q26 0 44.5 -19t18.5 -45t-18.5 -45t-44.5 -19q-27 0 -45.5 19t-18.5 45t18.5 45
t45.5 19zM195 643q26 0 45 -19t19 -45t-19 -45t-45 -19t-45 19t-19 45t19 45t45 19z" />
    <glyph glyph-name="yacute" unicode="&#xfd;" horiz-adv-x="576" 
d="M151 -235q-19 0 -38.5 3.5t-41.5 12.5l17 77q17 -5 30.5 -8t27.5 -3q26 0 43 10t32.5 37t33.5 77l146 390h-53l3 79h222v-79h-75l-176 -442q-32 -79 -73 -116.5t-98 -37.5zM277 -68l-201 429h-73v79h231v-79h-56l143 -333zM372 728l71 -53l-155 -175l-44 31z" />
    <glyph glyph-name="thorn" unicode="&#xfe;" horiz-adv-x="538" 
d="M169 427q21 12 49 20t58 8q101 0 161.5 -59.5t60.5 -168.5q0 -73 -28.5 -128.5t-80 -86t-120.5 -30.5q-29 0 -53.5 4t-46.5 10v-132h84v-79h-268v79h84v684l-97 33l28 84l169 -58v-180zM169 83q8 -3 34 -11.5t65 -8.5q63 0 95.5 44.5t32.5 119.5q0 71 -31.5 108.5
t-92.5 37.5q-25 0 -46.5 -6.5t-36 -15t-20.5 -12.5v-256z" />
    <glyph glyph-name="ydieresis" unicode="&#xff;" horiz-adv-x="576" 
d="M151 -235q-19 0 -38.5 3.5t-41.5 12.5l17 77q17 -5 30.5 -8t27.5 -3q26 0 43 10t32.5 37t33.5 77l146 390h-53l3 79h222v-79h-75l-176 -442q-32 -79 -73 -116.5t-98 -37.5zM277 -68l-201 429h-73v79h231v-79h-56l143 -333zM384 643q26 0 44.5 -19t18.5 -45t-18.5 -45
t-44.5 -19q-27 0 -45.5 19t-18.5 45t18.5 45t45.5 19zM198 643q26 0 45 -19t19 -45t-19 -45t-45 -19t-45 19t-19 45t19 45t45 19z" />
    <glyph glyph-name="Amacron" unicode="&#x100;" horiz-adv-x="669" 
d="M8 0v89h97l157 411h-91v89h215l183 -500h92v-89h-253v89h57l-31 88h-206l-32 -88h60v-89h-248zM255 252h153l-74 228zM165 756h321v-69h-321v69z" />
    <glyph glyph-name="amacron" unicode="&#x101;" horiz-adv-x="541" 
d="M362 24q-68 -41 -142 -41q-90 0 -136.5 35t-47.5 102q-1 137 177 137l118 -1q0 63 -24.5 93.5t-68.5 30.5q-23 0 -44 -3t-40 -9l-10 -52l-83 13l18 100q39 14 79 21.5t80 7.5q95 0 144.5 -50.5t49.5 -148.5v-169l88 -29l-26 -82zM216 186q-37 0 -57 -16.5t-20 -47.5
q0 -62 85 -62q60 0 107 32v94h-115zM81 607h321v-69h-321v69z" />
    <glyph glyph-name="Abreve" unicode="&#x102;" horiz-adv-x="669" 
d="M8 0v89h97l157 411h-91v89h215l183 -500h92v-89h-253v89h57l-31 88h-206l-32 -88h60v-89h-248zM255 252h153l-74 228zM325 655q-146 0 -166 133l72 11q9 -73 94 -73q88 0 95 73l73 -11q-21 -133 -168 -133z" />
    <glyph glyph-name="abreve" unicode="&#x103;" horiz-adv-x="541" 
d="M362 24q-68 -41 -142 -41q-90 0 -136.5 35t-47.5 102q-1 137 177 137l118 -1q0 63 -24.5 93.5t-68.5 30.5q-23 0 -44 -3t-40 -9l-10 -52l-83 13l18 100q39 14 79 21.5t80 7.5q95 0 144.5 -50.5t49.5 -148.5v-169l88 -29l-26 -82zM216 186q-37 0 -57 -16.5t-20 -47.5
q0 -62 85 -62q60 0 107 32v94h-115zM241 506q-146 0 -166 133l72 11q9 -73 94 -73q88 0 95 73l73 -11q-21 -133 -168 -133z" />
    <glyph glyph-name="Aogonek" unicode="&#x104;" horiz-adv-x="669" 
d="M8 0v89h97l157 411h-91v89h215l183 -500h92v-89h-253v89h57l-31 88h-206l-32 -88h60v-89h-248zM255 252h153l-74 228zM530 26l27 -26q-44 -23 -62.5 -49.5t-18.5 -56.5q0 -22 16.5 -35t43.5 -13q24 0 49 10v-68q-22 -10 -43.5 -14.5t-41.5 -4.5q-55 0 -88.5 26t-33.5 67
q0 52 36.5 92t115.5 72z" />
    <glyph glyph-name="aogonek" unicode="&#x105;" horiz-adv-x="541" 
d="M362 24q-68 -41 -142 -41q-90 0 -136.5 35t-47.5 102q-1 137 177 137l118 -1q0 63 -24.5 93.5t-68.5 30.5q-23 0 -44 -3t-40 -9l-10 -52l-83 13l18 100q39 14 79 21.5t80 7.5q95 0 144.5 -50.5t49.5 -148.5v-169l88 -29l-26 -82zM216 186q-37 0 -57 -16.5t-20 -47.5
q0 -62 85 -62q60 0 107 32v94h-115zM467 4l27 -26q-44 -23 -62.5 -49.5t-18.5 -56.5q0 -22 16.5 -35t43.5 -13q24 0 49 10v-68q-22 -10 -43.5 -14.5t-41.5 -4.5q-55 0 -88.5 26t-33.5 67q0 52 36.5 92t115.5 72z" />
    <glyph glyph-name="Cacute" unicode="&#x106;" horiz-adv-x="595" 
d="M445 501q-5 3 -21 7.5t-38 8.5t-48 4q-91 0 -139.5 -59.5t-48.5 -166.5q0 -108 50 -167.5t138 -59.5q25 0 47 5t38 10.5t22 7.5l21 84l86 -20l-28 -132l-23 -10t-65.5 -20.5t-97.5 -10.5q-88 0 -154.5 36t-103 106t-37.5 171q0 97 36 167t102.5 108t155.5 37
q64 0 106.5 -12t63 -24.5t20.5 -13.5l26 -131l-87 -19zM490 783l23 -87l-252 -42l-14 42z" />
    <glyph glyph-name="cacute" unicode="&#x107;" horiz-adv-x="486" 
d="M352 369q-19 7 -37 9.5t-38 2.5q-64 0 -99.5 -41t-35.5 -122q0 -74 38.5 -113.5t94.5 -39.5q32 0 66 11.5t67 34.5l41 -61q-28 -21 -54 -36t-55.5 -23t-70.5 -8q-69 0 -121 27.5t-80 80.5t-28 127q0 79 29 132.5t82.5 81t124.5 27.5q40 0 76.5 -8t77.5 -21l20 -122
l-84 -18zM357 728l71 -53l-155 -175l-44 31z" />
    <glyph glyph-name="Ccircumflex" unicode="&#x108;" horiz-adv-x="595" 
d="M445 501q-5 3 -21 7.5t-38 8.5t-48 4q-91 0 -139.5 -59.5t-48.5 -166.5q0 -108 50 -167.5t138 -59.5q25 0 47 5t38 10.5t22 7.5l21 84l86 -20l-28 -132l-23 -10t-65.5 -20.5t-97.5 -10.5q-88 0 -154.5 36t-103 106t-37.5 171q0 97 36 167t102.5 108t155.5 37
q64 0 106.5 -12t63 -24.5t20.5 -13.5l26 -131l-87 -19zM336 789l176 -102l-26 -38l-150 57l-153 -57l-24 38z" />
    <glyph glyph-name="ccircumflex" unicode="&#x109;" horiz-adv-x="486" 
d="M352 369q-19 7 -37 9.5t-38 2.5q-64 0 -99.5 -41t-35.5 -122q0 -74 38.5 -113.5t94.5 -39.5q32 0 66 11.5t67 34.5l41 -61q-28 -21 -54 -36t-55.5 -23t-70.5 -8q-69 0 -121 27.5t-80 80.5t-28 127q0 79 29 132.5t82.5 81t124.5 27.5q40 0 76.5 -8t77.5 -21l20 -122
l-84 -18zM278 658l159 -109l-31 -48l-127 72l-132 -71l-31 47z" />
    <glyph glyph-name="Cdotaccent" unicode="&#x10a;" horiz-adv-x="595" 
d="M445 501q-5 3 -21 7.5t-38 8.5t-48 4q-91 0 -139.5 -59.5t-48.5 -166.5q0 -108 50 -167.5t138 -59.5q25 0 47 5t38 10.5t22 7.5l21 84l86 -20l-28 -132l-23 -10t-65.5 -20.5t-97.5 -10.5q-88 0 -154.5 36t-103 106t-37.5 171q0 97 36 167t102.5 108t155.5 37
q64 0 106.5 -12t63 -24.5t20.5 -13.5l26 -131l-87 -19zM334 805q30 0 48.5 -18.5t18.5 -48.5t-18.5 -48t-48.5 -18q-29 0 -47 18t-18 48t18 48.5t47 18.5z" />
    <glyph glyph-name="cdotaccent" unicode="&#x10b;" horiz-adv-x="486" 
d="M352 369q-19 7 -37 9.5t-38 2.5q-64 0 -99.5 -41t-35.5 -122q0 -74 38.5 -113.5t94.5 -39.5q32 0 66 11.5t67 34.5l41 -61q-28 -21 -54 -36t-55.5 -23t-70.5 -8q-69 0 -121 27.5t-80 80.5t-28 127q0 79 29 132.5t82.5 81t124.5 27.5q40 0 76.5 -8t77.5 -21l20 -122
l-84 -18zM275 656q30 0 48.5 -18.5t18.5 -48.5t-18.5 -48t-48.5 -18q-29 0 -47 18t-18 48t18 48.5t47 18.5z" />
    <glyph glyph-name="Ccaron" unicode="&#x10c;" horiz-adv-x="595" 
d="M445 501q-5 3 -21 7.5t-38 8.5t-48 4q-91 0 -139.5 -59.5t-48.5 -166.5q0 -108 50 -167.5t138 -59.5q25 0 47 5t38 10.5t22 7.5l21 84l86 -20l-28 -132l-23 -10t-65.5 -20.5t-97.5 -10.5q-88 0 -154.5 36t-103 106t-37.5 171q0 97 36 167t102.5 108t155.5 37
q64 0 106.5 -12t63 -24.5t20.5 -13.5l26 -131l-87 -19zM336 640l-162 109l31 47l132 -71l127 72l31 -48z" />
    <glyph glyph-name="ccaron" unicode="&#x10d;" horiz-adv-x="486" 
d="M352 369q-19 7 -37 9.5t-38 2.5q-64 0 -99.5 -41t-35.5 -122q0 -74 38.5 -113.5t94.5 -39.5q32 0 66 11.5t67 34.5l41 -61q-28 -21 -54 -36t-55.5 -23t-70.5 -8q-69 0 -121 27.5t-80 80.5t-28 127q0 79 29 132.5t82.5 81t124.5 27.5q40 0 76.5 -8t77.5 -21l20 -122
l-84 -18zM277 491l-162 109l31 47l132 -71l127 72l31 -48z" />
    <glyph glyph-name="Dcaron" unicode="&#x10e;" horiz-adv-x="662" 
d="M310 589q147 0 228.5 -80.5t81.5 -224.5q0 -133 -79.5 -208.5t-222.5 -75.5h-278v89h88v411h-88v89h270zM300 89q105 0 159 49.5t54 145.5q0 107 -51.5 161.5t-151.5 54.5h-79v-411h69zM294 642l-177 101l24 39l153 -58l150 58l26 -39z" />
    <glyph glyph-name="dcaron" unicode="&#x10f;" horiz-adv-x="579" 
d="M531 -21l-130 45q-58 -41 -131 -41q-109 0 -169.5 64.5t-60.5 178.5q0 110 60.5 171t169.5 61q23 0 49 -5t50 -14v107l-97 34l28 83l169 -58v-511l89 -31zM271 64q22 0 49 8t49 21v261q-19 10 -46.5 16t-51.5 6q-58 0 -93.5 -41t-35.5 -108q0 -74 35.5 -118.5t93.5 -44.5
zM417 661l-162 109l31 47l132 -71l127 72l31 -48z" />
    <glyph glyph-name="Dcroat" unicode="&#x110;" horiz-adv-x="677" 
d="M324 589q94 0 163.5 -28.5t108 -95.5t38.5 -181q0 -97 -39.5 -160t-108 -93.5t-154.5 -30.5h-278v89h88v172h-88v86h88v153h-88v89h270zM314 89q71 0 118.5 19t71 62.5t23.5 113.5q0 86 -23 133t-68 65t-112 18h-79v-153h102v-86h-102v-172h69z" />
    <glyph glyph-name="dcroat" unicode="&#x111;" horiz-adv-x="579" 
d="M531 -21l-130 45q-58 -41 -131 -41q-109 0 -169.5 60.5t-60.5 168.5q0 102 60.5 160.5t169.5 58.5q23 0 49 -4.5t50 -13.5v133l-97 34l28 83l169 -58v-511l89 -31zM271 64q26 0 51 8t47 21v235q-19 9 -46.5 15t-51.5 6q-58 0 -93.5 -38t-35.5 -99q0 -67 35.5 -107.5
t93.5 -40.5zM230 524h320v-61h-320v61z" />
    <glyph glyph-name="Emacron" unicode="&#x112;" horiz-adv-x="601" 
d="M41 589h450l56 -168l-84 -29l-39 108h-192v-154h176v-88h-176v-169h216l37 103l84 -29l-56 -163h-473v89h89l1 411h-89v89zM135 756h321v-69h-321v69z" />
    <glyph glyph-name="emacron" unicode="&#x113;" horiz-adv-x="510" 
d="M463 53q-42 -36 -87.5 -53t-95.5 -17q-74 0 -129 29t-84.5 82.5t-29.5 125.5q0 71 28 124.5t79.5 83.5t118.5 30q66 0 114 -27.5t74.5 -76.5t26.5 -115q0 -11 -1 -24t-3 -25l-340 -1q3 -44 23.5 -71.5t52 -41t68.5 -13.5q43 0 80 13t67 38zM378 261q0 52 -30.5 84.5
t-82.5 32.5q-49 0 -86.5 -32.5t-42.5 -84.5h242zM99 607h321v-69h-321v69z" />
    <glyph glyph-name="Ebreve" unicode="&#x114;" horiz-adv-x="601" 
d="M41 589h450l56 -168l-84 -29l-39 108h-192v-154h176v-88h-176v-169h216l37 103l84 -29l-56 -163h-473v89h89l1 411h-89v89zM296 655q-146 0 -166 133l72 11q9 -73 94 -73q88 0 95 73l73 -11q-21 -133 -168 -133z" />
    <glyph glyph-name="ebreve" unicode="&#x115;" horiz-adv-x="510" 
d="M463 53q-42 -36 -87.5 -53t-95.5 -17q-74 0 -129 29t-84.5 82.5t-29.5 125.5q0 71 28 124.5t79.5 83.5t118.5 30q66 0 114 -27.5t74.5 -76.5t26.5 -115q0 -11 -1 -24t-3 -25l-340 -1q3 -44 23.5 -71.5t52 -41t68.5 -13.5q43 0 80 13t67 38zM378 261q0 52 -30.5 84.5
t-82.5 32.5q-49 0 -86.5 -32.5t-42.5 -84.5h242zM259 506q-146 0 -166 133l72 11q9 -73 94 -73q88 0 95 73l73 -11q-21 -133 -168 -133z" />
    <glyph glyph-name="Edotaccent" unicode="&#x116;" horiz-adv-x="601" 
d="M41 589h450l56 -168l-84 -29l-39 108h-192v-154h176v-88h-176v-169h216l37 103l84 -29l-56 -163h-473v89h89l1 411h-89v89zM295 805q30 0 48.5 -18.5t18.5 -48.5t-18.5 -48t-48.5 -18q-29 0 -47 18t-18 48t18 48.5t47 18.5z" />
    <glyph glyph-name="edotaccent" unicode="&#x117;" horiz-adv-x="510" 
d="M463 53q-42 -36 -87.5 -53t-95.5 -17q-74 0 -129 29t-84.5 82.5t-29.5 125.5q0 71 28 124.5t79.5 83.5t118.5 30q66 0 114 -27.5t74.5 -76.5t26.5 -115q0 -11 -1 -24t-3 -25l-340 -1q3 -44 23.5 -71.5t52 -41t68.5 -13.5q43 0 80 13t67 38zM378 261q0 52 -30.5 84.5
t-82.5 32.5q-49 0 -86.5 -32.5t-42.5 -84.5h242zM259 656q30 0 48.5 -18.5t18.5 -48.5t-18.5 -48t-48.5 -18q-29 0 -47 18t-18 48t18 48.5t47 18.5z" />
    <glyph glyph-name="Eogonek" unicode="&#x118;" horiz-adv-x="601" 
d="M41 589h450l56 -168l-84 -29l-39 108h-192v-154h176v-88h-176v-169h216l37 103l84 -29l-56 -163h-473v89h89l1 411h-89v89zM486 26l27 -26q-44 -23 -62.5 -49.5t-18.5 -56.5q0 -22 16.5 -35t43.5 -13q24 0 49 10v-68q-22 -10 -43.5 -14.5t-41.5 -4.5q-55 0 -88.5 26
t-33.5 67q0 52 36.5 92t115.5 72z" />
    <glyph glyph-name="eogonek" unicode="&#x119;" horiz-adv-x="510" 
d="M463 53q-42 -36 -87.5 -53t-95.5 -17q-74 0 -129 29t-84.5 82.5t-29.5 125.5q0 71 28 124.5t79.5 83.5t118.5 30q66 0 114 -27.5t74.5 -76.5t26.5 -115q0 -11 -1 -24t-3 -25l-340 -1q3 -44 23.5 -71.5t52 -41t68.5 -13.5q43 0 80 13t67 38zM378 261q0 52 -30.5 84.5
t-82.5 32.5q-49 0 -86.5 -32.5t-42.5 -84.5h242zM397 51l27 -26q-44 -23 -62.5 -49.5t-18.5 -56.5q0 -22 16.5 -35t43.5 -13q24 0 49 10v-68q-22 -10 -43.5 -14.5t-41.5 -4.5q-55 0 -88.5 26t-33.5 67q0 52 36.5 92t115.5 72z" />
    <glyph glyph-name="Ecaron" unicode="&#x11a;" horiz-adv-x="601" 
d="M41 589h450l56 -168l-84 -29l-39 108h-192v-154h176v-88h-176v-169h216l37 103l84 -29l-56 -163h-473v89h89l1 411h-89v89zM297 640l-162 109l31 47l132 -71l127 72l31 -48z" />
    <glyph glyph-name="ecaron" unicode="&#x11b;" horiz-adv-x="510" 
d="M463 53q-42 -36 -87.5 -53t-95.5 -17q-74 0 -129 29t-84.5 82.5t-29.5 125.5q0 71 28 124.5t79.5 83.5t118.5 30q66 0 114 -27.5t74.5 -76.5t26.5 -115q0 -11 -1 -24t-3 -25l-340 -1q3 -44 23.5 -71.5t52 -41t68.5 -13.5q43 0 80 13t67 38zM378 261q0 52 -30.5 84.5
t-82.5 32.5q-49 0 -86.5 -32.5t-42.5 -84.5h242zM261 491l-162 109l31 47l132 -71l127 72l31 -48z" />
    <glyph glyph-name="Gcircumflex" unicode="&#x11c;" horiz-adv-x="613" 
d="M553 57q-34 -24 -64.5 -41t-67 -25.5t-87.5 -8.5q-84 0 -150 36.5t-103.5 106t-37.5 170.5q0 95 36 165t102.5 108.5t158.5 38.5q57 0 105.5 -15t85.5 -44l28 -123l-86 -20l-20 89q-24 13 -49 20.5t-62 7.5q-50 0 -94 -27t-71 -78t-27 -122q0 -76 24.5 -126t66 -75
t92.5 -25q41 0 68 8.5t55 24.5v113h-128v83h225v-241zM343 789l176 -102l-26 -38l-150 57l-153 -57l-24 38z" />
    <glyph glyph-name="gcircumflex" unicode="&#x11d;" horiz-adv-x="559" 
d="M240 116q-97 0 -152.5 43t-55.5 121q0 83 56.5 130.5t152.5 47.5q38 0 67 -6.5t55 -20.5l148 53l30 -87l-120 -22q16 -19 22.5 -42.5t6.5 -46.5q0 -57 -27.5 -95t-75 -56.5t-107.5 -18.5zM248 -234q-47 0 -91 8t-79.5 20t-53.5 22l36 78q43 -20 91.5 -31.5t96.5 -11.5
q44 0 71.5 7.5t41 20t13.5 29.5q0 25 -20.5 38.5t-69.5 13.5h-152v196l85 -22v-92h84q85 0 127.5 -34t42.5 -97q0 -49 -29 -81.5t-79.5 -48t-114.5 -15.5zM242 193q52 0 82 26t30 67q0 45 -29 69.5t-83 24.5q-55 0 -84 -24.5t-29 -69.5q0 -41 30 -67t83 -26zM243 658
l159 -109l-31 -48l-127 72l-132 -71l-31 47z" />
    <glyph glyph-name="Gbreve" unicode="&#x11e;" horiz-adv-x="613" 
d="M553 57q-34 -24 -64.5 -41t-67 -25.5t-87.5 -8.5q-84 0 -150 36.5t-103.5 106t-37.5 170.5q0 95 36 165t102.5 108.5t158.5 38.5q57 0 105.5 -15t85.5 -44l28 -123l-86 -20l-20 89q-24 13 -49 20.5t-62 7.5q-50 0 -94 -27t-71 -78t-27 -122q0 -76 24.5 -126t66 -75
t92.5 -25q41 0 68 8.5t55 24.5v113h-128v83h225v-241zM342 655q-146 0 -166 133l72 11q9 -73 94 -73q88 0 95 73l73 -11q-21 -133 -168 -133z" />
    <glyph glyph-name="gbreve" unicode="&#x11f;" horiz-adv-x="559" 
d="M240 116q-97 0 -152.5 43t-55.5 121q0 83 56.5 130.5t152.5 47.5q38 0 67 -6.5t55 -20.5l148 53l30 -87l-120 -22q16 -19 22.5 -42.5t6.5 -46.5q0 -57 -27.5 -95t-75 -56.5t-107.5 -18.5zM248 -234q-47 0 -91 8t-79.5 20t-53.5 22l36 78q43 -20 91.5 -31.5t96.5 -11.5
q44 0 71.5 7.5t41 20t13.5 29.5q0 25 -20.5 38.5t-69.5 13.5h-152v196l85 -22v-92h84q85 0 127.5 -34t42.5 -97q0 -49 -29 -81.5t-79.5 -48t-114.5 -15.5zM242 193q52 0 82 26t30 67q0 45 -29 69.5t-83 24.5q-55 0 -84 -24.5t-29 -69.5q0 -41 30 -67t83 -26zM241 506
q-146 0 -166 133l72 11q9 -73 94 -73q88 0 95 73l73 -11q-21 -133 -168 -133z" />
    <glyph glyph-name="Gdotaccent" unicode="&#x120;" horiz-adv-x="613" 
d="M553 57q-34 -24 -64.5 -41t-67 -25.5t-87.5 -8.5q-84 0 -150 36.5t-103.5 106t-37.5 170.5q0 95 36 165t102.5 108.5t158.5 38.5q57 0 105.5 -15t85.5 -44l28 -123l-86 -20l-20 89q-24 13 -49 20.5t-62 7.5q-50 0 -94 -27t-71 -78t-27 -122q0 -76 24.5 -126t66 -75
t92.5 -25q41 0 68 8.5t55 24.5v113h-128v83h225v-241zM342 805q30 0 48.5 -18.5t18.5 -48.5t-18.5 -48t-48.5 -18q-29 0 -47 18t-18 48t18 48.5t47 18.5z" />
    <glyph glyph-name="gdotaccent" unicode="&#x121;" horiz-adv-x="559" 
d="M240 116q-97 0 -152.5 43t-55.5 121q0 83 56.5 130.5t152.5 47.5q38 0 67 -6.5t55 -20.5l148 53l30 -87l-120 -22q16 -19 22.5 -42.5t6.5 -46.5q0 -57 -27.5 -95t-75 -56.5t-107.5 -18.5zM248 -234q-47 0 -91 8t-79.5 20t-53.5 22l36 78q43 -20 91.5 -31.5t96.5 -11.5
q44 0 71.5 7.5t41 20t13.5 29.5q0 25 -20.5 38.5t-69.5 13.5h-152v196l85 -22v-92h84q85 0 127.5 -34t42.5 -97q0 -49 -29 -81.5t-79.5 -48t-114.5 -15.5zM242 193q52 0 82 26t30 67q0 45 -29 69.5t-83 24.5q-55 0 -84 -24.5t-29 -69.5q0 -41 30 -67t83 -26zM240 656
q30 0 48.5 -18.5t18.5 -48.5t-18.5 -48t-48.5 -18q-29 0 -47 18t-18 48t18 48.5t47 18.5z" />
    <glyph glyph-name="uni0122" unicode="&#x122;" horiz-adv-x="613" 
d="M553 57q-34 -24 -64.5 -41t-67 -25.5t-87.5 -8.5q-84 0 -150 36.5t-103.5 106t-37.5 170.5q0 95 36 165t102.5 108.5t158.5 38.5q57 0 105.5 -15t85.5 -44l28 -123l-86 -20l-20 89q-24 13 -49 20.5t-62 7.5q-50 0 -94 -27t-71 -78t-27 -122q0 -76 24.5 -126t66 -75
t92.5 -25q41 0 68 8.5t55 24.5v113h-128v83h225v-241zM315 -320l-36 36l8.5 12t19.5 30.5t19 35.5q-29 5 -43.5 24t-14.5 42q0 32 21 51.5t53 19.5q30 0 53 -22.5t23 -53.5q0 -32 -13.5 -61t-33 -53.5t-35.5 -40t-21 -20.5z" />
    <glyph glyph-name="uni0123" unicode="&#x123;" horiz-adv-x="559" 
d="M269 756l36 -36l-8 -12t-19.5 -30t-19.5 -36q30 -5 44.5 -24t14.5 -42q0 -32 -21 -51.5t-53 -19.5q-30 0 -53.5 22.5t-23.5 53.5q0 32 14 61.5t33 53.5t35.5 40t20.5 20zM240 116q-97 0 -152.5 43t-55.5 121q0 83 56.5 130.5t152.5 47.5q38 0 67 -6.5t55 -20.5l148 53
l30 -87l-120 -22q16 -19 22.5 -42.5t6.5 -46.5q0 -57 -27.5 -95t-75 -56.5t-107.5 -18.5zM248 -234q-47 0 -91 8t-79.5 20t-53.5 22l36 78q43 -20 91.5 -31.5t96.5 -11.5q44 0 71.5 7.5t41 20t13.5 29.5q0 25 -20.5 38.5t-69.5 13.5h-152v196l85 -22v-92h84q85 0 127.5 -34
t42.5 -97q0 -49 -29 -81.5t-79.5 -48t-114.5 -15.5zM242 193q52 0 82 26t30 67q0 45 -29 69.5t-83 24.5q-55 0 -84 -24.5t-29 -69.5q0 -41 30 -67t83 -26z" />
    <glyph glyph-name="Hcircumflex" unicode="&#x124;" horiz-adv-x="728" 
d="M40 589h252v-89h-60l-1 -156h266v156h-59v89h250v-89h-88l-2 -411h89v-89h-249v89h59v166h-266v-166h59v-89h-250v89h89v411h-89v89zM364 789l176 -102l-26 -38l-150 57l-153 -57l-24 38z" />
    <glyph glyph-name="hcircumflex" unicode="&#x125;" horiz-adv-x="624" 
d="M21 0v80h84v470l-95 33l26 80l169 -57v-188q64 40 140 40q85 0 128 -45t43 -133v-200h84v-80h-227v80h42v184q0 58 -22.5 84t-71.5 26q-27 0 -59 -8t-56 -21v-265h43v-80h-228zM117 807l176 -102l-26 -38l-150 57l-153 -57l-24 38z" />
    <glyph glyph-name="Hbar" unicode="&#x126;" horiz-adv-x="728" 
d="M51 453h621v-55h-621v55zM40 589h252v-89h-60l-1 -156h266v156h-59v89h250v-89h-88l-2 -411h89v-89h-249v89h59v166h-266v-166h59v-89h-250v89h89v411h-89v89z" />
    <glyph glyph-name="hbar" unicode="&#x127;" horiz-adv-x="624" 
d="M21 0v80h84v470l-95 33l26 80l169 -57v-223q64 39 140 39q85 0 128 -44.5t43 -133.5v-164h84v-80h-227v80h42v148q0 58 -22.5 84t-71.5 26q-27 0 -59 -8t-56 -21v-229h43v-80h-228zM15 524h316v-61h-316v61z" />
    <glyph glyph-name="Itilde" unicode="&#x128;" horiz-adv-x="372" 
d="M41 589h292v-89h-94l-1 -411h95v-89h-293v89h96v411h-95v89zM55 667l-26 58q33 24 57 35t59 11q29 0 50 -10t39 -20t39 -10q19 0 33.5 7t39.5 24l26 -61q-28 -26 -51 -36t-54 -11q-22 -1 -42 9.5t-39.5 21t-42.5 10.5q-24 0 -41.5 -7t-46.5 -21z" />
    <glyph glyph-name="itilde" unicode="&#x129;" horiz-adv-x="330" 
d="M39 440h184v-360h83v-80h-267v80h83v281h-83v79zM46 518l-25 58q27 24 49 35t51 11q23 0 40.5 -10t33.5 -20t33 -10q18 0 31.5 7t35.5 24l22 -61q-23 -26 -44 -36t-52 -11q-19 -1 -35.5 9.5t-33.5 21t-37 10.5q-17 0 -31 -7t-38 -21z" />
    <glyph glyph-name="Imacron" unicode="&#x12a;" horiz-adv-x="372" 
d="M41 589h292v-89h-94l-1 -411h95v-89h-293v89h96v411h-95v89zM26 756h321v-69h-321v69z" />
    <glyph glyph-name="imacron" unicode="&#x12b;" horiz-adv-x="330" 
d="M39 440h184v-360h83v-80h-267v80h83v281h-83v79zM32 607h261v-69h-261v69z" />
    <glyph glyph-name="Ibreve" unicode="&#x12c;" horiz-adv-x="372" 
d="M41 589h292v-89h-94l-1 -411h95v-89h-293v89h96v411h-95v89zM186 655q-146 0 -166 133l72 11q9 -73 94 -73q88 0 95 73l73 -11q-21 -133 -168 -133z" />
    <glyph glyph-name="ibreve" unicode="&#x12d;" horiz-adv-x="330" 
d="M39 440h184v-360h83v-80h-267v80h83v281h-83v79zM162 506q-128 0 -147 133l73 11q6 -73 74 -73q69 0 75 73l72 -11q-19 -133 -147 -133z" />
    <glyph glyph-name="Iogonek" unicode="&#x12e;" horiz-adv-x="372" 
d="M41 589h292v-89h-94l-1 -411h95v-89h-293v89h96v411h-95v89zM306 26l27 -26q-44 -23 -62.5 -49.5t-18.5 -56.5q0 -22 16.5 -35t43.5 -13q24 0 49 10v-68q-22 -10 -43.5 -14.5t-41.5 -4.5q-55 0 -88.5 26t-33.5 67q0 52 36.5 92t115.5 72z" />
    <glyph glyph-name="iogonek" unicode="&#x12f;" horiz-adv-x="330" 
d="M39 440h184v-360h83v-80h-267v80h83v281h-83v79zM161 656q30 0 48.5 -18.5t18.5 -48.5t-18.5 -48t-48.5 -18q-29 0 -47 18t-18 48t18 48.5t47 18.5zM219 26l27 -26q-44 -23 -62.5 -49.5t-18.5 -56.5q0 -22 16.5 -35t43.5 -13q24 0 49 10v-68q-22 -10 -43.5 -14.5
t-41.5 -4.5q-55 0 -88.5 26t-33.5 67q0 52 36.5 92t115.5 72z" />
    <glyph glyph-name="Idotaccent" unicode="&#x130;" horiz-adv-x="372" 
d="M41 589h292v-89h-94l-1 -411h95v-89h-293v89h96v411h-95v89zM185 805q30 0 48.5 -18.5t18.5 -48.5t-18.5 -48t-48.5 -18q-29 0 -47 18t-18 48t18 48.5t47 18.5z" />
    <glyph glyph-name="dotlessi" unicode="&#x131;" horiz-adv-x="330" 
d="M39 440h184v-360h83v-80h-267v80h83v281h-83v79z" />
    <glyph glyph-name="Jcircumflex" unicode="&#x134;" horiz-adv-x="523" 
d="M406 238q0 -81 -22.5 -138t-68 -87.5t-115.5 -30.5q-41 0 -77 11t-71 27l-28 135l87 21l21 -95q18 -7 34.5 -10.5t29.5 -3.5q51 0 79 41t28 115v277h-127v89h319v-89h-89v-262zM348 789l176 -102l-26 -38l-150 57l-153 -57l-24 38z" />
    <glyph glyph-name="jcircumflex" unicode="&#x135;" horiz-adv-x="271" 
d="M208 -33q0 -33 -3.5 -68.5t-20 -65.5t-54.5 -48.5t-108 -18.5q-17 0 -35.5 2.5t-30.5 4.5l12 79q11 -1 25 -2t25 -1q35 0 53.5 10t26 26.5t9 35t1.5 36.5v404h-84v79h184v-473zM151 658l159 -109l-31 -48l-127 72l-132 -71l-31 47z" />
    <glyph glyph-name="uni0136" unicode="&#x136;" horiz-adv-x="684" 
d="M40 589h249v-89h-60v-162h82l119 162h-59v89h254v-89h-92l-143 -186l159 -225h100v-89h-285v89h74l-113 163h-96l1 -163h59v-89h-249v89h88v411h-88v89zM301 -320l-36 36l8.5 12t19.5 30.5t19 35.5q-29 5 -43.5 24t-14.5 42q0 32 21 51.5t53 19.5q30 0 53 -22.5t23 -53.5
q0 -32 -13.5 -61t-33 -53.5t-35.5 -40t-21 -20.5z" />
    <glyph glyph-name="uni0137" unicode="&#x137;" horiz-adv-x="573" 
d="M39 664l169 -58v-346h80l59 101h-51v79h229v-79h-79l-85 -137l93 -144h84v-80h-138l-111 181h-81v-101h38v-80h-222v80h84v471l-95 33zM280 -320l-36 36l8.5 12t19.5 30.5t19 35.5q-29 5 -43.5 24t-14.5 42q0 32 21 51.5t53 19.5q30 0 53 -22.5t23 -53.5q0 -32 -13.5 -61
t-33 -53.5t-35.5 -40t-21 -20.5z" />
    <glyph glyph-name="kgreenlandic" unicode="&#x138;" horiz-adv-x="598" 
d="M45 440h222v-79h-38v-104h82l68 104h-51v79h230v-79h-79l-95 -140l95 -141h84v-80h-143l-118 177h-73v-97h38v-80h-222v80h84v281h-84v79z" />
    <glyph glyph-name="Lacute" unicode="&#x139;" horiz-adv-x="558" 
d="M40 589h311v-89h-107l-1 -411h171l37 102l84 -29l-56 -162h-439v89h102l1 411h-103v89zM360 783l23 -87l-252 -42l-14 42z" />
    <glyph glyph-name="lacute" unicode="&#x13a;" horiz-adv-x="319" 
d="M27 0v80h84v476l-98 27l24 81l174 -49v-535h84v-80h-268zM300 824l23 -87l-252 -42l-14 42z" />
    <glyph glyph-name="uni013B" unicode="&#x13b;" horiz-adv-x="558" 
d="M40 589h311v-89h-107l-1 -411h171l37 102l84 -29l-56 -162h-439v89h102l1 411h-103v89zM243 -320l-36 36l8.5 12t19.5 30.5t19 35.5q-29 5 -43.5 24t-14.5 42q0 32 21 51.5t53 19.5q30 0 53 -22.5t23 -53.5q0 -32 -13.5 -61t-33 -53.5t-35.5 -40t-21 -20.5z" />
    <glyph glyph-name="uni013C" unicode="&#x13c;" horiz-adv-x="319" 
d="M27 0v80h84v476l-98 27l24 81l174 -49v-535h84v-80h-268zM129 -320l-36 36l8.5 12t19.5 30.5t19 35.5q-29 5 -43.5 24t-14.5 42q0 32 21 51.5t53 19.5q30 0 53 -22.5t23 -53.5q0 -32 -13.5 -61t-33 -53.5t-35.5 -40t-21 -20.5z" />
    <glyph glyph-name="Lcaron" unicode="&#x13d;" horiz-adv-x="558" 
d="M40 589h311v-89h-107l-1 -411h171l37 102l84 -29l-56 -162h-439v89h102l1 411h-103v89zM444 619l86 -19l-71 -223l-53 10z" />
    <glyph glyph-name="lcaron" unicode="&#x13e;" horiz-adv-x="319" 
d="M27 0v80h84v397l-98 27l24 81l174 -49v-456h84v-80h-268zM16 755l130 -64l132 64l30 -43l-162 -111l-163 111z" />
    <glyph glyph-name="Ldot" unicode="&#x13f;" horiz-adv-x="600" 
d="M40 589h311v-89h-107l-1 -411h171l37 102l84 -29l-56 -162h-439v89h102l1 411h-103v89zM366 405q30 0 51.5 -21.5t21.5 -51.5t-21.5 -51.5t-51.5 -21.5t-51.5 21.5t-21.5 51.5t21.5 51.5t51.5 21.5z" />
    <glyph glyph-name="ldot" unicode="&#x140;" horiz-adv-x="410" 
d="M27 0v80h84v476l-98 27l24 81l174 -49v-535h84v-80h-268zM317 365q30 0 51.5 -21.5t21.5 -51.5t-21.5 -51.5t-51.5 -21.5t-51.5 21.5t-21.5 51.5t21.5 51.5t51.5 21.5z" />
    <glyph glyph-name="Lslash" unicode="&#x141;" horiz-adv-x="558" 
d="M75 242l353 194v-81l-353 -194v81zM40 589h311v-89h-107l-1 -411h171l37 102l84 -29l-56 -162h-439v89h102l1 411h-103v89z" />
    <glyph glyph-name="lslash" unicode="&#x142;" horiz-adv-x="319" 
d="M40 268l248 216v-85l-248 -217v86zM27 0v80h84v476l-98 27l24 81l174 -49v-535h84v-80h-268z" />
    <glyph glyph-name="Nacute" unicode="&#x143;" horiz-adv-x="732" 
d="M41 589h244l229 -440v351h-79v89h269v-89h-95v-500h-121l-264 501l1 -412h84v-89h-269v89h90l-1 411h-88v89zM522 783l23 -87l-252 -42l-14 42z" />
    <glyph glyph-name="nacute" unicode="&#x144;" horiz-adv-x="646" 
d="M44 0v80h84v259l-96 33l27 81l136 -47q38 25 77.5 38.5t88.5 13.5q56 0 95.5 -22t60.5 -62.5t21 -95.5v-198h83v-80h-226v80h43v182q0 54 -25.5 82t-73.5 28q-28 0 -57.5 -9.5t-53.5 -24.5v-258h43v-80h-227zM403 728l71 -53l-155 -175l-44 31z" />
    <glyph glyph-name="uni0145" unicode="&#x145;" horiz-adv-x="732" 
d="M41 589h244l229 -440v351h-79v89h269v-89h-95v-500h-121l-264 501l1 -412h84v-89h-269v89h90l-1 411h-88v89zM340 -320l-36 36l8.5 12t19.5 30.5t19 35.5q-29 5 -43.5 24t-14.5 42q0 32 21 51.5t53 19.5q30 0 53 -22.5t23 -53.5q0 -32 -13.5 -61t-33 -53.5t-35.5 -40
t-21 -20.5z" />
    <glyph glyph-name="uni0146" unicode="&#x146;" horiz-adv-x="646" 
d="M44 0v80h84v259l-96 33l27 81l136 -47q38 25 77.5 38.5t88.5 13.5q56 0 95.5 -22t60.5 -62.5t21 -95.5v-198h83v-80h-226v80h43v182q0 54 -25.5 82t-73.5 28q-28 0 -57.5 -9.5t-53.5 -24.5v-258h43v-80h-227zM295 -320l-36 36l8.5 12t19.5 30.5t19 35.5q-29 5 -43.5 24
t-14.5 42q0 32 21 51.5t53 19.5q30 0 53 -22.5t23 -53.5q0 -32 -13.5 -61t-33 -53.5t-35.5 -40t-21 -20.5z" />
    <glyph glyph-name="Ncaron" unicode="&#x147;" horiz-adv-x="732" 
d="M41 589h244l229 -440v351h-79v89h269v-89h-95v-500h-121l-264 501l1 -412h84v-89h-269v89h90l-1 411h-88v89zM369 640l-162 109l31 47l132 -71l127 72l31 -48z" />
    <glyph glyph-name="ncaron" unicode="&#x148;" horiz-adv-x="646" 
d="M44 0v80h84v259l-96 33l27 81l136 -47q38 25 77.5 38.5t88.5 13.5q56 0 95.5 -22t60.5 -62.5t21 -95.5v-198h83v-80h-226v80h43v182q0 54 -25.5 82t-73.5 28q-28 0 -57.5 -9.5t-53.5 -24.5v-258h43v-80h-227zM324 491l-162 109l31 47l132 -71l127 72l31 -48z" />
    <glyph glyph-name="Eng" unicode="&#x14a;" horiz-adv-x="732" 
d="M426 -234q-35 0 -69 7t-71 22l25 74q27 -10 51 -14.5t45 -4.5q45 0 72.5 27.5t32.5 83.5l-288 540l1 -412h84v-89h-269v89h90l-1 411h-88v89h244l229 -440v351h-79v89h269v-89h-95v-505q-2 -111 -50 -170t-133 -59z" />
    <glyph glyph-name="eng" unicode="&#x14b;" horiz-adv-x="588" 
d="M361 458q83 0 130 -47.5t47 -132.5v-271q0 -117 -48 -179t-134 -62q-35 0 -69 7t-71 22l24 74q28 -10 52 -14.5t44 -4.5q49 0 75.5 34t26.5 103v275q0 54 -25 82t-74 28q-26 0 -55.5 -9t-55.5 -25v-258h43v-80h-227v80h84v259l-96 33l27 81l136 -47q41 27 80.5 39.5
t85.5 12.5z" />
    <glyph glyph-name="Omacron" unicode="&#x14c;" horiz-adv-x="656" 
d="M327 607q85 0 149.5 -37.5t100.5 -107t36 -167.5q0 -97 -36 -167t-100 -108t-149 -38q-84 0 -148.5 38t-100.5 108t-36 167q0 98 36 167.5t100 107t148 37.5zM328 520q-86 0 -132 -58.5t-46 -166.5q0 -109 46 -167.5t132 -58.5t132 58.5t46 167.5q0 108 -46 166.5
t-132 58.5zM167 756h321v-69h-321v69z" />
    <glyph glyph-name="omacron" unicode="&#x14d;" horiz-adv-x="542" 
d="M270 458q72 0 123.5 -28.5t79.5 -82t28 -128.5q0 -111 -62 -173.5t-169 -62.5q-70 0 -121.5 28t-79 81.5t-27.5 126.5q0 75 27.5 128.5t79 82t121.5 28.5zM270 376q-63 0 -95.5 -40.5t-32.5 -116.5q0 -75 32.5 -115t95.5 -40q66 0 98.5 40t32.5 115q0 76 -32.5 116.5
t-98.5 40.5zM110 607h321v-69h-321v69z" />
    <glyph glyph-name="Obreve" unicode="&#x14e;" horiz-adv-x="656" 
d="M327 607q85 0 149.5 -37.5t100.5 -107t36 -167.5q0 -97 -36 -167t-100 -108t-149 -38q-84 0 -148.5 38t-100.5 108t-36 167q0 98 36 167.5t100 107t148 37.5zM328 520q-86 0 -132 -58.5t-46 -166.5q0 -109 46 -167.5t132 -58.5t132 58.5t46 167.5q0 108 -46 166.5
t-132 58.5zM327 655q-146 0 -166 133l72 11q9 -73 94 -73q88 0 95 73l73 -11q-21 -133 -168 -133z" />
    <glyph glyph-name="obreve" unicode="&#x14f;" horiz-adv-x="542" 
d="M270 458q72 0 123.5 -28.5t79.5 -82t28 -128.5q0 -111 -62 -173.5t-169 -62.5q-70 0 -121.5 28t-79 81.5t-27.5 126.5q0 75 27.5 128.5t79 82t121.5 28.5zM270 376q-63 0 -95.5 -40.5t-32.5 -116.5q0 -75 32.5 -115t95.5 -40q66 0 98.5 40t32.5 115q0 76 -32.5 116.5
t-98.5 40.5zM270 506q-146 0 -166 133l72 11q9 -73 94 -73q88 0 95 73l73 -11q-21 -133 -168 -133z" />
    <glyph glyph-name="Ohungarumlaut" unicode="&#x150;" horiz-adv-x="656" 
d="M327 607q85 0 149.5 -37.5t100.5 -107t36 -167.5q0 -97 -36 -167t-100 -108t-149 -38q-84 0 -148.5 38t-100.5 108t-36 167q0 98 36 167.5t100 107t148 37.5zM328 520q-86 0 -132 -58.5t-46 -166.5q0 -109 46 -167.5t132 -58.5t132 58.5t46 167.5q0 108 -46 166.5
t-132 58.5zM391 823l51 -63l-167 -108l-26 30zM554 780l32 -74l-193 -52l-18 36z" />
    <glyph glyph-name="ohungarumlaut" unicode="&#x151;" horiz-adv-x="542" 
d="M270 458q72 0 123.5 -28.5t79.5 -82t28 -128.5q0 -111 -62 -173.5t-169 -62.5q-70 0 -121.5 28t-79 81.5t-27.5 126.5q0 75 27.5 128.5t79 82t121.5 28.5zM270 376q-63 0 -95.5 -40.5t-32.5 -116.5q0 -75 32.5 -115t95.5 -40q66 0 98.5 40t32.5 115q0 76 -32.5 116.5
t-98.5 40.5zM279 728l71 -53l-155 -175l-44 31zM465 707l58 -63l-184 -144l-38 39z" />
    <glyph glyph-name="OE" unicode="&#x152;" horiz-adv-x="890" 
d="M339 0q-85 0 -152 32.5t-105.5 99t-38.5 166.5q0 108 37.5 171.5t105 91.5t157.5 28h436l57 -169l-84 -28l-38 108h-192v-155h175v-87h-176v-169h215l38 103l84 -29l-56 -163h-463zM344 501q-45 0 -81 -8.5t-61 -30.5t-38.5 -62t-13.5 -102q0 -107 51.5 -158.5
t148.5 -51.5l69 1v412h-75z" />
    <glyph glyph-name="oe" unicode="&#x153;" horiz-adv-x="767" 
d="M721 52l-13 -11t-37 -24.5t-60.5 -24t-84.5 -10.5q-71 0 -125 39q-25 -16 -59 -27.5t-73 -11.5q-68 0 -120 28.5t-81 82.5t-29 128q0 72 30 123.5t81.5 80t118.5 28.5q44 0 79.5 -11t59.5 -26q27 19 57.5 28t62.5 9q58 0 102 -21t69.5 -67.5t25.5 -123.5q0 -17 -1 -30.5
t-3 -24.5l-317 -1q5 -59 36 -91t87 -32q43 0 74 10.5t50 21.5t25 16zM270 371q-61 0 -95 -41t-34 -108q0 -74 32.5 -117t96.5 -43q21 0 40.5 5.5t34.5 13.5q-16 25 -25.5 59.5t-9.5 76.5q0 43 10.5 78.5t28.5 60.5q-14 6 -34.5 10.5t-44.5 4.5zM634 266q0 49 -26.5 77
t-80.5 28q-51 0 -81.5 -27.5t-39.5 -77.5h228z" />
    <glyph glyph-name="Racute" unicode="&#x154;" horiz-adv-x="623" 
d="M40 0v89h87v411h-87v89h264q88 0 137.5 -22t69.5 -64t20 -102q0 -93 -50 -140.5t-163 -47.5h-88v-124h56v-89h-246zM231 302h71q42 0 69 8t40 29.5t13 61.5t-14 61.5t-41.5 29.5t-66.5 8h-71v-198zM432 0l-121 222l99 15l88 -148h97v-89h-163zM431 783l23 -87l-252 -42
l-14 42z" />
    <glyph glyph-name="racute" unicode="&#x155;" horiz-adv-x="452" 
d="M201 405q39 26 79.5 38.5t80.5 12.5q37 0 59 -9l17 -116l-83 -18l-10 55q-33 -2 -63 -11t-52 -24l-1 -253h98v-80h-282v80h84v260l-96 32l27 81zM301 728l71 -53l-155 -175l-44 31z" />
    <glyph glyph-name="uni0156" unicode="&#x156;" horiz-adv-x="623" 
d="M40 0v89h87v411h-87v89h264q88 0 137.5 -22t69.5 -64t20 -102q0 -93 -50 -140.5t-163 -47.5h-88v-124h56v-89h-246zM231 302h71q42 0 69 8t40 29.5t13 61.5t-14 61.5t-41.5 29.5t-66.5 8h-71v-198zM432 0l-121 222l99 15l88 -148h97v-89h-163zM283 -320l-36 36l8.5 12
t19.5 30.5t19 35.5q-29 5 -43.5 24t-14.5 42q0 32 21 51.5t53 19.5q30 0 53 -22.5t23 -53.5q0 -32 -13.5 -61t-33 -53.5t-35.5 -40t-21 -20.5z" />
    <glyph glyph-name="uni0157" unicode="&#x157;" horiz-adv-x="452" 
d="M201 405q39 26 79.5 38.5t80.5 12.5q37 0 59 -9l17 -116l-83 -18l-10 55q-33 -2 -63 -11t-52 -24l-1 -253h98v-80h-282v80h84v260l-96 32l27 81zM149 -320l-36 36l8.5 12t19.5 30.5t19 35.5q-29 5 -43.5 24t-14.5 42q0 32 21 51.5t53 19.5q30 0 53 -22.5t23 -53.5
q0 -32 -13.5 -61t-33 -53.5t-35.5 -40t-21 -20.5z" />
    <glyph glyph-name="Rcaron" unicode="&#x158;" horiz-adv-x="623" 
d="M40 0v89h87v411h-87v89h264q88 0 137.5 -22t69.5 -64t20 -102q0 -93 -50 -140.5t-163 -47.5h-88v-124h56v-89h-246zM231 302h71q42 0 69 8t40 29.5t13 61.5t-14 61.5t-41.5 29.5t-66.5 8h-71v-198zM432 0l-121 222l99 15l88 -148h97v-89h-163zM278 640l-162 109l31 47
l132 -71l127 72l31 -48z" />
    <glyph glyph-name="rcaron" unicode="&#x159;" horiz-adv-x="452" 
d="M201 405q39 26 79.5 38.5t80.5 12.5q37 0 59 -9l17 -116l-83 -18l-10 55q-33 -2 -63 -11t-52 -24l-1 -253h98v-80h-282v80h84v260l-96 32l27 81zM222 491l-162 109l31 47l132 -71l127 72l31 -48z" />
    <glyph glyph-name="Sacute" unicode="&#x15a;" horiz-adv-x="551" 
d="M278 -18q-72 0 -125.5 12t-90.5 26l-19 131l84 10l12 -74q30 -10 61.5 -16t72.5 -6q38 0 69.5 10t51 31t19.5 55q0 35 -20 60t-81 34l-74 12q-88 15 -135 58.5t-47 113.5q0 52 27.5 90t78.5 58t119 20q36 0 67 -3.5t60.5 -11.5t60.5 -21l18 -138l-87 -9l-13 86
q-21 7 -48 11.5t-60 4.5q-61 0 -96 -21.5t-35 -59.5t25.5 -59t79.5 -29l81 -14q92 -13 133 -57t41 -112q0 -53 -20 -90t-53.5 -59.5t-74 -32.5t-82.5 -10zM429 783l23 -87l-252 -42l-14 42z" />
    <glyph glyph-name="sacute" unicode="&#x15b;" horiz-adv-x="460" 
d="M313 368q-19 7 -38.5 11.5t-44.5 4.5q-36 0 -64.5 -14.5t-28.5 -43.5q0 -25 19.5 -40t65.5 -21l53 -7q79 -9 113.5 -42t34.5 -89q0 -46 -25.5 -79t-68.5 -49.5t-96 -16.5q-54 0 -99 12.5t-81 32.5l-17 104l85 16l12 -60q22 -11 46 -17t49 -6q42 0 73.5 15.5t31.5 45.5
q0 24 -17 37t-64 19l-52 7q-73 10 -113 44t-40 88q0 44 24.5 75t66 47t92.5 16q46 0 85 -10t73 -31l18 -96l-76 -15zM308 728l71 -53l-155 -175l-44 31z" />
    <glyph glyph-name="Scircumflex" unicode="&#x15c;" horiz-adv-x="551" 
d="M278 -18q-72 0 -125.5 12t-90.5 26l-19 131l84 10l12 -74q30 -10 61.5 -16t72.5 -6q38 0 69.5 10t51 31t19.5 55q0 35 -20 60t-81 34l-74 12q-88 15 -135 58.5t-47 113.5q0 52 27.5 90t78.5 58t119 20q36 0 67 -3.5t60.5 -11.5t60.5 -21l18 -138l-87 -9l-13 86
q-21 7 -48 11.5t-60 4.5q-61 0 -96 -21.5t-35 -59.5t25.5 -59t79.5 -29l81 -14q92 -13 133 -57t41 -112q0 -53 -20 -90t-53.5 -59.5t-74 -32.5t-82.5 -10zM275 789l176 -102l-26 -38l-150 57l-153 -57l-24 38z" />
    <glyph glyph-name="scircumflex" unicode="&#x15d;" horiz-adv-x="460" 
d="M313 368q-19 7 -38.5 11.5t-44.5 4.5q-36 0 -64.5 -14.5t-28.5 -43.5q0 -25 19.5 -40t65.5 -21l53 -7q79 -9 113.5 -42t34.5 -89q0 -46 -25.5 -79t-68.5 -49.5t-96 -16.5q-54 0 -99 12.5t-81 32.5l-17 104l85 16l12 -60q22 -11 46 -17t49 -6q42 0 73.5 15.5t31.5 45.5
q0 24 -17 37t-64 19l-52 7q-73 10 -113 44t-40 88q0 44 24.5 75t66 47t92.5 16q46 0 85 -10t73 -31l18 -96l-76 -15zM229 658l159 -109l-31 -48l-127 72l-132 -71l-31 47z" />
    <glyph glyph-name="Scedilla" unicode="&#x15e;" horiz-adv-x="551" 
d="M278 -18q-72 0 -125.5 12t-90.5 26l-19 131l84 10l12 -74q30 -10 61.5 -16t72.5 -6q38 0 69.5 10t51 31t19.5 55q0 35 -20 60t-81 34l-74 12q-88 15 -135 58.5t-47 113.5q0 52 27.5 90t78.5 58t119 20q36 0 67 -3.5t60.5 -11.5t60.5 -21l18 -138l-87 -9l-13 86
q-21 7 -48 11.5t-60 4.5q-61 0 -96 -21.5t-35 -59.5t25.5 -59t79.5 -29l81 -14q92 -13 133 -57t41 -112q0 -53 -20 -90t-53.5 -59.5t-74 -32.5t-82.5 -10zM337 -230q-30 0 -54 8.5t-40 18.5l-24 15l28 44q19 -12 41.5 -20t47.5 -8q24 0 35.5 9.5t11.5 26.5q0 16 -12.5 25
t-45.5 9h-50v102h63v-56q60 1 89.5 -19t29.5 -63q0 -30 -15.5 -50.5t-42.5 -31t-62 -10.5z" />
    <glyph glyph-name="scedilla" unicode="&#x15f;" horiz-adv-x="460" 
d="M313 368q-19 7 -38.5 11.5t-44.5 4.5q-36 0 -64.5 -14.5t-28.5 -43.5q0 -25 19.5 -40t65.5 -21l53 -7q79 -9 113.5 -42t34.5 -89q0 -46 -25.5 -79t-68.5 -49.5t-96 -16.5q-54 0 -99 12.5t-81 32.5l-17 104l85 16l12 -60q22 -11 46 -17t49 -6q42 0 73.5 15.5t31.5 45.5
q0 24 -17 37t-64 19l-52 7q-73 10 -113 44t-40 88q0 44 24.5 75t66 47t92.5 16q46 0 85 -10t73 -31l18 -96l-76 -15zM289 -230q-30 0 -54 8.5t-40 18.5l-24 15l28 44q19 -12 41.5 -20t47.5 -8q24 0 35.5 9.5t11.5 26.5q0 16 -12.5 25t-45.5 9h-50v102h63v-56q60 1 89.5 -19
t29.5 -63q0 -30 -15.5 -50.5t-42.5 -31t-62 -10.5z" />
    <glyph glyph-name="Scaron" unicode="&#x160;" horiz-adv-x="551" 
d="M278 -18q-72 0 -125.5 12t-90.5 26l-19 131l84 10l12 -74q30 -10 61.5 -16t72.5 -6q38 0 69.5 10t51 31t19.5 55q0 35 -20 60t-81 34l-74 12q-88 15 -135 58.5t-47 113.5q0 52 27.5 90t78.5 58t119 20q36 0 67 -3.5t60.5 -11.5t60.5 -21l18 -138l-87 -9l-13 86
q-21 7 -48 11.5t-60 4.5q-61 0 -96 -21.5t-35 -59.5t25.5 -59t79.5 -29l81 -14q92 -13 133 -57t41 -112q0 -53 -20 -90t-53.5 -59.5t-74 -32.5t-82.5 -10zM276 640l-162 109l31 47l132 -71l127 72l31 -48z" />
    <glyph glyph-name="scaron" unicode="&#x161;" horiz-adv-x="460" 
d="M313 368q-19 7 -38.5 11.5t-44.5 4.5q-36 0 -64.5 -14.5t-28.5 -43.5q0 -25 19.5 -40t65.5 -21l53 -7q79 -9 113.5 -42t34.5 -89q0 -46 -25.5 -79t-68.5 -49.5t-96 -16.5q-54 0 -99 12.5t-81 32.5l-17 104l85 16l12 -60q22 -11 46 -17t49 -6q42 0 73.5 15.5t31.5 45.5
q0 24 -17 37t-64 19l-52 7q-73 10 -113 44t-40 88q0 44 24.5 75t66 47t92.5 16q46 0 85 -10t73 -31l18 -96l-76 -15zM228 491l-162 109l31 47l132 -71l127 72l31 -48z" />
    <glyph glyph-name="uni0162" unicode="&#x162;" horiz-adv-x="595" 
d="M32 589h526v-186h-92v97h-119l-1 -411h88v-89h-280v89h89v411h-118v-97h-93v186zM358 -230q-30 0 -54 8.5t-40 18.5l-24 15l28 44q19 -12 41.5 -20t47.5 -8q24 0 35.5 9.5t11.5 26.5q0 16 -12.5 25t-45.5 9h-50v102h63v-56q60 1 89.5 -19t29.5 -63q0 -30 -15.5 -50.5
t-42.5 -31t-62 -10.5z" />
    <glyph glyph-name="uni0163" unicode="&#x163;" horiz-adv-x="387" 
d="M263 -17q-44 0 -79 17t-55 55.5t-20 101.5v204h-83v79h83v90l97 28v-118h122v-79h-122v-167q0 -61 14.5 -96.5t53.5 -35.5q29 0 68 19l19 -73q-23 -10 -48 -17.5t-50 -7.5zM250 -230q-30 0 -54 8.5t-40 18.5l-24 15l28 44q19 -12 41.5 -20t47.5 -8q24 0 35.5 9.5
t11.5 26.5q0 16 -12.5 25t-45.5 9h-50v102h63v-56q60 1 89.5 -19t29.5 -63q0 -30 -15.5 -50.5t-42.5 -31t-62 -10.5z" />
    <glyph glyph-name="Tcaron" unicode="&#x164;" horiz-adv-x="595" 
d="M32 589h526v-186h-92v97h-119l-1 -411h88v-89h-280v89h89v411h-118v-97h-93v186zM297 640l-162 109l31 47l132 -71l127 72l31 -48z" />
    <glyph glyph-name="tcaron" unicode="&#x165;" horiz-adv-x="387" 
d="M263 -17q-44 0 -79 17t-55 55.5t-20 101.5v204h-83v79h83v90l97 28v-118h122v-79h-122v-167q0 -61 14.5 -96.5t53.5 -35.5q29 0 68 19l19 -73q-23 -10 -48 -17.5t-50 -7.5zM168 562l-162 109l31 47l132 -71l127 72l31 -48z" />
    <glyph glyph-name="Tbar" unicode="&#x166;" horiz-adv-x="595" 
d="M32 589h526v-186h-92v97h-119l-1 -411h88v-89h-280v89h89v411h-118v-97h-93v186zM136 332h320v-70h-320v70z" />
    <glyph glyph-name="tbar" unicode="&#x167;" horiz-adv-x="387" 
d="M263 -17q-44 0 -79 17t-55 55.5t-20 101.5v204h-83v79h83v90l97 28v-118h122v-79h-122v-167q0 -61 14.5 -96.5t53.5 -35.5q29 0 68 19l19 -73q-23 -10 -48 -17.5t-50 -7.5zM19 315h320v-70h-320v70z" />
    <glyph glyph-name="Utilde" unicode="&#x168;" horiz-adv-x="684" 
d="M567 214q0 -109 -56 -170.5t-171 -61.5q-113 0 -168 61.5t-55 170.5v286h-89v89h251v-89h-60v-309q0 -65 32.5 -94.5t88.5 -29.5q58 0 91 32.5t33 101.5v299h-59v89h251v-89h-89v-286zM210 667l-26 58q33 24 57 35t59 11q29 0 50 -10t39 -20t39 -10q19 0 33.5 7t39.5 24
l26 -61q-28 -26 -51 -36t-54 -11q-22 -1 -42 9.5t-39.5 21t-42.5 10.5q-24 0 -41.5 -7t-46.5 -21z" />
    <glyph glyph-name="utilde" unicode="&#x169;" horiz-adv-x="626" 
d="M443 26q-33 -20 -73 -31.5t-75 -11.5q-99 0 -145 43t-46 136v199h-80v79h181v-262q0 -57 22.5 -83t71.5 -26q27 0 59.5 8.5t55.5 21.5v262h-80v79h181v-344l90 -31l-26 -85zM157 518l-26 58q33 24 57 35t59 11q29 0 50 -10t39 -20t39 -10q19 0 33.5 7t39.5 24l26 -61
q-28 -26 -51 -36t-54 -11q-22 -1 -42 9.5t-39.5 21t-42.5 10.5q-24 0 -41.5 -7t-46.5 -21z" />
    <glyph glyph-name="Umacron" unicode="&#x16a;" horiz-adv-x="684" 
d="M567 214q0 -109 -56 -170.5t-171 -61.5q-113 0 -168 61.5t-55 170.5v286h-89v89h251v-89h-60v-309q0 -65 32.5 -94.5t88.5 -29.5q58 0 91 32.5t33 101.5v299h-59v89h251v-89h-89v-286zM181 756h321v-69h-321v69z" />
    <glyph glyph-name="umacron" unicode="&#x16b;" horiz-adv-x="626" 
d="M443 26q-33 -20 -73 -31.5t-75 -11.5q-99 0 -145 43t-46 136v199h-80v79h181v-262q0 -57 22.5 -83t71.5 -26q27 0 59.5 8.5t55.5 21.5v262h-80v79h181v-344l90 -31l-26 -85zM128 607h321v-69h-321v69z" />
    <glyph glyph-name="Ubreve" unicode="&#x16c;" horiz-adv-x="684" 
d="M567 214q0 -109 -56 -170.5t-171 -61.5q-113 0 -168 61.5t-55 170.5v286h-89v89h251v-89h-60v-309q0 -65 32.5 -94.5t88.5 -29.5q58 0 91 32.5t33 101.5v299h-59v89h251v-89h-89v-286zM341 655q-146 0 -166 133l72 11q9 -73 94 -73q88 0 95 73l73 -11q-21 -133 -168 -133
z" />
    <glyph glyph-name="ubreve" unicode="&#x16d;" horiz-adv-x="626" 
d="M443 26q-33 -20 -73 -31.5t-75 -11.5q-99 0 -145 43t-46 136v199h-80v79h181v-262q0 -57 22.5 -83t71.5 -26q27 0 59.5 8.5t55.5 21.5v262h-80v79h181v-344l90 -31l-26 -85zM288 506q-146 0 -166 133l72 11q9 -73 94 -73q88 0 95 73l73 -11q-21 -133 -168 -133z" />
    <glyph glyph-name="Uring" unicode="&#x16e;" horiz-adv-x="684" 
d="M567 214q0 -109 -56 -170.5t-171 -61.5q-113 0 -168 61.5t-55 170.5v286h-89v89h251v-89h-60v-309q0 -65 32.5 -94.5t88.5 -29.5q58 0 91 32.5t33 101.5v299h-59v89h251v-89h-89v-286zM342 853q44 0 70.5 -26.5t26.5 -70.5t-26.5 -70.5t-70.5 -26.5t-70.5 26.5
t-26.5 70.5t26.5 70.5t70.5 26.5zM342 801q-20 0 -33 -12.5t-13 -32.5t13 -32.5t33 -12.5t32.5 12.5t12.5 32.5t-12.5 32.5t-32.5 12.5z" />
    <glyph glyph-name="uring" unicode="&#x16f;" horiz-adv-x="626" 
d="M443 26q-33 -20 -73 -31.5t-75 -11.5q-99 0 -145 43t-46 136v199h-80v79h181v-262q0 -57 22.5 -83t71.5 -26q27 0 59.5 8.5t55.5 21.5v262h-80v79h181v-344l90 -31l-26 -85zM289 704q44 0 70.5 -26.5t26.5 -70.5t-26.5 -70.5t-70.5 -26.5t-70.5 26.5t-26.5 70.5
t26.5 70.5t70.5 26.5zM289 652q-20 0 -33 -12.5t-13 -32.5t13 -32.5t33 -12.5t32.5 12.5t12.5 32.5t-12.5 32.5t-32.5 12.5z" />
    <glyph glyph-name="Uhungarumlaut" unicode="&#x170;" horiz-adv-x="684" 
d="M567 214q0 -109 -56 -170.5t-171 -61.5q-113 0 -168 61.5t-55 170.5v286h-89v89h251v-89h-60v-309q0 -65 32.5 -94.5t88.5 -29.5q58 0 91 32.5t33 101.5v299h-59v89h251v-89h-89v-286zM405 823l51 -63l-167 -108l-26 30zM568 780l32 -74l-193 -52l-18 36z" />
    <glyph glyph-name="uhungarumlaut" unicode="&#x171;" horiz-adv-x="626" 
d="M443 26q-33 -20 -73 -31.5t-75 -11.5q-99 0 -145 43t-46 136v199h-80v79h181v-262q0 -57 22.5 -83t71.5 -26q27 0 59.5 8.5t55.5 21.5v262h-80v79h181v-344l90 -31l-26 -85zM296 728l71 -53l-155 -175l-44 31zM482 707l58 -63l-184 -144l-38 39z" />
    <glyph glyph-name="Uogonek" unicode="&#x172;" horiz-adv-x="684" 
d="M567 214q0 -109 -56 -170.5t-171 -61.5q-113 0 -168 61.5t-55 170.5v286h-89v89h251v-89h-60v-309q0 -65 32.5 -94.5t88.5 -29.5q58 0 91 32.5t33 101.5v299h-59v89h251v-89h-89v-286zM434 36l27 -26q-44 -23 -62.5 -49.5t-18.5 -56.5q0 -22 16.5 -35t43.5 -13
q24 0 49 10v-68q-22 -10 -43.5 -14.5t-41.5 -4.5q-55 0 -88.5 26t-33.5 67q0 52 36.5 92t115.5 72z" />
    <glyph glyph-name="uogonek" unicode="&#x173;" horiz-adv-x="626" 
d="M443 26q-33 -20 -73 -31.5t-75 -11.5q-99 0 -145 43t-46 136v199h-80v79h181v-262q0 -57 22.5 -83t71.5 -26q27 0 59.5 8.5t55.5 21.5v262h-80v79h181v-344l90 -31l-26 -85zM552 6l27 -26q-44 -23 -62.5 -49.5t-18.5 -56.5q0 -22 16.5 -35t43.5 -13q24 0 49 10v-68
q-22 -10 -43.5 -14.5t-41.5 -4.5q-55 0 -88.5 26t-33.5 67q0 52 36.5 92t115.5 72z" />
    <glyph glyph-name="Wcircumflex" unicode="&#x174;" horiz-adv-x="925" 
d="M4 589h260v-89h-58l69 -254l35 -137l27 134l76 271h121l70 -267l28 -138l33 138l74 253h-63v89h246v-89h-81l-158 -500h-119l-64 267l-30 130l-35 -130l-68 -267h-116l-158 500h-89v89zM471 789l176 -102l-26 -38l-150 57l-153 -57l-24 38z" />
    <glyph glyph-name="wcircumflex" unicode="&#x175;" horiz-adv-x="772" 
d="M195 0l-119 361h-72v79h235v-79h-60l46 -160l31 -106l28 104l55 178h100l55 -180l29 -104l28 101l52 167h-59v79h224v-79h-71l-125 -361h-103l-81 265l-86 -265h-107zM387 658l159 -109l-31 -48l-127 72l-132 -71l-31 47z" />
    <glyph glyph-name="Ycircumflex" unicode="&#x176;" horiz-adv-x="658" 
d="M5 589h260v-89h-60l130 -180l137 180h-69v89h250v-89h-70l-201 -255l-1 -157h94v-88h-289v88h94l1 155l-195 257h-81v89zM329 789l176 -102l-26 -38l-150 57l-153 -57l-24 38z" />
    <glyph glyph-name="ycircumflex" unicode="&#x177;" horiz-adv-x="576" 
d="M151 -235q-19 0 -38.5 3.5t-41.5 12.5l17 77q17 -5 30.5 -8t27.5 -3q26 0 43 10t32.5 37t33.5 77l146 390h-53l3 79h222v-79h-75l-176 -442q-32 -79 -73 -116.5t-98 -37.5zM277 -68l-201 429h-73v79h231v-79h-56l143 -333zM293 658l159 -109l-31 -48l-127 72l-132 -71
l-31 47z" />
    <glyph glyph-name="Ydieresis" unicode="&#x178;" horiz-adv-x="658" 
d="M5 589h260v-89h-60l130 -180l137 180h-69v89h250v-89h-70l-201 -255l-1 -157h94v-88h-289v88h94l1 155l-195 257h-81v89zM421 792q26 0 44.5 -19t18.5 -45t-18.5 -45t-44.5 -19q-27 0 -45.5 19t-18.5 45t18.5 45t45.5 19zM235 792q26 0 45 -19t19 -45t-19 -45t-45 -19
t-45 19t-19 45t19 45t45 19z" />
    <glyph glyph-name="Zacute" unicode="&#x179;" horiz-adv-x="555" 
d="M62 589h435v-65l-319 -435h222l37 100l85 -28l-55 -161h-422v71l315 429h-222l-20 -92l-85 13zM431 783l23 -87l-252 -42l-14 42z" />
    <glyph glyph-name="zacute" unicode="&#x17a;" horiz-adv-x="480" 
d="M47 0v68l256 293h-172l-12 -57l-87 17l23 119h367v-65l-259 -295h185l12 61l88 -16l-25 -125h-376zM320 728l71 -53l-155 -175l-44 31z" />
    <glyph glyph-name="Zdotaccent" unicode="&#x17b;" horiz-adv-x="555" 
d="M62 589h435v-65l-319 -435h222l37 100l85 -28l-55 -161h-422v71l315 429h-222l-20 -92l-85 13zM276 805q30 0 48.5 -18.5t18.5 -48.5t-18.5 -48t-48.5 -18q-29 0 -47 18t-18 48t18 48.5t47 18.5z" />
    <glyph glyph-name="zdotaccent" unicode="&#x17c;" horiz-adv-x="480" 
d="M47 0v68l256 293h-172l-12 -57l-87 17l23 119h367v-65l-259 -295h185l12 61l88 -16l-25 -125h-376zM238 656q30 0 48.5 -18.5t18.5 -48.5t-18.5 -48t-48.5 -18q-29 0 -47 18t-18 48t18 48.5t47 18.5z" />
    <glyph glyph-name="Zcaron" unicode="&#x17d;" horiz-adv-x="555" 
d="M62 589h435v-65l-319 -435h222l37 100l85 -28l-55 -161h-422v71l315 429h-222l-20 -92l-85 13zM278 640l-162 109l31 47l132 -71l127 72l31 -48z" />
    <glyph glyph-name="zcaron" unicode="&#x17e;" horiz-adv-x="480" 
d="M47 0v68l256 293h-172l-12 -57l-87 17l23 119h367v-65l-259 -295h185l12 61l88 -16l-25 -125h-376zM240 491l-162 109l31 47l132 -71l127 72l31 -48z" />
    <glyph glyph-name="uni018F" unicode="&#x18f;" horiz-adv-x="615" 
d="M272 607q89 1 155 -37t102.5 -108t36.5 -167t-35.5 -167t-97.5 -108t-144 -38q-76 0 -135.5 35.5t-93.5 102t-34 159.5v43h436q-8 98 -56 148.5t-135 50.5q-39 0 -69.5 -7t-49.5 -15l-18 -84l-88 20l24 122q12 8 36 19.5t64.5 21t101.5 9.5zM287 69q49 0 88 20t62 59
t23 94h-334q0 -87 45.5 -130t115.5 -43z" />
    <glyph glyph-name="florin" unicode="&#x192;" horiz-adv-x="526" 
d="M142 -7q-32 0 -61.5 10t-50.5 32l46 73q34 -28 69 -28q33 0 56.5 25.5t30.5 75.5l25 180h-84l12 79h84l6 49q13 86 67.5 135.5t140.5 49.5q33 0 62.5 -12t46.5 -35l-44 -65q-18 15 -35.5 20.5t-38.5 5.5q-40 0 -66 -25.5t-31 -66.5l-8 -56h108l-12 -79h-107l-27 -194
q-13 -91 -62 -132.5t-127 -41.5z" />
    <glyph glyph-name="Ohorn" unicode="&#x1a0;" horiz-adv-x="656" 
d="M327 607q85 0 149.5 -37.5t100.5 -107t36 -167.5q0 -97 -36 -167t-100 -108t-149 -38q-84 0 -148.5 38t-100.5 108t-36 167q0 98 36 167.5t100 107t148 37.5zM328 520q-86 0 -132 -58.5t-46 -166.5q0 -109 46 -167.5t132 -58.5t132 58.5t46 167.5q0 108 -46 166.5
t-132 58.5zM422 510v79q69 0 69 79h80q0 -78 -38 -118t-111 -40z" />
    <glyph glyph-name="ohorn" unicode="&#x1a1;" horiz-adv-x="542" 
d="M270 458q72 0 123.5 -28.5t79.5 -82t28 -128.5q0 -111 -62 -173.5t-169 -62.5q-70 0 -121.5 28t-79 81.5t-27.5 126.5q0 75 27.5 128.5t79 82t121.5 28.5zM270 376q-63 0 -95.5 -40.5t-32.5 -116.5q0 -75 32.5 -115t95.5 -40q66 0 98.5 40t32.5 115q0 76 -32.5 116.5
t-98.5 40.5zM358 361v79q69 0 69 79h80q0 -78 -38 -118t-111 -40z" />
    <glyph glyph-name="Uhorn" unicode="&#x1af;" horiz-adv-x="716" 
d="M567 214q0 -109 -56 -170.5t-171 -61.5q-113 0 -168 61.5t-55 170.5v286h-89v89h251v-89h-60v-309q0 -65 32.5 -94.5t88.5 -29.5q58 0 91 32.5t33 101.5v299h-59v89h162v-375zM518 500v89q69 0 69 79h80q0 -84 -38 -126t-111 -42z" />
    <glyph glyph-name="uhorn" unicode="&#x1b0;" horiz-adv-x="645" 
d="M443 26q-33 -20 -73 -31.5t-75 -11.5q-99 0 -145 43t-46 136v199h-80v79h181v-262q0 -57 22.5 -83t71.5 -26q27 0 59.5 8.5t55.5 21.5v262h-80v79h181v-344l90 -31l-26 -85zM467 361v79q69 0 69 79h80q0 -78 -38 -118t-111 -40z" />
    <glyph glyph-name="Gcaron" unicode="&#x1e6;" horiz-adv-x="613" 
d="M553 57q-34 -24 -64.5 -41t-67 -25.5t-87.5 -8.5q-84 0 -150 36.5t-103.5 106t-37.5 170.5q0 95 36 165t102.5 108.5t158.5 38.5q57 0 105.5 -15t85.5 -44l28 -123l-86 -20l-20 89q-24 13 -49 20.5t-62 7.5q-50 0 -94 -27t-71 -78t-27 -122q0 -76 24.5 -126t66 -75
t92.5 -25q41 0 68 8.5t55 24.5v113h-128v83h225v-241zM344 640l-162 109l31 47l132 -71l127 72l31 -48z" />
    <glyph glyph-name="gcaron" unicode="&#x1e7;" horiz-adv-x="559" 
d="M240 116q-97 0 -152.5 43t-55.5 121q0 83 56.5 130.5t152.5 47.5q38 0 67 -6.5t55 -20.5l148 53l30 -87l-120 -22q16 -19 22.5 -42.5t6.5 -46.5q0 -57 -27.5 -95t-75 -56.5t-107.5 -18.5zM248 -234q-47 0 -91 8t-79.5 20t-53.5 22l36 78q43 -20 91.5 -31.5t96.5 -11.5
q44 0 71.5 7.5t41 20t13.5 29.5q0 25 -20.5 38.5t-69.5 13.5h-152v196l85 -22v-92h84q85 0 127.5 -34t42.5 -97q0 -49 -29 -81.5t-79.5 -48t-114.5 -15.5zM242 193q52 0 82 26t30 67q0 45 -29 69.5t-83 24.5q-55 0 -84 -24.5t-29 -69.5q0 -41 30 -67t83 -26zM242 491
l-162 109l31 47l132 -71l127 72l31 -48z" />
    <glyph glyph-name="uni01EA" unicode="&#x1ea;" horiz-adv-x="656" 
d="M327 607q85 0 149.5 -37.5t100.5 -107t36 -167.5q0 -97 -36 -167t-100 -108t-149 -38q-84 0 -148.5 38t-100.5 108t-36 167q0 98 36 167.5t100 107t148 37.5zM328 520q-86 0 -132 -58.5t-46 -166.5q0 -109 46 -167.5t132 -58.5t132 58.5t46 167.5q0 108 -46 166.5
t-132 58.5zM429 36l27 -26q-44 -23 -62.5 -49.5t-18.5 -56.5q0 -22 16.5 -35t43.5 -13q24 0 49 10v-68q-22 -10 -43.5 -14.5t-41.5 -4.5q-55 0 -88.5 26t-33.5 67q0 52 36.5 92t115.5 72z" />
    <glyph glyph-name="uni01EB" unicode="&#x1eb;" horiz-adv-x="542" 
d="M270 458q72 0 123.5 -28.5t79.5 -82t28 -128.5q0 -111 -62 -173.5t-169 -62.5q-70 0 -121.5 28t-79 81.5t-27.5 126.5q0 75 27.5 128.5t79 82t121.5 28.5zM270 376q-63 0 -95.5 -40.5t-32.5 -116.5q0 -75 32.5 -115t95.5 -40q66 0 98.5 40t32.5 115q0 76 -32.5 116.5
t-98.5 40.5zM380 45l27 -26q-44 -23 -62.5 -49.5t-18.5 -56.5q0 -22 16.5 -35t43.5 -13q24 0 49 10v-68q-22 -10 -43.5 -14.5t-41.5 -4.5q-55 0 -88.5 26t-33.5 67q0 52 36.5 92t115.5 72z" />
    <glyph glyph-name="Aringacute" unicode="&#x1fa;" horiz-adv-x="669" 
d="M8 0v89h97l157 411h-91v89h215l183 -500h92v-89h-253v89h57l-31 88h-206l-32 -88h60v-89h-248zM255 252h153l-74 228zM344 759q44 0 70.5 -26.5t26.5 -70.5t-26.5 -70.5t-70.5 -26.5t-70.5 26.5t-26.5 70.5t26.5 70.5t70.5 26.5zM344 707q-20 0 -33 -12.5t-13 -32.5
t13 -32.5t33 -12.5t32.5 12.5t12.5 32.5t-12.5 32.5t-32.5 12.5zM496 918l23 -87l-252 -42l-14 42z" />
    <glyph glyph-name="aringacute" unicode="&#x1fb;" horiz-adv-x="541" 
d="M362 24q-68 -41 -142 -41q-90 0 -136.5 35t-47.5 102q-1 137 177 137l118 -1q0 63 -24.5 93.5t-68.5 30.5q-23 0 -44 -3t-40 -9l-10 -52l-83 13l18 100q39 14 79 21.5t80 7.5q95 0 144.5 -50.5t49.5 -148.5v-169l88 -29l-26 -82zM216 186q-37 0 -57 -16.5t-20 -47.5
q0 -62 85 -62q60 0 107 32v94h-115zM242 704q44 0 70.5 -26.5t26.5 -70.5t-26.5 -70.5t-70.5 -26.5t-70.5 26.5t-26.5 70.5t26.5 70.5t70.5 26.5zM242 652q-20 0 -33 -12.5t-13 -32.5t13 -32.5t33 -12.5t32.5 12.5t12.5 32.5t-12.5 32.5t-32.5 12.5zM322 992l71 -53
l-155 -175l-44 31z" />
    <glyph glyph-name="AEacute" unicode="&#x1fc;" horiz-adv-x="931" 
d="M28 0v89h97l256 411h-97v89h537l56 -168l-84 -29l-39 108h-177v-160h161v-88h-162v-163h201l38 103l84 -29l-55 -163h-459v89h89v79h-201l-48 -79h55v-89h-252zM325 256h149l1 244zM680 783l23 -87l-252 -42l-14 42z" />
    <glyph glyph-name="aeacute" unicode="&#x1fd;" horiz-adv-x="792" 
d="M78 422q37 14 71.5 22.5t81.5 8.5q68 0 108 -25t55 -67q30 43 74.5 67.5t96.5 24.5q44 0 80.5 -17.5t61.5 -51t35.5 -82.5t1.5 -111l-315 -1q5 -61 39.5 -94.5t90.5 -33.5q43 0 74 10.5t50 21.5t25 16l44 -58l-12.5 -11t-37 -24.5t-60.5 -24t-84 -10.5q-49 0 -90.5 14
t-72.5 45q-18 -13 -48 -26.5t-64 -23t-63 -9.5q-86 0 -134.5 38.5t-49.5 99.5q0 51 24 82t64 45t89 14l123 -1q0 34 -7 57.5t-28.5 36.5t-65.5 13q-23 0 -43.5 -3t-37.5 -7l-9 -51l-84 15zM216 185q-19 0 -37 -5t-29 -18t-11 -40q0 -31 25.5 -45t59.5 -14q22 0 47.5 6
t47.5 15.5t36 17.5q-7 19 -12.5 39.5t-7.5 42.5zM662 266q-1 49 -25 77t-78 28q-51 0 -85 -27.5t-44 -77.5h232zM481 728l71 -53l-155 -175l-44 31z" />
    <glyph glyph-name="Oslashacute" unicode="&#x1fe;" horiz-adv-x="656" 
d="M128 -69l50 109l30 50l197 431l25 49l37 81h88l-56 -121l-30 -52l-196 -431l-21 -37l-36 -79h-88zM327 607q85 0 149.5 -37.5t100.5 -107t36 -167.5q0 -97 -36 -167t-100 -108t-149 -38q-84 0 -148.5 38t-100.5 108t-36 167q0 98 36 167.5t100 107t148 37.5zM328 520
q-86 0 -132 -58.5t-46 -166.5q0 -109 46 -167.5t132 -58.5t132 58.5t46 167.5q0 108 -46 166.5t-132 58.5zM482 783l23 -87l-252 -42l-14 42z" />
    <glyph glyph-name="oslashacute" unicode="&#x1ff;" horiz-adv-x="542" 
d="M174 -73h-57l247 581h57zM270 458q72 0 123.5 -28.5t79.5 -82t28 -128.5q0 -111 -62 -173.5t-169 -62.5q-70 0 -121.5 28t-79 81.5t-27.5 126.5q0 75 27.5 128.5t79 82t121.5 28.5zM270 376q-63 0 -95.5 -40.5t-32.5 -116.5q0 -75 32.5 -115t95.5 -40q66 0 98.5 40
t32.5 115q0 76 -32.5 116.5t-98.5 40.5zM352 728l71 -53l-155 -175l-44 31z" />
    <glyph glyph-name="uni0200" unicode="&#x200;" horiz-adv-x="669" 
d="M8 0v89h97l157 411h-91v89h215l183 -500h92v-89h-253v89h57l-31 88h-206l-32 -88h60v-89h-248zM255 252h153l-74 228zM263 823l142 -141l-26 -30l-167 108zM101 780l179 -90l-18 -36l-193 52z" />
    <glyph glyph-name="uni0201" unicode="&#x201;" horiz-adv-x="541" 
d="M362 24q-68 -41 -142 -41q-90 0 -136.5 35t-47.5 102q-1 137 177 137l118 -1q0 63 -24.5 93.5t-68.5 30.5q-23 0 -44 -3t-40 -9l-10 -52l-83 13l18 100q39 14 79 21.5t80 7.5q95 0 144.5 -50.5t49.5 -148.5v-169l88 -29l-26 -82zM216 186q-37 0 -57 -16.5t-20 -47.5
q0 -62 85 -62q60 0 107 32v94h-115zM231 728l128 -197l-44 -31l-155 175zM45 707l164 -168l-38 -39l-184 144z" />
    <glyph glyph-name="uni0202" unicode="&#x202;" horiz-adv-x="669" 
d="M325 808q147 0 168 -132l-73 -11q-7 73 -95 73q-85 0 -94 -73l-72 11q21 132 166 132zM8 0v89h97l157 411h-91v89h215l183 -500h92v-89h-253v89h57l-31 88h-206l-32 -88h60v-89h-248zM255 252h153l-74 228z" />
    <glyph glyph-name="uni0203" unicode="&#x203;" horiz-adv-x="541" 
d="M241 660q147 0 168 -132l-73 -12q-7 73 -95 73q-85 0 -94 -73l-72 12q20 132 166 132zM362 24q-68 -41 -142 -41q-90 0 -136.5 35t-47.5 102q-1 137 177 137l118 -1q0 63 -24.5 93.5t-68.5 30.5q-23 0 -44 -3t-40 -9l-10 -52l-83 13l18 100q39 14 79 21.5t80 7.5
q95 0 144.5 -50.5t49.5 -148.5v-169l88 -29l-26 -82zM216 186q-37 0 -57 -16.5t-20 -47.5q0 -62 85 -62q60 0 107 32v94h-115z" />
    <glyph glyph-name="uni0204" unicode="&#x204;" horiz-adv-x="601" 
d="M41 589h450l56 -168l-84 -29l-39 108h-192v-154h176v-88h-176v-169h216l37 103l84 -29l-56 -163h-473v89h89l1 411h-89v89zM285 877l128 -197l-44 -31l-155 175zM99 856l164 -168l-38 -39l-184 144z" />
    <glyph glyph-name="uni0205" unicode="&#x205;" horiz-adv-x="510" 
d="M463 53q-42 -36 -87.5 -53t-95.5 -17q-74 0 -129 29t-84.5 82.5t-29.5 125.5q0 71 28 124.5t79.5 83.5t118.5 30q66 0 114 -27.5t74.5 -76.5t26.5 -115q0 -11 -1 -24t-3 -25l-340 -1q3 -44 23.5 -71.5t52 -41t68.5 -13.5q43 0 80 13t67 38zM378 261q0 52 -30.5 84.5
t-82.5 32.5q-49 0 -86.5 -32.5t-42.5 -84.5h242zM249 728l128 -197l-44 -31l-155 175zM63 707l164 -168l-38 -39l-184 144z" />
    <glyph glyph-name="uni0206" unicode="&#x206;" horiz-adv-x="601" 
d="M296 808q147 0 168 -132l-73 -11q-7 73 -95 73q-86 0 -94 -73l-73 11q21 132 167 132zM41 589h450l56 -168l-84 -29l-39 108h-192v-154h176v-88h-176v-169h216l37 103l84 -29l-56 -163h-473v89h89l1 411h-89v89z" />
    <glyph glyph-name="uni0207" unicode="&#x207;" horiz-adv-x="510" 
d="M259 660q147 0 168 -132l-73 -12q-7 73 -95 73q-86 0 -94 -73l-73 12q21 132 167 132zM463 53q-42 -36 -87.5 -53t-95.5 -17q-74 0 -129 29t-84.5 82.5t-29.5 125.5q0 71 28 124.5t79.5 83.5t118.5 30q66 0 114 -27.5t74.5 -76.5t26.5 -115q0 -11 -1 -24t-3 -25l-340 -1
q3 -44 23.5 -71.5t52 -41t68.5 -13.5q43 0 80 13t67 38zM378 261q0 52 -30.5 84.5t-82.5 32.5q-49 0 -86.5 -32.5t-42.5 -84.5h242z" />
    <glyph glyph-name="uni0208" unicode="&#x208;" horiz-adv-x="372" 
d="M41 589h292v-89h-94l-1 -411h95v-89h-293v89h96v411h-95v89zM175 877l128 -197l-44 -31l-155 175zM-11 856l164 -168l-38 -39l-184 144z" />
    <glyph glyph-name="uni0209" unicode="&#x209;" horiz-adv-x="330" 
d="M39 440h184v-360h83v-80h-267v80h83v281h-83v79zM151 728l128 -197l-44 -31l-155 175zM-35 707l164 -168l-38 -39l-184 144z" />
    <glyph glyph-name="uni020A" unicode="&#x20a;" horiz-adv-x="372" 
d="M186 808q147 0 168 -132l-73 -11q-7 73 -95 73q-86 0 -94 -73l-73 11q21 132 167 132zM41 589h292v-89h-94l-1 -411h95v-89h-293v89h96v411h-95v89z" />
    <glyph glyph-name="uni020B" unicode="&#x20b;" horiz-adv-x="330" 
d="M39 440h184v-360h83v-80h-267v80h83v281h-83v79zM162 660q130 0 143 -132l-65 -12q-4 73 -78 73q-35 0 -55 -18t-22 -55l-64 12q6 65 42.5 98.5t98.5 33.5z" />
    <glyph glyph-name="uni020C" unicode="&#x20c;" horiz-adv-x="656" 
d="M327 607q85 0 149.5 -37.5t100.5 -107t36 -167.5q0 -97 -36 -167t-100 -108t-149 -38q-84 0 -148.5 38t-100.5 108t-36 167q0 98 36 167.5t100 107t148 37.5zM328 520q-86 0 -132 -58.5t-46 -166.5q0 -109 46 -167.5t132 -58.5t132 58.5t46 167.5q0 108 -46 166.5
t-132 58.5zM317 877l128 -197l-44 -31l-155 175zM131 856l164 -168l-38 -39l-184 144z" />
    <glyph glyph-name="uni020D" unicode="&#x20d;" horiz-adv-x="542" 
d="M270 458q72 0 123.5 -28.5t79.5 -82t28 -128.5q0 -111 -62 -173.5t-169 -62.5q-70 0 -121.5 28t-79 81.5t-27.5 126.5q0 75 27.5 128.5t79 82t121.5 28.5zM270 376q-63 0 -95.5 -40.5t-32.5 -116.5q0 -75 32.5 -115t95.5 -40q66 0 98.5 40t32.5 115q0 76 -32.5 116.5
t-98.5 40.5zM260 728l128 -197l-44 -31l-155 175zM74 707l164 -168l-38 -39l-184 144z" />
    <glyph glyph-name="uni020E" unicode="&#x20e;" horiz-adv-x="656" 
d="M327 808q147 0 168 -132l-73 -11q-7 73 -95 73q-85 0 -94 -73l-72 11q20 132 166 132zM327 607q85 0 149.5 -37.5t100.5 -107t36 -167.5q0 -97 -36 -167t-100 -108t-149 -38q-84 0 -148.5 38t-100.5 108t-36 167q0 98 36 167.5t100 107t148 37.5zM328 520
q-86 0 -132 -58.5t-46 -166.5q0 -109 46 -167.5t132 -58.5t132 58.5t46 167.5q0 108 -46 166.5t-132 58.5z" />
    <glyph glyph-name="uni020F" unicode="&#x20f;" horiz-adv-x="542" 
d="M271 660q147 0 167 -132l-72 -12q-7 73 -95 73q-86 0 -94 -73l-73 12q21 132 167 132zM270 458q72 0 123.5 -28.5t79.5 -82t28 -128.5q0 -111 -62 -173.5t-169 -62.5q-70 0 -121.5 28t-79 81.5t-27.5 126.5q0 75 27.5 128.5t79 82t121.5 28.5zM271 376q-64 0 -96.5 -40.5
t-32.5 -116.5q0 -75 32.5 -115t96.5 -40q65 0 97.5 40t32.5 115q0 76 -32.5 116.5t-97.5 40.5z" />
    <glyph glyph-name="uni0210" unicode="&#x210;" horiz-adv-x="623" 
d="M40 0v89h87v411h-87v89h264q88 0 137.5 -22t69.5 -64t20 -102q0 -93 -50 -140.5t-163 -47.5h-88v-124h56v-89h-246zM231 302h71q42 0 69 8t40 29.5t13 61.5t-14 61.5t-41.5 29.5t-66.5 8h-71v-198zM432 0l-121 222l99 15l88 -148h97v-89h-163zM266 877l128 -197l-44 -31
l-155 175zM80 856l164 -168l-38 -39l-184 144z" />
    <glyph glyph-name="uni0211" unicode="&#x211;" horiz-adv-x="452" 
d="M201 405q39 26 79.5 38.5t80.5 12.5q37 0 59 -9l17 -116l-83 -18l-10 55q-33 -2 -63 -11t-52 -24l-1 -253h98v-80h-282v80h84v260l-96 32l27 81zM210 728l128 -197l-44 -31l-155 175zM24 707l164 -168l-38 -39l-184 144z" />
    <glyph glyph-name="uni0212" unicode="&#x212;" horiz-adv-x="623" 
d="M276 808q147 0 168 -132l-73 -11q-7 73 -95 73q-85 0 -94 -73l-73 11q21 132 167 132zM40 0v89h87v411h-87v89h264q88 0 137.5 -22t69.5 -64t20 -102q0 -93 -50 -140.5t-163 -47.5h-88v-124h56v-89h-246zM231 302h71q42 0 69 8t40 29.5t13 61.5t-14 61.5t-41.5 29.5
t-66.5 8h-71v-198zM432 0l-121 222l99 15l88 -148h97v-89h-163z" />
    <glyph glyph-name="uni0213" unicode="&#x213;" horiz-adv-x="452" 
d="M220 660q147 0 168 -132l-73 -12q-7 73 -95 73q-86 0 -94 -73l-73 12q21 132 167 132zM201 405q39 26 79.5 38.5t80.5 12.5q37 0 59 -9l17 -116l-83 -18l-10 55q-33 -2 -63 -11t-52 -24l-1 -253h98v-80h-282v80h84v260l-96 32l27 81z" />
    <glyph glyph-name="uni0214" unicode="&#x214;" horiz-adv-x="684" 
d="M567 214q0 -109 -56 -170.5t-171 -61.5q-113 0 -168 61.5t-55 170.5v286h-89v89h251v-89h-60v-309q0 -65 32.5 -94.5t88.5 -29.5q58 0 91 32.5t33 101.5v299h-59v89h251v-89h-89v-286zM331 877l128 -197l-44 -31l-155 175zM145 856l164 -168l-38 -39l-184 144z" />
    <glyph glyph-name="uni0215" unicode="&#x215;" horiz-adv-x="626" 
d="M443 26q-33 -20 -73 -31.5t-75 -11.5q-99 0 -145 43t-46 136v199h-80v79h181v-262q0 -57 22.5 -83t71.5 -26q27 0 59.5 8.5t55.5 21.5v262h-80v79h181v-344l90 -31l-26 -85zM278 728l128 -197l-44 -31l-155 175zM92 707l164 -168l-38 -39l-184 144z" />
    <glyph glyph-name="uni0216" unicode="&#x216;" horiz-adv-x="684" 
d="M341 808q147 0 168 -132l-73 -11q-7 73 -95 73q-85 0 -94 -73l-72 11q20 132 166 132zM567 214q0 -109 -56 -170.5t-171 -61.5q-113 0 -168 61.5t-55 170.5v286h-89v89h251v-89h-60v-309q0 -65 32.5 -94.5t88.5 -29.5q58 0 91 32.5t33 101.5v299h-59v89h251v-89h-89v-286
z" />
    <glyph glyph-name="uni0217" unicode="&#x217;" horiz-adv-x="626" 
d="M288 660q147 0 168 -132l-73 -12q-7 73 -95 73q-85 0 -94 -73l-72 12q21 132 166 132zM443 26q-33 -20 -73 -31.5t-75 -11.5q-99 0 -145 43t-46 136v199h-80v79h181v-262q0 -57 22.5 -83t71.5 -26q27 0 59.5 8.5t55.5 21.5v262h-80v79h181v-344l90 -31l-26 -85z" />
    <glyph glyph-name="uni0218" unicode="&#x218;" horiz-adv-x="551" 
d="M278 -18q-72 0 -125.5 12t-90.5 26l-19 131l84 10l12 -74q30 -10 61.5 -16t72.5 -6q38 0 69.5 10t51 31t19.5 55q0 35 -20 60t-81 34l-74 12q-88 15 -135 58.5t-47 113.5q0 52 27.5 90t78.5 58t119 20q36 0 67 -3.5t60.5 -11.5t60.5 -21l18 -138l-87 -9l-13 86
q-21 7 -48 11.5t-60 4.5q-61 0 -96 -21.5t-35 -59.5t25.5 -59t79.5 -29l81 -14q92 -13 133 -57t41 -112q0 -53 -20 -90t-53.5 -59.5t-74 -32.5t-82.5 -10zM247 -320l-36 36l8.5 12t19.5 30.5t19 35.5q-29 5 -43.5 24t-14.5 42q0 32 21 51.5t53 19.5q30 0 53 -22.5t23 -53.5
q0 -32 -13.5 -61t-33 -53.5t-35.5 -40t-21 -20.5z" />
    <glyph glyph-name="uni0219" unicode="&#x219;" horiz-adv-x="460" 
d="M313 368q-19 7 -38.5 11.5t-44.5 4.5q-36 0 -64.5 -14.5t-28.5 -43.5q0 -25 19.5 -40t65.5 -21l53 -7q79 -9 113.5 -42t34.5 -89q0 -46 -25.5 -79t-68.5 -49.5t-96 -16.5q-54 0 -99 12.5t-81 32.5l-17 104l85 16l12 -60q22 -11 46 -17t49 -6q42 0 73.5 15.5t31.5 45.5
q0 24 -17 37t-64 19l-52 7q-73 10 -113 44t-40 88q0 44 24.5 75t66 47t92.5 16q46 0 85 -10t73 -31l18 -96l-76 -15zM199 -320l-36 36l8.5 12t19.5 30.5t19 35.5q-29 5 -43.5 24t-14.5 42q0 32 21 51.5t53 19.5q30 0 53 -22.5t23 -53.5q0 -32 -13.5 -61t-33 -53.5t-35.5 -40
t-21 -20.5z" />
    <glyph glyph-name="uni021A" unicode="&#x21a;" horiz-adv-x="595" 
d="M32 589h526v-186h-92v97h-119l-1 -411h88v-89h-280v89h89v411h-118v-97h-93v186zM268 -320l-36 36l8.5 12t19.5 30.5t19 35.5q-29 5 -43.5 24t-14.5 42q0 32 21 51.5t53 19.5q30 0 53 -22.5t23 -53.5q0 -32 -13.5 -61t-33 -53.5t-35.5 -40t-21 -20.5z" />
    <glyph glyph-name="uni021B" unicode="&#x21b;" horiz-adv-x="387" 
d="M263 -17q-44 0 -79 17t-55 55.5t-20 101.5v204h-83v79h83v90l97 28v-118h122v-79h-122v-167q0 -61 14.5 -96.5t53.5 -35.5q29 0 68 19l19 -73q-23 -10 -48 -17.5t-50 -7.5zM160 -320l-36 36l8.5 12t19.5 30.5t19 35.5q-29 5 -43.5 24t-14.5 42q0 32 21 51.5t53 19.5
q30 0 53 -22.5t23 -53.5q0 -32 -13.5 -61t-33 -53.5t-35.5 -40t-21 -20.5z" />
    <glyph glyph-name="uni022A" unicode="&#x22a;" horiz-adv-x="656" 
d="M327 607q85 0 149.5 -37.5t100.5 -107t36 -167.5q0 -97 -36 -167t-100 -108t-149 -38q-84 0 -148.5 38t-100.5 108t-36 167q0 98 36 167.5t100 107t148 37.5zM328 520q-86 0 -132 -58.5t-46 -166.5q0 -109 46 -167.5t132 -58.5t132 58.5t46 167.5q0 108 -46 166.5
t-132 58.5zM420 792q26 0 44.5 -19t18.5 -45t-18.5 -45t-44.5 -19q-27 0 -45.5 19t-18.5 45t18.5 45t45.5 19zM234 792q26 0 45 -19t19 -45t-19 -45t-45 -19t-45 19t-19 45t19 45t45 19zM167 903h321v-69h-321v69z" />
    <glyph glyph-name="uni022B" unicode="&#x22b;" horiz-adv-x="542" 
d="M270 458q72 0 123.5 -28.5t79.5 -82t28 -128.5q0 -111 -62 -173.5t-169 -62.5q-70 0 -121.5 28t-79 81.5t-27.5 126.5q0 75 27.5 128.5t79 82t121.5 28.5zM270 376q-63 0 -95.5 -40.5t-32.5 -116.5q0 -75 32.5 -115t95.5 -40q66 0 98.5 40t32.5 115q0 76 -32.5 116.5
t-98.5 40.5zM364 643q26 0 44.5 -19t18.5 -45t-18.5 -45t-44.5 -19q-27 0 -45.5 19t-18.5 45t18.5 45t45.5 19zM178 643q26 0 45 -19t19 -45t-19 -45t-45 -19t-45 19t-19 45t19 45t45 19zM110 754h321v-69h-321v69z" />
    <glyph glyph-name="uni022C" unicode="&#x22c;" horiz-adv-x="656" 
d="M327 607q85 0 149.5 -37.5t100.5 -107t36 -167.5q0 -97 -36 -167t-100 -108t-149 -38q-84 0 -148.5 38t-100.5 108t-36 167q0 98 36 167.5t100 107t148 37.5zM328 520q-86 0 -132 -58.5t-46 -166.5q0 -109 46 -167.5t132 -58.5t132 58.5t46 167.5q0 108 -46 166.5
t-132 58.5zM196 667l-26 58q33 24 57 35t59 11q29 0 50 -10t39 -20t39 -10q19 0 33.5 7t39.5 24l26 -61q-28 -26 -51 -36t-54 -11q-22 -1 -42 9.5t-39.5 21t-42.5 10.5q-24 0 -41.5 -7t-46.5 -21zM157 912h321v-69h-321v69z" />
    <glyph glyph-name="uni022D" unicode="&#x22d;" horiz-adv-x="542" 
d="M270 458q72 0 123.5 -28.5t79.5 -82t28 -128.5q0 -111 -62 -173.5t-169 -62.5q-70 0 -121.5 28t-79 81.5t-27.5 126.5q0 75 27.5 128.5t79 82t121.5 28.5zM270 376q-63 0 -95.5 -40.5t-32.5 -116.5q0 -75 32.5 -115t95.5 -40q66 0 98.5 40t32.5 115q0 76 -32.5 116.5
t-98.5 40.5zM140 518l-26 58q33 24 57 35t59 11q29 0 50 -10t39 -20t39 -10q19 0 33.5 7t39.5 24l26 -61q-28 -26 -51 -36t-54 -11q-22 -1 -42 9.5t-39.5 21t-42.5 10.5q-24 0 -41.5 -7t-46.5 -21zM100 764h321v-69h-321v69z" />
    <glyph glyph-name="uni0230" unicode="&#x230;" horiz-adv-x="656" 
d="M327 607q85 0 149.5 -37.5t100.5 -107t36 -167.5q0 -97 -36 -167t-100 -108t-149 -38q-84 0 -148.5 38t-100.5 108t-36 167q0 98 36 167.5t100 107t148 37.5zM328 520q-86 0 -132 -58.5t-46 -166.5q0 -109 46 -167.5t132 -58.5t132 58.5t46 167.5q0 108 -46 166.5
t-132 58.5zM327 805q30 0 48.5 -18.5t18.5 -48.5t-18.5 -48t-48.5 -18q-29 0 -47 18t-18 48t18 48.5t47 18.5zM169 906h321v-69h-321v69z" />
    <glyph glyph-name="uni0231" unicode="&#x231;" horiz-adv-x="542" 
d="M270 458q72 0 123.5 -28.5t79.5 -82t28 -128.5q0 -111 -62 -173.5t-169 -62.5q-70 0 -121.5 28t-79 81.5t-27.5 126.5q0 75 27.5 128.5t79 82t121.5 28.5zM270 376q-63 0 -95.5 -40.5t-32.5 -116.5q0 -75 32.5 -115t95.5 -40q66 0 98.5 40t32.5 115q0 76 -32.5 116.5
t-98.5 40.5zM270 656q30 0 48.5 -18.5t18.5 -48.5t-18.5 -48t-48.5 -18q-29 0 -47 18t-18 48t18 48.5t47 18.5zM110 763h321v-69h-321v69z" />
    <glyph glyph-name="uni0232" unicode="&#x232;" horiz-adv-x="658" 
d="M5 589h260v-89h-60l130 -180l137 180h-69v89h250v-89h-70l-201 -255l-1 -157h94v-88h-289v88h94l1 155l-195 257h-81v89zM167 756h321v-69h-321v69z" />
    <glyph glyph-name="uni0233" unicode="&#x233;" horiz-adv-x="576" 
d="M151 -235q-19 0 -38.5 3.5t-41.5 12.5l17 77q17 -5 30.5 -8t27.5 -3q26 0 43 10t32.5 37t33.5 77l146 390h-53l3 79h222v-79h-75l-176 -442q-32 -79 -73 -116.5t-98 -37.5zM277 -68l-201 429h-73v79h231v-79h-56l143 -333zM131 607h321v-69h-321v69z" />
    <glyph glyph-name="uni0237" unicode="&#x237;" horiz-adv-x="271" 
d="M208 -33q0 -33 -3.5 -68.5t-20 -65.5t-54.5 -48.5t-108 -18.5q-17 0 -35.5 2.5t-30.5 4.5l12 79q11 -1 25 -2t25 -1q35 0 53.5 10t26 26.5t9 35t1.5 36.5v404h-84v79h184v-473z" />
    <glyph glyph-name="uni0259" unicode="&#x259;" horiz-adv-x="510" 
d="M46 387q43 36 88.5 53.5t95.5 17.5q75 0 129 -29.5t84 -82.5t30 -125q0 -71 -28.5 -125t-79 -83.5t-118.5 -29.5q-66 0 -114 27t-74.5 76.5t-26.5 115.5q0 11 1 23.5t3 25.5l340 1q-3 44 -23.5 71.5t-52.5 40.5t-68 13q-43 0 -80 -13t-67 -37zM132 179q0 -51 30.5 -83.5
t81.5 -32.5t88 32.5t42 84.5z" />
    <glyph glyph-name="uni02B9" unicode="&#x2b9;" horiz-adv-x="223" 
d="M72 609h101l-81 -215h-70z" />
    <glyph glyph-name="uni02BA" unicode="&#x2ba;" horiz-adv-x="373" 
d="M72 609h101l-81 -215h-70zM222 609h101l-81 -215h-70z" />
    <glyph glyph-name="uni02BB" unicode="&#x2bb;" horiz-adv-x="226" 
d="M144 694l37 -36l-8.5 -12.5t-20 -30.5t-19.5 -35q30 -5 44.5 -24.5t14.5 -41.5q0 -33 -21 -52.5t-53 -19.5q-30 0 -53 23t-23 54q0 32 13.5 61t32.5 53.5t35.5 40t20.5 20.5z" />
    <glyph glyph-name="uni02BC" unicode="&#x2bc;" horiz-adv-x="229" 
d="M9 397l8.5 12t20 30t18.5 35q-29 6 -43.5 25t-14.5 42q0 32 21 51.5t53 19.5q30 0 53 -22.5t23 -54.5q0 -31 -13.5 -60t-32.5 -53t-35.5 -40.5t-21.5 -20.5z" />
    <glyph glyph-name="uni02BE" unicode="&#x2be;" horiz-adv-x="210" 
d="M50 672q43 0 76.5 -27.5t33.5 -84.5q0 -58 -33.5 -86t-76.5 -28v53q20 0 36 14.5t16 46.5t-16 46t-36 14v52z" />
    <glyph glyph-name="uni02BF" unicode="&#x2bf;" horiz-adv-x="210" 
d="M160 446q-43 0 -76.5 27.5t-33.5 85.5q0 57 33.5 85t76.5 28v-52q-21 0 -36.5 -14.5t-15.5 -46.5q0 -33 15.5 -46.5t36.5 -13.5v-53z" />
    <glyph glyph-name="circumflex" unicode="&#x2c6;" horiz-adv-x="386" 
d="M193 658l159 -109l-31 -48l-127 72l-132 -71l-31 47z" />
    <glyph glyph-name="caron" unicode="&#x2c7;" horiz-adv-x="390" 
d="M193 491l-162 109l31 47l132 -71l127 72l31 -48z" />
    <glyph glyph-name="uni02C8" unicode="&#x2c8;" horiz-adv-x="293" 
d="M100 664h93v-215h-93v215z" />
    <glyph glyph-name="uni02C9" unicode="&#x2c9;" horiz-adv-x="403" 
d="M42 607h321v-69h-321v69z" />
    <glyph glyph-name="uni02CA" unicode="&#x2ca;" horiz-adv-x="243" 
d="M87 609h106l-119 -110h-74z" />
    <glyph glyph-name="uni02CB" unicode="&#x2cb;" horiz-adv-x="243" 
d="M156 609l87 -110h-74l-119 110h106z" />
    <glyph glyph-name="uni02CC" unicode="&#x2cc;" horiz-adv-x="193" 
d="M50 0h93v-215h-93v215z" />
    <glyph glyph-name="breve" unicode="&#x2d8;" horiz-adv-x="424" 
d="M211 506q-146 0 -166 133l72 11q9 -73 94 -73q88 0 95 73l73 -11q-21 -133 -168 -133z" />
    <glyph glyph-name="dotaccent" unicode="&#x2d9;" horiz-adv-x="268" 
d="M133 656q30 0 48.5 -18.5t18.5 -48.5t-18.5 -48t-48.5 -18q-29 0 -47 18t-18 48t18 48.5t47 18.5z" />
    <glyph glyph-name="ring" unicode="&#x2da;" horiz-adv-x="296" 
d="M147 704q44 0 70.5 -26.5t26.5 -70.5t-26.5 -70.5t-70.5 -26.5t-70.5 26.5t-26.5 70.5t26.5 70.5t70.5 26.5zM147 652q-20 0 -33 -12.5t-13 -32.5t13 -32.5t33 -12.5t32.5 12.5t12.5 32.5t-12.5 32.5t-32.5 12.5z" />
    <glyph glyph-name="ogonek" unicode="&#x2db;" horiz-adv-x="291" 
d="M194 26l27 -26q-44 -23 -62.5 -49.5t-18.5 -56.5q0 -22 16.5 -35t43.5 -13q24 0 49 10v-68q-22 -10 -43.5 -14.5t-41.5 -4.5q-55 0 -88.5 26t-33.5 67q0 52 36.5 92t115.5 72z" />
    <glyph glyph-name="tilde" unicode="&#x2dc;" horiz-adv-x="486" 
d="M62 598l-51 59q30 26 59 44.5t68 18.5q29 0 55.5 -11.5t50.5 -23t45 -11.5q15 0 32 7t40 30l46 -56q-26 -23 -45.5 -37t-38 -20.5t-42.5 -6.5q-20 0 -43.5 11t-47.5 22t-47 11q-21 0 -39 -9.5t-42 -27.5z" />
    <glyph glyph-name="hungarumlaut" unicode="&#x2dd;" horiz-adv-x="600" 
d="M175 728l71 -53l-155 -175l-44 31zM361 707l58 -63l-184 -144l-38 39z" />
    <glyph glyph-name="gravecomb" unicode="&#x300;" 
d="M213 500l-154 175l70 53l129 -197z" />
    <glyph glyph-name="acutecomb" unicode="&#x301;" 
d="M175 728l71 -53l-155 -175l-44 31z" />
    <glyph glyph-name="uni0302" unicode="&#x302;" 
d="M193 658l159 -109l-31 -48l-127 72l-132 -71l-31 47z" />
    <glyph glyph-name="tildecomb" unicode="&#x303;" 
d="M76 518l-26 58q33 24 57 35t59 11q29 0 50 -10t39 -20t39 -10q19 0 33.5 7t39.5 24l26 -61q-28 -26 -51 -36t-54 -11q-22 -1 -42 9.5t-39.5 21t-42.5 10.5q-24 0 -41.5 -7t-46.5 -21z" />
    <glyph glyph-name="uni0304" unicode="&#x304;" 
d="M42 607h321v-69h-321v69z" />
    <glyph glyph-name="uni0306" unicode="&#x306;" 
d="M211 506q-146 0 -166 133l72 11q9 -73 94 -73q88 0 95 73l73 -11q-21 -133 -168 -133z" />
    <glyph glyph-name="uni0307" unicode="&#x307;" 
d="M133 656q30 0 48.5 -18.5t18.5 -48.5t-18.5 -48t-48.5 -18q-29 0 -47 18t-18 48t18 48.5t47 18.5z" />
    <glyph glyph-name="uni0308" unicode="&#x308;" 
d="M299 643q26 0 44.5 -19t18.5 -45t-18.5 -45t-44.5 -19q-27 0 -45.5 19t-18.5 45t18.5 45t45.5 19zM113 643q26 0 45 -19t19 -45t-19 -45t-45 -19t-45 19t-19 45t19 45t45 19z" />
    <glyph glyph-name="hookabovecomb" unicode="&#x309;" 
d="M155 490l-33 34q18 14 27.5 30.5t9.5 30.5q0 13 -7.5 21.5t-23.5 8.5q-13 0 -25.5 -7t-24.5 -21l-41 46q24 27 50.5 39.5t53.5 12.5q40 0 64.5 -23t24.5 -62q0 -26 -17.5 -55t-57.5 -55z" />
    <glyph glyph-name="uni030A" unicode="&#x30a;" 
d="M138 704q44 0 70.5 -26.5t26.5 -70.5t-26.5 -70.5t-70.5 -26.5t-70.5 26.5t-26.5 70.5t26.5 70.5t70.5 26.5zM138 652q-20 0 -33 -12.5t-13 -32.5t13 -32.5t33 -12.5t32.5 12.5t12.5 32.5t-12.5 32.5t-32.5 12.5z" />
    <glyph glyph-name="uni030B" unicode="&#x30b;" 
d="M175 728l71 -53l-155 -175l-44 31zM361 707l58 -63l-184 -144l-38 39z" />
    <glyph glyph-name="uni030C" unicode="&#x30c;" 
d="M193 491l-162 109l31 47l132 -71l127 72l31 -48z" />
    <glyph glyph-name="uni030F" unicode="&#x30f;" 
d="M244 728l128 -197l-44 -31l-155 175zM58 707l164 -168l-38 -39l-184 144z" />
    <glyph glyph-name="uni0311" unicode="&#x311;" 
d="M211 660q147 0 168 -132l-73 -12q-7 73 -95 73q-85 0 -94 -73l-72 12q20 132 166 132z" />
    <glyph glyph-name="uni0312" unicode="&#x312;" 
d="M153 756l36 -36l-8.5 -12t-19.5 -30t-19 -36q29 -5 43.5 -24t14.5 -42q0 -32 -20.5 -51.5t-53.5 -19.5q-30 0 -53 22.5t-23 53.5q0 32 13.5 61.5t33 53.5t35.5 40t21 20z" />
    <glyph glyph-name="uni031B" unicode="&#x31b;" 
d="M515 361v79q69 0 69 79h80q0 -78 -38 -118t-111 -40z" />
    <glyph glyph-name="dotbelowcomb" unicode="&#x323;" 
d="M133 -58q30 0 48.5 -18.5t18.5 -48.5t-18.5 -48t-48.5 -18q-29 0 -47 18t-18 48t18 48.5t47 18.5z" />
    <glyph glyph-name="uni0324" unicode="&#x324;" 
d="M300 -61q26 0 44.5 -19t18.5 -45t-18.5 -45t-44.5 -19q-27 0 -45.5 19t-18.5 45t18.5 45t45.5 19zM114 -61q26 0 45 -19t19 -45t-19 -45t-45 -19t-45 19t-19 45t19 45t45 19z" />
    <glyph glyph-name="uni0326" unicode="&#x326;" 
d="M89 -320l-36 36l8.5 12t19.5 30.5t19 35.5q-29 5 -43.5 24t-14.5 42q0 32 21 51.5t53 19.5q30 0 53 -22.5t23 -53.5q0 -32 -13.5 -61t-33 -53.5t-35.5 -40t-21 -20.5z" />
    <glyph glyph-name="uni0327" unicode="&#x327;" 
d="M166 -230q-30 0 -54 8.5t-40 18.5l-24 15l28 44q19 -12 41.5 -20t47.5 -8q24 0 35.5 9.5t11.5 26.5q0 16 -12.5 25t-45.5 9h-50v102h63v-56q60 1 89.5 -19t29.5 -63q0 -30 -15.5 -50.5t-42.5 -31t-62 -10.5z" />
    <glyph glyph-name="uni0328" unicode="&#x328;" 
d="M202 26l27 -26q-44 -23 -62.5 -49.5t-18.5 -56.5q0 -22 16.5 -35t43.5 -13q24 0 49 10v-68q-22 -10 -43.5 -14.5t-41.5 -4.5q-55 0 -88.5 26t-33.5 67q0 52 36.5 92t115.5 72z" />
    <glyph glyph-name="uni032E" unicode="&#x32e;" 
d="M211 -196q-146 0 -166 133l72 11q9 -73 94 -73q88 0 95 73l73 -11q-21 -133 -168 -133z" />
    <glyph glyph-name="uni0331" unicode="&#x331;" 
d="M0 -49h320v-71h-320v71z" />
    <glyph glyph-name="uni0335" unicode="&#x335;" 
d="M68 269h320v-70h-320v70z" />
    <glyph glyph-name="pi" unicode="&#x3c0;" horiz-adv-x="558" 
d="M266 0h-221v80h66v281h-65v80h468v-80h-303v-281h55v-80zM517 -7q-90 -8 -136.5 28t-46.5 114v244h100v-222q0 -45 21.5 -65.5t61.5 -17.5v-81z" />
    <glyph glyph-name="uni0400" unicode="&#x400;" horiz-adv-x="601" 
d="M41 589h450l56 -168l-84 -29l-39 108h-192v-154h176v-88h-176v-169h216l37 103l84 -29l-56 -163h-473v89h89l1 411h-89v89zM299 649l-154 175l70 53l129 -197z" />
    <glyph glyph-name="uni0401" unicode="&#x401;" horiz-adv-x="601" 
d="M41 589h450l56 -168l-84 -29l-39 108h-192v-154h176v-88h-176v-169h216l37 103l84 -29l-56 -163h-473v89h89l1 411h-89v89zM394 792q26 0 44.5 -19t18.5 -45t-18.5 -45t-44.5 -19q-27 0 -45.5 19t-18.5 45t18.5 45t45.5 19zM208 792q26 0 45 -19t19 -45t-19 -45t-45 -19
t-45 19t-19 45t19 45t45 19z" />
    <glyph glyph-name="uni0402" unicode="&#x402;" horiz-adv-x="696" 
d="M346 324q33 20 69 28.5t74 8.5q78 0 126 -45.5t48 -128.5q0 -47 -19 -90.5t-56.5 -71.5t-96.5 -28q-18 0 -44 4l9 87q18 -3 29 -3q39 0 57.5 28t18.5 74q0 48 -27.5 70t-70.5 22q-27 0 -58.5 -7.5t-58.5 -21.5v-161h35v-89h-233v89h95v411h-118v-86h-93v175h526v-175h-92
v86h-119z" />
    <glyph glyph-name="uni0403" unicode="&#x403;" horiz-adv-x="536" 
d="M49 589h432l43 -164l-86 -25l-29 100h-164l-1 -411h110v-89h-306v89h95l1 411h-95v89zM414 877l71 -53l-155 -175l-44 31z" />
    <glyph glyph-name="uni0404" unicode="&#x404;" horiz-adv-x="617" 
d="M158 255q9 -89 56 -138t130 -49q28 0 51.5 5t41.5 10.5t25 7.5l21 84l86 -20l-28 -132l-24 -10t-68 -20.5t-105 -10.5q-88 0 -154.5 36t-103 106t-37.5 171q0 97 36 167t102.5 108t155.5 37q70 0 114.5 -12t66 -24.5t21.5 -13.5l25 -131l-87 -19l-21 92q-6 4 -23 9
t-41.5 9t-53.5 4q-86 0 -132.5 -51t-53.5 -142l121 7h133v-88h-132z" />
    <glyph glyph-name="uni0405" unicode="&#x405;" horiz-adv-x="551" 
d="M278 -18q-72 0 -125.5 12t-90.5 26l-19 131l84 10l12 -74q30 -10 61.5 -16t72.5 -6q38 0 69.5 10t51 31t19.5 55q0 35 -20 60t-81 34l-74 12q-88 15 -135 58.5t-47 113.5q0 52 27.5 90t78.5 58t119 20q36 0 67 -3.5t60.5 -11.5t60.5 -21l18 -138l-87 -9l-13 86
q-21 7 -48 11.5t-60 4.5q-61 0 -96 -21.5t-35 -59.5t25.5 -59t79.5 -29l81 -14q92 -13 133 -57t41 -112q0 -53 -20 -90t-53.5 -59.5t-74 -32.5t-82.5 -10z" />
    <glyph glyph-name="uni0406" unicode="&#x406;" horiz-adv-x="372" 
d="M41 589h292v-89h-94l-1 -411h95v-89h-293v89h96v411h-95v89z" />
    <glyph glyph-name="uni0407" unicode="&#x407;" horiz-adv-x="372" 
d="M41 589h292v-89h-94l-1 -411h95v-89h-293v89h96v411h-95v89zM279 792q26 0 44.5 -19t18.5 -45t-18.5 -45t-44.5 -19q-27 0 -45.5 19t-18.5 45t18.5 45t45.5 19zM93 792q26 0 45 -19t19 -45t-19 -45t-45 -19t-45 19t-19 45t19 45t45 19z" />
    <glyph glyph-name="uni0408" unicode="&#x408;" horiz-adv-x="523" 
d="M406 238q0 -81 -22.5 -138t-68 -87.5t-115.5 -30.5q-41 0 -77 11t-71 27l-28 135l87 21l21 -95q18 -7 34.5 -10.5t29.5 -3.5q51 0 79 41t28 115v277h-127v89h319v-89h-89v-262z" />
    <glyph glyph-name="uni0409" unicode="&#x409;" horiz-adv-x="890" 
d="M652 374q66 0 113 -19.5t72.5 -60.5t25.5 -104q0 -59 -24.5 -101.5t-69 -65.5t-107.5 -23h-288v89h72v412h-155l-15 -205q-8 -105 -32.5 -177.5t-73 -106.5t-130.5 -25v97q54 -4 83 18.5t41.5 75t19.5 140.5l13 183h-89v88h535v-88h-95v-127h104zM642 89q33 0 58.5 10
t40.5 32.5t15 59.5q0 50 -30 72t-83 22h-95v-196h94z" />
    <glyph glyph-name="uni040A" unicode="&#x40a;" horiz-adv-x="941" 
d="M40 0v89h88l1 411h-89v89h251v-89h-60v-156h265l1 156h-60v89h251v-89h-89v-157h103q71 0 118 -17.5t70.5 -55t23.5 -95.5q0 -55 -24 -94t-69.5 -60t-107.5 -21h-276v89h59v167h-265l-1 -167h59v-89h-249zM599 89h93q19 0 39.5 3t37.5 12t27.5 26.5t10.5 45.5
q0 35 -15.5 52t-41.5 22.5t-57 5.5h-94v-167z" />
    <glyph glyph-name="uni040B" unicode="&#x40b;" horiz-adv-x="772" 
d="M331 333q21 15 54.5 29.5t80.5 14.5q66 0 106 -23t58 -64.5t18 -97.5v-103h94v-89h-258v89h61v87q0 33 -7.5 58t-28.5 39.5t-61 14.5q-27 0 -50.5 -5.5t-41 -12.5t-25.5 -12v-169h77v-89h-276v89h95l1 411h-119v-86h-92v175h526v-162h-93v73h-119v-167z" />
    <glyph glyph-name="uni040C" unicode="&#x40c;" horiz-adv-x="684" 
d="M40 589h249v-89h-60v-162h82l119 162h-59v89h254v-89h-92l-143 -186l159 -225h100v-89h-285v89h74l-113 163h-96l1 -163h59v-89h-249v89h88v411h-88v89zM411 877l71 -53l-155 -175l-44 31z" />
    <glyph glyph-name="uni040D" unicode="&#x40d;" horiz-adv-x="748" 
d="M40 589h251v-89h-60l-1 -369l289 458h190v-89h-90v-411h88v-89h-248v89h59v365l-288 -454h-190v89h89v411h-89v89zM383 649l-154 175l70 53l129 -197z" />
    <glyph glyph-name="uni040E" unicode="&#x40e;" horiz-adv-x="639" 
d="M234 -19q-26 0 -52.5 4.5t-63.5 14.5l26 87q22 -9 45.5 -14t40.5 -5q27 0 40 14t26 49l-204 369h-88v89h258v-89h-58l136 -259l98 259h-62v89h260v-89h-99l-159 -396q-25 -61 -55 -92t-89 -31zM323 643q-73 0 -119.5 29.5t-62.5 85.5l84 11q16 -63 98 -63t98 63l83 -11
q-16 -56 -63 -85.5t-118 -29.5z" />
    <glyph glyph-name="uni040F" unicode="&#x40f;" horiz-adv-x="727" 
d="M314 -192l3 192h-269v89h88l1 411h-89v89h251v-89h-60l-1 -411h250v411h-59v89h250v-89h-89l-1 -411h90v-89h-266l2 -192h-101z" />
    <glyph glyph-name="uni0410" unicode="&#x410;" horiz-adv-x="669" 
d="M8 0v89h97l157 411h-91v89h215l183 -500h92v-89h-253v89h57l-31 88h-206l-32 -88h60v-89h-248zM255 252h153l-74 228z" />
    <glyph glyph-name="uni0411" unicode="&#x411;" horiz-adv-x="576" 
d="M349 345q97 1 148 -41t51 -124q0 -87 -48 -133.5t-140 -46.5h-320v89h88v411h-88v89h442l41 -150l-88 -25l-24 86h-181v-157zM337 89q50 0 77 21.5t27 66.5q0 42 -25 61.5t-72 17.5l-114 -2l-1 -165h108z" />
    <glyph glyph-name="uni0412" unicode="&#x412;" horiz-adv-x="579" 
d="M40 0v89h88v411h-88v89h259q113 0 172.5 -40.5t59.5 -116.5q0 -42 -21 -76.5t-59 -53.5q44 -14 71 -50.5t27 -90.5q0 -73 -49.5 -117t-149.5 -44h-310zM230 89h108q50 0 77 21.5t27 64.5q0 40 -25.5 61t-72.5 21h-113zM231 336h114q38 0 58 22t20 60q0 82 -113 82h-79
v-164z" />
    <glyph glyph-name="uni0413" unicode="&#x413;" horiz-adv-x="536" 
d="M49 589h432l43 -164l-86 -25l-29 100h-164l-1 -411h110v-89h-306v89h95l1 411h-95v89z" />
    <glyph glyph-name="uni0414" unicode="&#x414;" horiz-adv-x="692" 
d="M115 89q27 36 44.5 86.5t23.5 131.5l16 193h-104v89h549v-89h-96v-411h94v-222h-86v133h-430v-133h-85v222h74zM205 89h242v411h-156l-20 -206q-6 -72 -23 -120.5t-43 -84.5z" />
    <glyph glyph-name="uni0415" unicode="&#x415;" horiz-adv-x="601" 
d="M41 589h450l56 -168l-84 -29l-39 108h-192v-154h176v-88h-176v-169h216l37 103l84 -29l-56 -163h-473v89h89l1 411h-89v89z" />
    <glyph glyph-name="uni0416" unicode="&#x416;" horiz-adv-x="988" 
d="M52 589h260v-89h-63l115 -158h79v158h-66v88h235v-88h-67l-1 -158h80l115 158h-62v89h259v-89h-86l-144 -194l146 -217h89v-89h-264v89h56l-103 165l-86 -1v-164h68v-89h-235v89h66v164l-85 1l-103 -165h57v-89h-265v89h89l145 217l-142 194h-87v89z" />
    <glyph glyph-name="uni0417" unicode="&#x417;" horiz-adv-x="543" 
d="M80 559q46 24 97 36t98 12q62 0 109.5 -19.5t75 -57.5t27.5 -94q0 -47 -24.5 -80.5t-77.5 -50.5q63 -16 93 -52.5t30 -88.5q0 -57 -31 -98t-84.5 -62.5t-121.5 -21.5q-56 0 -107.5 16.5t-96.5 52.5l-24 103l86 22l19 -69q26 -22 55.5 -31t69.5 -9q62 0 95.5 25t33.5 72
q0 44 -28.5 68.5t-80.5 24.5h-91v84h89q45 0 67.5 25.5t22.5 66.5q0 45 -32 66.5t-81 21.5q-27 0 -54.5 -5.5t-50.5 -16.5l-20 -75l-87 19z" />
    <glyph glyph-name="uni0418" unicode="&#x418;" horiz-adv-x="748" 
d="M40 589h251v-89h-60l-1 -369l289 458h190v-89h-90v-411h88v-89h-248v89h59v365l-288 -454h-190v89h89v411h-89v89z" />
    <glyph glyph-name="uni0419" unicode="&#x419;" horiz-adv-x="748" 
d="M40 589h251v-89h-60l-1 -369l289 458h190v-89h-90v-411h88v-89h-248v89h59v365l-288 -454h-190v89h89v411h-89v89zM386 643q-73 0 -119.5 29.5t-62.5 85.5l84 11q16 -63 98 -63t98 63l83 -11q-16 -56 -63 -85.5t-118 -29.5z" />
    <glyph glyph-name="uni041A" unicode="&#x41a;" horiz-adv-x="684" 
d="M40 589h249v-89h-60v-162h82l119 162h-59v89h254v-89h-92l-143 -186l159 -225h100v-89h-285v89h74l-113 163h-96l1 -163h59v-89h-249v89h88v411h-88v89z" />
    <glyph glyph-name="uni041B" unicode="&#x41b;" horiz-adv-x="695" 
d="M76 -14h-13.5t-22.5 1v95q56 0 85.5 19.5t42 64t17.5 119.5l16 216h-89v89h535v-89h-95l-1 -412h95v-89h-268v89h71l1 412h-159l-19 -242q-5 -79 -24.5 -140.5t-60 -97t-111.5 -35.5z" />
    <glyph glyph-name="uni041C" unicode="&#x41c;" horiz-adv-x="860" 
d="M41 589h248l147 -389l138 389h246v-89h-88v-411h88v-89h-254v89h64v423l-42 -133l-112 -308h-85l-125 317l-42 120l-2 -419h66v-89h-249v89h89l1 411h-88v89z" />
    <glyph glyph-name="uni041D" unicode="&#x41d;" horiz-adv-x="728" 
d="M40 589h252v-89h-60l-1 -156h266v156h-59v89h250v-89h-88l-2 -411h89v-89h-249v89h59v166h-266v-166h59v-89h-250v89h89v411h-89v89z" />
    <glyph glyph-name="uni041E" unicode="&#x41e;" horiz-adv-x="656" 
d="M327 607q85 0 149.5 -37.5t100.5 -107t36 -167.5q0 -97 -36 -167t-100 -108t-149 -38q-84 0 -148.5 38t-100.5 108t-36 167q0 98 36 167.5t100 107t148 37.5zM328 520q-86 0 -132 -58.5t-46 -166.5q0 -109 46 -167.5t132 -58.5t132 58.5t46 167.5q0 108 -46 166.5
t-132 58.5z" />
    <glyph glyph-name="uni041F" unicode="&#x41f;" horiz-adv-x="713" 
d="M41 589h632v-89h-95l-1 -411h95v-89h-268v89h72l1 411h-240l-1 -411h72v-89h-268v89h95l1 411h-95v89z" />
    <glyph glyph-name="uni0420" unicode="&#x420;" horiz-adv-x="553" 
d="M302 589q112 0 171.5 -48.5t59.5 -140.5q0 -94 -59.5 -143.5t-171.5 -49.5h-73v-118h108v-89h-297v89h87v411h-87v89h262zM301 290q125 0 125 108q0 102 -125 102h-71v-210h71z" />
    <glyph glyph-name="uni0421" unicode="&#x421;" horiz-adv-x="595" 
d="M445 501q-5 3 -21 7.5t-38 8.5t-48 4q-91 0 -139.5 -59.5t-48.5 -166.5q0 -108 50 -167.5t138 -59.5q25 0 47 5t38 10.5t22 7.5l21 84l86 -20l-28 -132l-23 -10t-65.5 -20.5t-97.5 -10.5q-88 0 -154.5 36t-103 106t-37.5 171q0 97 36 167t102.5 108t155.5 37
q64 0 106.5 -12t63 -24.5t20.5 -13.5l26 -131l-87 -19z" />
    <glyph glyph-name="uni0422" unicode="&#x422;" horiz-adv-x="595" 
d="M32 589h526v-186h-92v97h-119l-1 -411h88v-89h-280v89h89v411h-118v-97h-93v186z" />
    <glyph glyph-name="uni0423" unicode="&#x423;" horiz-adv-x="639" 
d="M234 -19q-26 0 -52.5 4.5t-63.5 14.5l26 87q22 -9 45.5 -14t40.5 -5q27 0 40 14t26 49l-204 369h-88v89h258v-89h-58l136 -259l98 259h-62v89h260v-89h-99l-159 -396q-25 -61 -55 -92t-89 -31z" />
    <glyph glyph-name="uni0424" unicode="&#x424;" horiz-adv-x="741" 
d="M225 -40v87h95v50h-17q-55 0 -104 12t-86.5 38.5t-58.5 70.5t-21 110t21 108t58 65.5t85.5 33t103.5 9.5h19v43l-103 30l27 88l177 -56v-106h19q55 -1 103.5 -10.5t85.5 -32.5t58 -65t21 -108q0 -65 -21 -109t-58 -70.5t-85.5 -38.5t-103.5 -12h-19v-50h95v-87h-291z
M295 174h25v297h-24q-32 0 -58.5 -5.5t-46.5 -21t-31 -43.5t-11 -73q0 -59 19 -92.5t52.5 -47.5t74.5 -14zM421 174h22q41 0 75 14.5t54 47.5t20 92q0 45 -11 73t-31 43t-47 21t-60 6h-22v-297z" />
    <glyph glyph-name="uni0425" unicode="&#x425;" horiz-adv-x="686" 
d="M24 0v88h94l161 208l-167 204h-84v89h263v-89h-60l111 -137l109 137h-61v89h258v-89h-92l-155 -202l169 -210h97v-88h-279v88h65l-115 141l-113 -141h59v-88h-260z" />
    <glyph glyph-name="uni0426" unicode="&#x426;" horiz-adv-x="727" 
d="M578 -175l2 175h-532v89h88l1 411h-89v89h251v-89h-60l-1 -411h250v411h-59v89h250v-89h-89l-1 -411h90v-264h-101z" />
    <glyph glyph-name="uni0427" unicode="&#x427;" horiz-adv-x="701" 
d="M320 0v89h142v159q-16 -10 -47 -21.5t-80 -11.5q-62 0 -109 23t-73.5 70t-26.5 116v76h-89v89h250v-89h-61v-76q0 -67 30.5 -96.5t96.5 -29.5q46 0 72 10.5t37 18.5v173h-60v89h251v-89h-89v-411h88v-89h-332z" />
    <glyph glyph-name="uni0428" unicode="&#x428;" horiz-adv-x="976" 
d="M48 0v89h88l1 411h-89v89h251v-89h-60l-1 -411h195l1 411h-59v89h221v-89h-60l-1 -411h202l1 411h-59v89h249v-89h-88l-1 -411h89v-89h-880z" />
    <glyph glyph-name="uni0429" unicode="&#x429;" horiz-adv-x="994" 
d="M48 589h251v-89h-60l-1 -411h195l1 411h-59v89h221v-89h-60l-1 -411h202l1 411h-59v89h249v-89h-88l-1 -411h112v-264h-101l1 175h-803v89h88l1 411h-89v89z" />
    <glyph glyph-name="uni042A" unicode="&#x42a;" horiz-adv-x="697" 
d="M161 0v89h93v412h-120v-120h-86v208l387 1v-89h-80v-127h104q71 0 117.5 -19.5t70 -60.5t23.5 -104q0 -59 -24 -101.5t-69 -65.5t-107 -23h-309zM356 89h93q21 0 41 4t36.5 14.5t26.5 31t10 52.5q0 39 -13.5 59t-38.5 27.5t-61 7.5h-94v-196z" />
    <glyph glyph-name="uni042B" unicode="&#x42b;" horiz-adv-x="888" 
d="M48 1v88h87v412h-85v89h247v-89h-61v-127h103q71 0 118 -19.5t70 -60.5t23 -104q0 -59 -24 -101.5t-69 -65.5t-107 -23zM236 89h93q21 0 41 4t37 14.5t26.5 31t9.5 52.5q0 39 -13 59t-38.5 27.5t-60.5 7.5h-95v-196zM591 0v89h59l1 411h-61v88h250v-88h-88l-1 -411h89
v-89h-249z" />
    <glyph glyph-name="uni042C" unicode="&#x42c;" horiz-adv-x="577" 
d="M338 374q72 0 118.5 -19.5t70 -60.5t23.5 -104q0 -59 -24.5 -101.5t-69 -65.5t-107.5 -23l-301 1v88h87v412h-85v89h247v-89h-61v-127h102zM328 89q21 0 41.5 4t37 14.5t26.5 31t10 52.5q0 39 -13.5 59t-38.5 27.5t-61 7.5h-94v-196h92z" />
    <glyph glyph-name="uni042D" unicode="&#x42d;" horiz-adv-x="609" 
d="M271 -18q-61 0 -105 10.5t-68 20.5l-24 10l-26 121l86 21l18 -73q7 -2 24 -8t41.5 -11t53.5 -5q83 0 130 49t55 137l-138 -7h-106v89h107l138 -8q-7 92 -53 142.5t-133 50.5q-29 0 -53.5 -4t-41.5 -9t-24 -9l-18 -84l-88 20l24 122q14 9 40 20.5t66 20.5t96 9
q89 1 155 -37t103 -108t36 -167q0 -101 -37.5 -171t-103.5 -106t-154 -36z" />
    <glyph glyph-name="uni042E" unicode="&#x42e;" horiz-adv-x="894" 
d="M596 -18q-73 0 -128.5 33t-88 95.5t-38.5 150.5l-80 -4h-31l-1 -168h61v-89h-250v89h88v411h-88v88h251v-88h-61v-155h31l81 -5q7 85 40 144.5t87.5 91t125.5 31.5q79 0 136.5 -37t88.5 -106.5t31 -168.5q0 -98 -31 -168.5t-88 -107.5t-136 -37zM596 68q77 0 112 59
t35 168t-34 167.5t-113 58.5q-76 0 -112.5 -58.5t-36.5 -167.5t36.5 -168t112.5 -59z" />
    <glyph glyph-name="uni042F" unicode="&#x42f;" horiz-adv-x="625" 
d="M40 0v89h93l79 148q-57 20 -91 61.5t-34 101.5q0 90 60 139.5t176 49.5h262v-89h-88v-411h88v-89h-248v89h59v129h-93l-107 -218h-156zM323 299h72v201h-71q-64 0 -97.5 -26.5t-33.5 -77.5q0 -47 33.5 -72t96.5 -25z" />
    <glyph glyph-name="uni0430" unicode="&#x430;" horiz-adv-x="541" 
d="M362 24q-68 -41 -142 -41q-90 0 -136.5 35t-47.5 102q-1 137 177 137l118 -1q0 63 -24.5 93.5t-68.5 30.5q-23 0 -44 -3t-40 -9l-10 -52l-83 13l18 100q39 14 79 21.5t80 7.5q95 0 144.5 -50.5t49.5 -148.5v-169l88 -29l-26 -82zM216 186q-37 0 -57 -16.5t-20 -47.5
q0 -62 85 -62q60 0 107 32v94h-115z" />
    <glyph glyph-name="uni0431" unicode="&#x431;" horiz-adv-x="541" 
d="M468 577q-16 -11 -41 -22t-55.5 -21t-61 -19.5t-55.5 -18.5q-50 -18 -77.5 -44t-40 -63.5t-17.5 -90.5q10 29 32.5 56t58 44t82.5 17q61 0 107.5 -26t73 -74t26.5 -115q0 -68 -28 -117t-76.5 -74.5t-112.5 -25.5q-63 0 -107.5 21t-73 57.5t-41.5 83.5t-13 98
q0 60 6.5 113t26 97t56 77.5t95.5 54.5q30 11 67.5 23.5t73 26.5t57.5 28zM287 334q-128 0 -128 -134q0 -135 120 -135t120 135q0 134 -112 134z" />
    <glyph glyph-name="uni0432" unicode="&#x432;" horiz-adv-x="565" 
d="M325 440q88 0 133.5 -28.5t45.5 -82.5q0 -35 -15.5 -59t-45.5 -35q40 -8 61 -34t21 -67q0 -66 -35.5 -100t-104.5 -34h-340v80h88v281h-88v79h280zM350 77q73 0 73 61q0 56 -69 56h-119v-117h115zM342 261q57 0 57 50q0 54 -78 54h-86v-104h107z" />
    <glyph glyph-name="uni0433" unicode="&#x433;" horiz-adv-x="478" 
d="M45 441h388l35 -152l-86 -20l-23 93h-127v-282h111v-80h-298v80h86v282h-86v79z" />
    <glyph glyph-name="uni0434" unicode="&#x434;" horiz-adv-x="619" 
d="M33 -142l-1 222h65q21 11 34 37t20 58.5t11 65.5t6 58l5 61h-85v80h486v-80h-89v-280h89v-222h-98v142h-345v-142h-98zM195 80h190v280h-130l-7 -72q-7 -80 -18.5 -132.5t-34.5 -75.5z" />
    <glyph glyph-name="uni0435" unicode="&#x435;" horiz-adv-x="510" 
d="M463 53q-42 -36 -87.5 -53t-95.5 -17q-74 0 -129 29t-84.5 82.5t-29.5 125.5q0 71 28 124.5t79.5 83.5t118.5 30q66 0 114 -27.5t74.5 -76.5t26.5 -115q0 -11 -1 -24t-3 -25l-340 -1q3 -44 23.5 -71.5t52 -41t68.5 -13.5q43 0 80 13t67 38zM378 261q0 52 -30.5 84.5
t-82.5 32.5q-49 0 -86.5 -32.5t-42.5 -84.5h242z" />
    <glyph glyph-name="uni0436" unicode="&#x436;" horiz-adv-x="811" 
d="M30 0v80h84l95 141l-97 140h-77v79h229v-79h-59l72 -108h78v107h-47v80h189v-80h-47v-107h78l72 108h-59v79h229v-79h-79l-95 -140l95 -141h85v-80h-138l-118 180h-70v-100h47v-80h-189v80h47v100h-70l-117 -180h-138z" />
    <glyph glyph-name="uni0437" unicode="&#x437;" horiz-adv-x="460" 
d="M224 -18q-61 0 -111.5 18t-89.5 50l52 65q29 -25 69 -38t79 -13q49 0 77.5 16.5t28.5 48.5q0 31 -24 43.5t-72 12.5h-50v77h55q38 0 56.5 13t18.5 41q0 34 -27 49t-67 15q-50 0 -99 -21l-13 -66l-75 16l18 101q40 22 85.5 34t95.5 12q81 0 129.5 -33.5t48.5 -91.5
q0 -34 -20 -61t-55 -41q44 -8 70 -35.5t26 -70.5q0 -44 -28.5 -76t-75 -48.5t-102.5 -16.5z" />
    <glyph glyph-name="uni0438" unicode="&#x438;" horiz-adv-x="652" 
d="M45 441h228v-80h-48v-239l203 318l180 1v-80h-85v-281h85v-80h-228v80h48v242l-203 -322h-180v80h84v281h-84v80z" />
    <glyph glyph-name="uni0439" unicode="&#x439;" horiz-adv-x="652" 
d="M45 441h228v-80h-48v-239l203 318l180 1v-80h-85v-281h85v-80h-228v80h48v242l-203 -322h-180v80h84v281h-84v80zM335 506q-75 0 -116 38.5t-50 94.5l73 11q3 -32 25.5 -52.5t67.5 -20.5q47 0 69.5 21t25.5 52l73 -11q-8 -56 -49.5 -94.5t-118.5 -38.5z" />
    <glyph glyph-name="uni043A" unicode="&#x43a;" horiz-adv-x="598" 
d="M45 440h222v-79h-38v-104h82l68 104h-51v79h230v-79h-79l-95 -140l95 -141h84v-80h-143l-118 177h-73v-97h38v-80h-222v80h84v281h-84v79z" />
    <glyph glyph-name="uni043B" unicode="&#x43b;" horiz-adv-x="613" 
d="M336 0v80h42v281h-290v80h479v-80h-89v-281h90v-80h-232zM35 -7v81q52 -5 79 16.5t38.5 65.5t14.5 104l7 119h88l-10 -144q-5 -77 -28 -135t-69 -86.5t-120 -20.5z" />
    <glyph glyph-name="uni043C" unicode="&#x43c;" horiz-adv-x="810" 
d="M45 0v80h84v281h-84v80h237l144 -311h-31l138 311h232v-80h-84v-281h84v-80h-230v80h48v336l17 -4l-156 -353h-72l-167 350l22 4v-333h48v-80h-230z" />
    <glyph glyph-name="uni043D" unicode="&#x43d;" horiz-adv-x="662" 
d="M45 440h232v-79h-47v-102h202v102h-47v79h232v-79h-84v-281h84v-80h-232v80h47v99h-202v-99h47v-80h-232v80h84v281h-84v79z" />
    <glyph glyph-name="uni043E" unicode="&#x43e;" horiz-adv-x="542" 
d="M270 458q72 0 123.5 -28.5t79.5 -82t28 -128.5q0 -111 -62 -173.5t-169 -62.5q-70 0 -121.5 28t-79 81.5t-27.5 126.5q0 75 27.5 128.5t79 82t121.5 28.5zM270 376q-63 0 -95.5 -40.5t-32.5 -116.5q0 -75 32.5 -115t95.5 -40q66 0 98.5 40t32.5 115q0 76 -32.5 116.5
t-98.5 40.5z" />
    <glyph glyph-name="uni043F" unicode="&#x43f;" horiz-adv-x="656" 
d="M45 441h567v-80h-85v-281h85v-80h-233v80h48v281h-197v-281h47v-80h-232v80h84v281h-84v80z" />
    <glyph glyph-name="uni0440" unicode="&#x440;" horiz-adv-x="583" 
d="M30 -215v79h84v481l-94 31l26 82l139 -48q32 22 69 35t69 13q103 0 161.5 -61.5t58.5 -168.5q0 -73 -28 -129t-79.5 -86.5t-121.5 -30.5q-53 0 -99 14v-132h84v-79h-269zM313 63q60 0 94 43t34 121q0 73 -31 111t-91 38q-29 0 -58 -10t-47 -27v-256q17 -9 44.5 -14.5
t54.5 -5.5z" />
    <glyph glyph-name="uni0441" unicode="&#x441;" horiz-adv-x="486" 
d="M352 369q-19 7 -37 9.5t-38 2.5q-64 0 -99.5 -41t-35.5 -122q0 -74 38.5 -113.5t94.5 -39.5q32 0 66 11.5t67 34.5l41 -61q-28 -21 -54 -36t-55.5 -23t-70.5 -8q-69 0 -121 27.5t-80 80.5t-28 127q0 79 29 132.5t82.5 81t124.5 27.5q40 0 76.5 -8t77.5 -21l20 -122
l-84 -18z" />
    <glyph glyph-name="uni0442" unicode="&#x442;" horiz-adv-x="495" 
d="M19 440h457v-167h-75v88h-103v-281h86v-80h-273v80h87v281h-103v-88h-76v167z" />
    <glyph glyph-name="uni0443" unicode="&#x443;" horiz-adv-x="576" 
d="M151 -235q-19 0 -38.5 3.5t-41.5 12.5l17 77q17 -5 30.5 -8t27.5 -3q26 0 43 10t32.5 37t33.5 77l146 390h-53l3 79h222v-79h-75l-176 -442q-32 -79 -73 -116.5t-98 -37.5zM277 -68l-201 429h-73v79h231v-79h-56l143 -333z" />
    <glyph glyph-name="uni0444" unicode="&#x444;" horiz-adv-x="750" 
d="M232 -215v80h93v130q-13 -4 -32 -7t-42 -3q-50 0 -97.5 26.5t-78.5 79.5t-31 133q0 78 27.5 128t72 73.5t94.5 23.5q22 0 45 -3.5t42 -10.5v121l-98 28l24 81l174 -51v-179q19 7 42 10.5t45 3.5q50 0 94.5 -23.5t72 -73.5t27.5 -128q0 -80 -31 -133t-78 -79.5t-97 -26.5
q-23 0 -42.5 3t-32.5 7v-130h91v-80h-284zM281 59q21 0 31.5 3t12.5 3v295q-4 1 -17.5 7t-42.5 6q-51 0 -85 -38.5t-34 -112.5t38.5 -118.5t96.5 -44.5zM470 59q57 0 95.5 44.5t38.5 118.5t-33.5 112.5t-85.5 38.5q-27 0 -41.5 -6t-18.5 -7v-295q2 0 12.5 -3t32.5 -3z" />
    <glyph glyph-name="uni0445" unicode="&#x445;" horiz-adv-x="609" 
d="M30 0v80h86l125 145l-134 136h-77v79h239v-79h-43l85 -91l78 91h-40v79h219v-79h-75l-124 -144l136 -137h81v-80h-241v80h43l-88 91l-81 -91h42v-80h-231z" />
    <glyph glyph-name="uni0446" unicode="&#x446;" horiz-adv-x="660" 
d="M521 -143v143h-476v80h90v281h-90v79h232v-79h-42v-281h190v281h-43v79h233v-79h-91v-281h90v-223h-93z" />
    <glyph glyph-name="uni0447" unicode="&#x447;" horiz-adv-x="621" 
d="M392 189q-21 -13 -54.5 -24.5t-81.5 -11.5q-50 0 -79.5 15.5t-44.5 40t-19.5 54t-3.5 57.5v40h-84v80h233v-80h-49v-25q0 -34 4.5 -58.5t22 -37.5t55.5 -13q33 0 59 9.5t42 19.5v105h-47v80h232v-80h-85v-280h85v-80h-269v80h84v109z" />
    <glyph glyph-name="uni0448" unicode="&#x448;" horiz-adv-x="832" 
d="M45 440h231v-79h-42v-281h134v281h-28v79h169v-79h-42v-281h131v281h-24v79h213v-79h-90v-281h90v-80h-741v80h89v281h-90v79z" />
    <glyph glyph-name="uni0449" unicode="&#x449;" horiz-adv-x="832" 
d="M694 -143v143h-648v80h89v281h-90v80h232v-80h-42v-281h133v281h-41v79h182v-79h-42v-281h131v281h-39v79h228v-79h-90v-281h90v-223h-93z" />
    <glyph glyph-name="uni044A" unicode="&#x44a;" horiz-adv-x="586" 
d="M384 275q49 0 90.5 -12.5t66.5 -42t25 -81.5q0 -60 -36.5 -99.5t-107.5 -39.5h-303v80h83v281h-102v-87h-81v166h365l-1 -79h-84v-86h85zM392 80q33 0 53 15.5t20 45.5q0 28 -18.5 43t-50.5 15h-97v-119h93z" />
    <glyph glyph-name="uni044B" unicode="&#x44b;" horiz-adv-x="796" 
d="M45 0v80h82v281h-82v79h269v-79h-90v-91h84q48 0 88.5 -12t65 -40.5t24.5 -78.5q0 -60 -35.5 -99.5t-104.5 -39.5h-301zM224 81h92q33 0 53.5 15t20.5 45q0 28 -18.5 42.5t-51.5 14.5h-96v-117zM542 0v80h25v281h-62v79h247v-79h-85v-281h85v-80h-210z" />
    <glyph glyph-name="uni044C" unicode="&#x44c;" horiz-adv-x="532" 
d="M45 0v80h82v281h-82v79h269v-79h-85v-86h100q49 0 90.5 -12.5t67 -42t25.5 -81.5q0 -60 -37 -99.5t-108 -39.5h-322zM229 80h108q34 0 53.5 15.5t19.5 45.5q0 28 -18 43t-51 15h-112v-119z" />
    <glyph glyph-name="uni044D" unicode="&#x44d;" horiz-adv-x="486" 
d="M341 249q-6 64 -37.5 95t-89.5 31q-22 0 -41.5 -3t-32.5 -7l-14 -73l-83 18l23 121q20 8 44 14t52.5 9.5t58.5 3.5q105 0 164.5 -65t59.5 -175q0 -72 -28.5 -125t-79.5 -81.5t-122 -28.5q-52 0 -95 12.5t-83 33.5l31 70q29 -15 64 -25t82 -10q56 0 88 31.5t38 91.5
l-66 -6h-93v74h93z" />
    <glyph glyph-name="uni044E" unicode="&#x44e;" horiz-adv-x="796" 
d="M536 -16q-87 0 -146.5 52t-68.5 150l-71 -4h-20v-102h47v-80h-232v80h84v281h-84v80h232v-80h-47v-99h20l71 -4q10 98 69 149.5t146 51.5q63 0 112.5 -27.5t77.5 -80.5t28 -130t-27.5 -130t-77 -80t-113.5 -27zM536 66q57 0 87 40.5t30 114.5q0 75 -30 114.5t-87 39.5
q-55 0 -85 -39.5t-30 -114.5q0 -74 30 -114.5t85 -40.5z" />
    <glyph glyph-name="uni044F" unicode="&#x44f;" horiz-adv-x="590" 
d="M297 -1v80h60v80h-87q-51 1 -94.5 17t-69.5 47.5t-26 78.5q0 61 49.5 100t149.5 39h267v-74h-89v-288h89v-80h-249zM34 0v80h85l71 100l98 -8l-115 -172h-139zM285 230h72v136h-70q-29 0 -52 -5.5t-37.5 -20.5t-14.5 -45q0 -36 29 -50.5t73 -14.5z" />
    <glyph glyph-name="uni0450" unicode="&#x450;" horiz-adv-x="510" 
d="M463 53q-42 -36 -87.5 -53t-95.5 -17q-74 0 -129 29t-84.5 82.5t-29.5 125.5q0 71 28 124.5t79.5 83.5t118.5 30q66 0 114 -27.5t74.5 -76.5t26.5 -115q0 -11 -1 -24t-3 -25l-340 -1q3 -44 23.5 -71.5t52 -41t68.5 -13.5q43 0 80 13t67 38zM378 261q0 52 -30.5 84.5
t-82.5 32.5q-49 0 -86.5 -32.5t-42.5 -84.5h242zM267 500l-154 175l70 53l129 -197z" />
    <glyph glyph-name="uni0451" unicode="&#x451;" horiz-adv-x="510" 
d="M463 53q-42 -36 -87.5 -53t-95.5 -17q-74 0 -129 29t-84.5 82.5t-29.5 125.5q0 71 28 124.5t79.5 83.5t118.5 30q66 0 114 -27.5t74.5 -76.5t26.5 -115q0 -11 -1 -24t-3 -25l-340 -1q3 -44 23.5 -71.5t52 -41t68.5 -13.5q43 0 80 13t67 38zM378 261q0 52 -30.5 84.5
t-82.5 32.5q-49 0 -86.5 -32.5t-42.5 -84.5h242zM362 643q26 0 44.5 -19t18.5 -45t-18.5 -45t-44.5 -19q-27 0 -45.5 19t-18.5 45t18.5 45t45.5 19zM176 643q26 0 45 -19t19 -45t-19 -45t-45 -19t-45 19t-19 45t19 45t45 19z" />
    <glyph glyph-name="uni0452" unicode="&#x452;" horiz-adv-x="548" 
d="M299 -218l-46 66q48 25 83.5 68.5t56.5 101t21 124.5q0 76 -28 113.5t-80 37.5q-28 0 -52.5 -8t-47.5 -22v-183h43v-80h-228v80h84v369h-84v67h84v41l-95 32l26 81l169 -57v-97h151v-67h-151v-109q29 17 61 26.5t65 9.5q56 0 97 -24.5t63.5 -71.5t22.5 -117
q0 -83 -27 -157.5t-75.5 -132.5t-112.5 -91z" />
    <glyph glyph-name="uni0453" unicode="&#x453;" horiz-adv-x="478" 
d="M45 441h388l35 -152l-86 -20l-23 93h-127v-282h111v-80h-298v80h86v282h-86v79zM369 728l71 -53l-155 -175l-44 31z" />
    <glyph glyph-name="uni0454" unicode="&#x454;" horiz-adv-x="485" 
d="M149 189q6 -61 37.5 -93t88.5 -32q34 0 64 7t51 15.5t28 11.5l31 -70q-7 -4 -31 -15t-61 -20.5t-83 -9.5q-68 0 -119.5 27.5t-80.5 80t-29 127.5q0 76 27 129.5t78 81.5t124 28q40 0 71.5 -5t51.5 -11t26 -10l24 -121l-84 -18l-14 73q-6 2 -25.5 6t-48.5 4q-59 0 -90 -32
t-37 -92l67 6h98v-74h-98z" />
    <glyph glyph-name="uni0455" unicode="&#x455;" horiz-adv-x="460" 
d="M313 368q-19 7 -38.5 11.5t-44.5 4.5q-36 0 -64.5 -14.5t-28.5 -43.5q0 -25 19.5 -40t65.5 -21l53 -7q79 -9 113.5 -42t34.5 -89q0 -46 -25.5 -79t-68.5 -49.5t-96 -16.5q-54 0 -99 12.5t-81 32.5l-17 104l85 16l12 -60q22 -11 46 -17t49 -6q42 0 73.5 15.5t31.5 45.5
q0 24 -17 37t-64 19l-52 7q-73 10 -113 44t-40 88q0 44 24.5 75t66 47t92.5 16q46 0 85 -10t73 -31l18 -96l-76 -15z" />
    <glyph glyph-name="uni0456" unicode="&#x456;" horiz-adv-x="330" 
d="M39 440h184v-360h83v-80h-267v80h83v281h-83v79zM161 656q30 0 48.5 -18.5t18.5 -48.5t-18.5 -48t-48.5 -18q-29 0 -47 18t-18 48t18 48.5t47 18.5z" />
    <glyph glyph-name="uni0457" unicode="&#x457;" horiz-adv-x="330" 
d="M39 440h184v-360h83v-80h-267v80h83v281h-83v79zM255 643q26 0 44.5 -19t18.5 -45t-18.5 -45t-44.5 -19q-27 0 -45.5 19t-18.5 45t18.5 45t45.5 19zM69 643q26 0 45 -19t19 -45t-19 -45t-45 -19t-45 19t-19 45t19 45t45 19z" />
    <glyph glyph-name="uni0458" unicode="&#x458;" horiz-adv-x="271" 
d="M208 -33q0 -33 -3.5 -68.5t-20 -65.5t-54.5 -48.5t-108 -18.5q-17 0 -35.5 2.5t-30.5 4.5l12 79q11 -1 25 -2t25 -1q35 0 53.5 10t26 26.5t9 35t1.5 36.5v404h-84v79h184v-473zM148 656q30 0 48.5 -18.5t18.5 -48.5t-18.5 -48t-48.5 -18q-29 0 -47 18t-18 48t18 48.5
t47 18.5z" />
    <glyph glyph-name="uni0459" unicode="&#x459;" horiz-adv-x="799" 
d="M35 -7v81q52 -5 79 16.5t38.5 65.5t15.5 104l5 101h-74v79h485v-79h-89v-92h101q49 0 90.5 -11.5t67 -40t25.5 -80.5q0 -60 -37 -98.5t-108 -38.5h-282v80h43v281h-134l-9 -126q-5 -77 -28.5 -135t-69 -86.5t-119.5 -20.5zM495 80h109q35 0 54 14.5t19 45.5
q0 27 -18.5 39.5t-50.5 12.5h-113v-112z" />
    <glyph glyph-name="uni045A" unicode="&#x45a;" horiz-adv-x="836" 
d="M631 256q51 0 93 -10t67 -37.5t25 -79.5q0 -59 -37.5 -94t-109.5 -35h-285v80h47v99h-201v-99h47v-80h-232v80h84v281h-84v80h232v-80h-47v-102h201v102h-47v80h233v-80h-84v-105h98zM638 80q37 0 57 11t20 41q0 26 -20 36.5t-52 10.5h-110v-99h105z" />
    <glyph glyph-name="uni045B" unicode="&#x45b;" horiz-adv-x="627" 
d="M37 0v80h84v369h-84v67h84v41l-95 32l26 81l169 -57v-97h176v-67h-176v-90q24 15 57 25.5t72 10.5q87 0 126 -45.5t39 -131.5v-138h84v-80h-227v80h43v122q0 35 -7 59.5t-26.5 37.5t-55.5 13q-26 0 -47 -6t-35.5 -13t-21.5 -10v-203h42v-80h-227z" />
    <glyph glyph-name="uni045C" unicode="&#x45c;" horiz-adv-x="598" 
d="M45 440h222v-79h-38v-104h82l68 104h-51v79h230v-79h-79l-95 -140l95 -141h84v-80h-143l-118 177h-73v-97h38v-80h-222v80h84v281h-84v79zM375 728l71 -53l-155 -175l-44 31z" />
    <glyph glyph-name="uni045D" unicode="&#x45d;" horiz-adv-x="652" 
d="M45 441h228v-80h-48v-239l203 318l180 1v-80h-85v-281h85v-80h-228v80h48v242l-203 -322h-180v80h84v281h-84v80zM334 500l-154 175l70 53l129 -197z" />
    <glyph glyph-name="uni045E" unicode="&#x45e;" horiz-adv-x="576" 
d="M151 -235q-19 0 -38.5 3.5t-41.5 12.5l17 77q17 -5 30.5 -8t27.5 -3q26 0 43 10t32.5 37t33.5 77l146 390h-53l3 79h222v-79h-75l-176 -442q-32 -79 -73 -116.5t-98 -37.5zM277 -68l-201 429h-73v79h231v-79h-56l143 -333zM308 506q-75 0 -116 38.5t-50 94.5l73 11
q3 -32 25.5 -52.5t67.5 -20.5q47 0 69.5 21t25.5 52l73 -11q-8 -56 -49.5 -94.5t-118.5 -38.5z" />
    <glyph glyph-name="uni045F" unicode="&#x45f;" horiz-adv-x="660" 
d="M284 -143v143h-239v80h90v281h-90v80h232v-80h-42v-281h190v281h-43v80h233v-80h-91v-281h90v-80h-238v-143h-92z" />
    <glyph glyph-name="uni0462" unicode="&#x462;" horiz-adv-x="613" 
d="M83 0v89h88v363h-91v-48h-61v121h152v55h-85v88h262v-88h-76v-55h178v-121h-66v48h-112v-89h103q71 0 117.5 -20t69.5 -59.5t23 -98.5t-24 -100.5t-68.5 -63t-107.5 -21.5h-302zM272 89h93q20 0 40.5 4t37 14t26.5 29.5t10 49.5q0 47 -25.5 67.5t-87.5 20.5h-94v-185z
" />
    <glyph glyph-name="uni0463" unicode="&#x463;" horiz-adv-x="565" 
d="M78 -1v80h82v281h-86v-46h-59v116h145v79h-82v80h269v-79h-85v-80h174l1 -116h-57v46h-118v-85h100q49 0 91 -13t67 -42t25 -81q0 -61 -37 -100.5t-108 -39.5h-322zM262 80h109q33 0 53 15.5t20 45.5q0 28 -18.5 42.5t-51.5 14.5h-112v-118z" />
    <glyph glyph-name="uni046A" unicode="&#x46a;" horiz-adv-x="873" 
d="M8 0v89h89l108 153q13 20 31.5 39t41 33t48.5 16l-162 170h-80v89h707v-89h-90l-155 -170q26 -2 48 -15.5t40.5 -33t32.5 -39.5l108 -153h89v-89h-265v89h57l-77 123q-12 22 -23.5 32t-24.5 13t-36 3h-7l-1 -172h56v-88h-214v88h57v172h-9q-22 0 -35.5 -3t-24.5 -13
t-24 -32l-77 -123h57v-89h-265zM442 334l151 166h-306z" />
    <glyph glyph-name="uni046B" unicode="&#x46b;" horiz-adv-x="670" 
d="M13 0v80h84l30 86q13 39 42.5 56t82.5 18l-128 130h-66v70h554v-70h-66l-125 -130h16q43 -2 68 -19t38 -55l30 -86h84v-80l-158 -1l-38 127q-9 33 -24 45t-43 12h-13v-103h42v-80h-176v80h42v103h-13q-26 0 -42 -12t-26 -45l-38 -126h-157zM337 245l120 125h-236z" />
    <glyph glyph-name="uni0472" unicode="&#x472;" horiz-adv-x="656" 
d="M112 336h448v-74h-448v74zM327 607q85 0 149.5 -37.5t100.5 -107t36 -167.5q0 -97 -36 -167t-100 -108t-149 -38q-84 0 -148.5 38t-100.5 108t-36 167q0 98 36 167.5t100 107t148 37.5zM328 520q-86 0 -132 -58.5t-46 -166.5q0 -109 46 -167.5t132 -58.5t132 58.5
t46 167.5q0 108 -46 166.5t-132 58.5z" />
    <glyph glyph-name="uni0473" unicode="&#x473;" horiz-adv-x="542" 
d="M270 458q72 0 123.5 -28.5t79.5 -82t28 -128.5q0 -111 -62 -173.5t-169 -62.5q-70 0 -121.5 28t-79 81.5t-27.5 126.5q0 75 27.5 128.5t79 82t121.5 28.5zM270 376q-63 0 -95.5 -40.5t-32.5 -116.5q0 -75 32.5 -115t95.5 -40q66 0 98.5 40t32.5 115q0 76 -32.5 116.5
t-98.5 40.5zM112 257h320v-70h-320v70z" />
    <glyph glyph-name="uni0474" unicode="&#x474;" horiz-adv-x="655" 
d="M457 461q20 65 54 97.5t78 32.5q17 0 31 -3t30 -10l-19 -100q-35 10 -58.5 -6.5t-43.5 -75.5l-137 -396h-104l-196 500h-87v89h261v-89h-59l92 -249l47 -135l41 127z" />
    <glyph glyph-name="uni0475" unicode="&#x475;" horiz-adv-x="544" 
d="M226 0l-145 361h-77l-1 79h231v-79h-51l66 -184l31 -85l32 84l59 161q28 73 70.5 101.5t102.5 12.5v-86q-43 9 -66 -13t-46 -79l-107 -273h-99z" />
    <glyph glyph-name="uni048A" unicode="&#x48a;" horiz-adv-x="748" 
d="M553 -175l59 175h-95v89h196v-89l-75 -175h-85zM40 589h251v-89h-60l-1 -369l289 458h190v-89h-90v-411h88v-89h-248v89h59v365l-288 -454h-190v89h89v411h-89v89zM385 643q-73 0 -119.5 29.5t-61.5 85.5l83 11q17 -63 98 -63q83 0 99 63l83 -11q-17 -56 -63.5 -85.5
t-118.5 -29.5z" />
    <glyph glyph-name="uni048B" unicode="&#x48b;" horiz-adv-x="652" 
d="M481 -143l49 143h-101v80h189v-80l-56 -143h-81zM45 441h228v-80h-48v-239l203 318l180 1v-80h-85v-281h85v-80h-228v80h48v242l-203 -322h-180v80h84v281h-84v80zM336 506q-76 0 -117 38.5t-50 94.5l73 11q4 -32 26 -52.5t68 -20.5t69 21t26 52l73 -11
q-9 -56 -50.5 -94.5t-117.5 -38.5z" />
    <glyph glyph-name="uni048C" unicode="&#x48c;" horiz-adv-x="594" 
d="M45 469h320v-62h-320v62zM338 374q72 0 118.5 -19.5t70 -60.5t23.5 -104q0 -59 -24.5 -101.5t-69 -65.5t-107.5 -23l-301 1v88h87v412h-85v89h247v-89h-61v-127h102zM328 89q21 0 41.5 4t37 14.5t26.5 31t10 52.5q0 39 -13.5 59t-38.5 27.5t-61 7.5h-94v-196h92z" />
    <glyph glyph-name="uni048D" unicode="&#x48d;" horiz-adv-x="550" 
d="M45 0v80h83v470l-95 33l27 80l169 -57v-305h100q49 0 90.5 -14t67 -46.5t25.5 -89.5q0 -43 -16.5 -77.5t-49 -54t-79.5 -19.5h-322zM229 80h108q34 0 53.5 18.5t19.5 54.5q0 35 -18 53t-51 18h-112v-144zM47 374v66h275v-66h-275z" />
    <glyph glyph-name="uni048E" unicode="&#x48e;" horiz-adv-x="584" 
d="M352 382l156 -185l-42 -35l-156 185zM302 589q112 0 171.5 -48.5t59.5 -140.5q0 -94 -59.5 -143.5t-171.5 -49.5h-73v-118h108v-89h-297v89h87v411h-87v89h262zM301 290q125 0 125 108q0 102 -125 102h-71v-210h71z" />
    <glyph glyph-name="uni048F" unicode="&#x48f;" horiz-adv-x="600" 
d="M351 180l168 -219l-49 -37l-167 218zM30 -215v79h84v481l-94 31l26 82l139 -48q32 22 69 35t69 13q103 0 161.5 -61.5t58.5 -168.5q0 -73 -28 -129t-79.5 -86.5t-121.5 -30.5q-53 0 -99 14v-132h84v-79h-269zM313 63q60 0 94 43t34 121q0 73 -31 111t-91 38
q-29 0 -58 -10t-47 -27v-256q17 -9 44.5 -14.5t54.5 -5.5z" />
    <glyph glyph-name="uni0490" unicode="&#x490;" horiz-adv-x="522" 
d="M424 689l86 -25l-44 -164h-229l-1 -411h110v-89h-306v89h95l1 411h-95v89h354z" />
    <glyph glyph-name="uni0491" unicode="&#x491;" horiz-adv-x="489" 
d="M396 536l82 -24l-41 -150h-205v-282h111v-80h-298v80h86v282h-86v79h325z" />
    <glyph glyph-name="uni0492" unicode="&#x492;" horiz-adv-x="536" 
d="M49 589h432l43 -164l-86 -25l-29 100h-164l-1 -411h110v-89h-306v89h95l1 411h-95v89zM65 332h320v-70h-320v70z" />
    <glyph glyph-name="uni0493" unicode="&#x493;" horiz-adv-x="475" 
d="M45 0v80h86v282h-86v79h388l32 -138l-86 -20l-20 79h-127v-282h111v-80h-298zM50 184v64h300v-64h-300z" />
    <glyph glyph-name="uni0494" unicode="&#x494;" horiz-adv-x="596" 
d="M375 -131l-29 70q57 28 87 82t29 124q0 67 -28.5 99t-83.5 32q-24 0 -53.5 -8t-59.5 -25l-1 -154h73v-89h-269v89h95l1 411h-95v89h432l39 -152l-86 -25l-24 88h-165v-183q37 21 70.5 30.5t69.5 9.5q55 0 96.5 -21t65.5 -64.5t24 -112.5q0 -92 -45 -167.5t-143 -122.5z
" />
    <glyph glyph-name="uni0495" unicode="&#x495;" horiz-adv-x="536" 
d="M45 0v80h86v282h-86v79h388l31 -139l-84 -20l-20 80h-128v-282h42v-80h-229zM296 -215l-34 58q56 31 87.5 59t44.5 61.5t13 79.5q0 57 -27.5 88.5t-83.5 31.5q-15 0 -33 -2.5t-37 -8.5l-1 72q25 8 48 11.5t45 3.5q56 0 99 -22t68 -63.5t25 -101.5q0 -51 -21 -99.5
t-68 -90.5t-125 -77z" />
    <glyph glyph-name="uni0496" unicode="&#x496;" horiz-adv-x="988" 
d="M840 -175l2 175h-92v89h191v-264h-101zM52 589h260v-89h-63l115 -158h79v158h-66v88h235v-88h-67l-1 -158h80l115 158h-62v89h259v-89h-86l-144 -194l146 -217h89v-89h-264v89h56l-103 165l-86 -1v-164h68v-89h-235v89h66v164l-85 1l-103 -165h57v-89h-265v89h89l145 217
l-142 194h-87v89z" />
    <glyph glyph-name="uni0497" unicode="&#x497;" horiz-adv-x="822" 
d="M701 80h86l-1 -223h-92v143h-50l-113 180h-70v-100h47v-80h-194v80h47v100h-70l-114 -180h-142v80h84l96 141l-96 140h-79v79h230v-79h-58l70 -108h79v107h-47v80h194v-80h-47v-107h77l72 108h-59v79h230v-79h-79l-95 -140z" />
    <glyph glyph-name="uni0498" unicode="&#x498;" horiz-adv-x="543" 
d="M247 -175l2 175l94 40v-215h-96zM80 559q46 24 97 36t98 12q62 0 109.5 -19.5t75 -57.5t27.5 -94q0 -47 -24.5 -80.5t-77.5 -50.5q63 -16 93 -52.5t30 -88.5q0 -57 -31 -98t-84.5 -62.5t-121.5 -21.5q-56 0 -107.5 16.5t-96.5 52.5l-24 103l86 22l19 -69q26 -22 55.5 -31
t69.5 -9q62 0 95.5 25t33.5 72q0 44 -28.5 68.5t-80.5 24.5h-91v84h89q45 0 67.5 25.5t22.5 66.5q0 45 -32 66.5t-81 21.5q-27 0 -54.5 -5.5t-50.5 -16.5l-20 -75l-87 19z" />
    <glyph glyph-name="uni0499" unicode="&#x499;" horiz-adv-x="465" 
d="M197 -143v143l93 37l-1 -180h-92zM229 -18q-60 0 -111 18t-90 50l52 65q29 -25 69 -38t79 -13q50 0 78 16.5t28 48.5q0 31 -24 43.5t-72 12.5h-50v77h55q38 0 57 13t19 41q0 34 -27.5 49t-66.5 15q-51 0 -99 -21l-14 -66l-75 16l18 101q40 22 85.5 34t95.5 12
q81 0 129.5 -33.5t48.5 -91.5q0 -34 -20 -61t-55 -41q44 -8 70 -35.5t26 -70.5q0 -44 -28.5 -76t-75 -48.5t-102.5 -16.5z" />
    <glyph glyph-name="uni049A" unicode="&#x49a;" horiz-adv-x="684" 
d="M554 -175l2 175h-93v89h191v-264h-100zM40 589h249v-89h-60v-162h82l119 162h-59v89h254v-89h-92l-143 -186l159 -225h100v-89h-285v89h74l-113 163h-96l1 -163h59v-89h-249v89h88v411h-88v89z" />
    <glyph glyph-name="uni049B" unicode="&#x49b;" horiz-adv-x="606" 
d="M471 -143l-1 143h-49l-118 177h-74v-97h37v-80h-222v80h84v281h-84v79h222v-79h-37v-104h82l68 104h-51v79h229v-79h-79l-95 -140l95 -141h85v-223h-92z" />
    <glyph glyph-name="uni049C" unicode="&#x49c;" horiz-adv-x="710" 
d="M40 589h249v-89h-60v-162h97l119 162h-56v89h255v-89h-93l-143 -186l159 -225h101v-89h-286v89h72l-113 163h-112l1 -163h59v-89h-249v89h88v411h-88v89zM285 172v256h54v-256h-54z" />
    <glyph glyph-name="uni049D" unicode="&#x49d;" horiz-adv-x="634" 
d="M45 440h209v-79h-25v-104h110l68 104h-45v79h223v-79h-79l-95 -140l95 -141h85v-80h-142l-118 177h-102v-97h25v-80h-209v80h84v281h-84v79zM284 95v240h52v-240h-52z" />
    <glyph glyph-name="uni049E" unicode="&#x49e;" horiz-adv-x="684" 
d="M53 458h263v-63h-263v63zM40 589h249v-89h-60v-162h82l119 162h-59v89h254v-89h-92l-143 -186l159 -225h100v-89h-285v89h74l-113 163h-96l1 -163h59v-89h-249v89h88v411h-88v89z" />
    <glyph glyph-name="uni049F" unicode="&#x49f;" horiz-adv-x="606" 
d="M45 0v80h84v481l-98 27l24 81l174 -49v-363h82l68 104h-51v79h230v-79h-79l-95 -140l95 -141h84v-80h-142l-118 177h-74v-97h38v-80h-222zM39 529h315v-62h-315v62z" />
    <glyph glyph-name="uni04A0" unicode="&#x4a0;" horiz-adv-x="794" 
d="M32 589h228l-17 -89h-118v-97h-93v186zM150 589h249v-89h-60v-162h82l119 162h-59v89h254v-89h-92l-143 -186l159 -225h100v-89h-285v89h74l-113 163h-96l1 -163h59v-89h-249v89h88v411h-88v89z" />
    <glyph glyph-name="uni04A1" unicode="&#x4a1;" horiz-adv-x="673" 
d="M19 273v167h188l-24 -79h-88v-88h-76zM119 440h222v-79h-37v-104h81l69 104h-51v79h229v-79h-79l-95 -140l95 -141h85v-80h-144l-118 177h-72v-97h37v-80h-222v80h84v281h-84v79z" />
    <glyph glyph-name="uni04A2" unicode="&#x4a2;" horiz-adv-x="728" 
d="M591 -175l2 175h-92v89h191v-264h-101zM40 589h252v-89h-60l-1 -156h266v156h-59v89h250v-89h-88l-2 -411h89v-89h-249v89h59v166h-266v-166h59v-89h-250v89h89v411h-89v89z" />
    <glyph glyph-name="uni04A3" unicode="&#x4a3;" horiz-adv-x="662" 
d="M530 -143v143h-97v80h190l-1 -223h-92zM45 440h232v-79h-47v-102h202v102h-47v79h232v-79h-84v-281h84v-80h-232v80h47v99h-202v-99h47v-80h-232v80h84v281h-84v79z" />
    <glyph glyph-name="uni04A4" unicode="&#x4a4;" horiz-adv-x="895" 
d="M797 400l-28 100h-175l8 89h238l43 -164zM40 589h252v-89h-60l-1 -156h266v156h-59v89h250v-89h-88l-2 -411h89v-89h-249v89h59v166h-266v-166h59v-89h-250v89h89v411h-89v89z" />
    <glyph glyph-name="uni04A5" unicode="&#x4a5;" horiz-adv-x="761" 
d="M483 361v79h233l35 -152l-86 -20l-23 93h-159zM45 440h232v-79h-47v-102h202v102h-47v79h232v-79h-84v-281h84v-80h-232v80h47v99h-202v-99h47v-80h-232v80h84v281h-84v79z" />
    <glyph glyph-name="uni04A8" unicode="&#x4a8;" horiz-adv-x="815" 
d="M353 -17q-86 0 -156.5 34t-111.5 104t-42 177q0 80 24 138t66.5 95.5t98.5 54.5l25 -69q-46 -21 -77.5 -73.5t-31.5 -144.5q0 -87 28.5 -138.5t79.5 -73.5t118 -22q81 0 136 28t84 84t29 140q0 101 -36 150.5t-98 49.5q-43 0 -73.5 -20.5t-45.5 -64.5t-15 -117
q0 -68 15.5 -115.5t45 -77t72.5 -44.5l-29 -55q-63 20 -110 58.5t-73 98t-26 143.5q0 92 30 153.5t84.5 92t125.5 30.5q72 0 125.5 -31.5t83 -92.5t29.5 -148q0 -74 -21.5 -128t-58.5 -90.5t-84 -59.5l-2 -10q-41 -27 -92 -41.5t-117 -14.5zM588 -10q-56 0 -106 19l33 70
q21 -6 42.5 -10t38.5 -4q45 0 81 22.5t70 61.5l48 -64q-43 -49 -97 -72t-110 -23z" />
    <glyph glyph-name="uni04A9" unicode="&#x4a9;" horiz-adv-x="679" 
d="M393 7l26 63q16 -5 31 -8.5t29 -3.5q30 0 57 14.5t50 41.5l55 -58q-32 -33 -68.5 -49.5t-87.5 -16.5q-23 0 -46.5 4t-45.5 13zM192 449l29 -63q-33 -20 -56 -58.5t-23 -101.5q0 -64 24 -101t63 -52.5t85 -15.5q83 0 126 48.5t43 129.5q0 74 -22 107.5t-59 33.5
q-29 0 -48.5 -17t-29 -49t-9.5 -76q0 -65 22 -107.5t63 -58.5l-21 -59q-49 18 -86.5 48t-58 76t-20.5 111q0 106 51 159.5t137 53.5q84 0 134 -51.5t50 -160.5q0 -51 -18 -90.5t-47 -66.5t-65 -40v-18q-30 -20 -68.5 -32t-88.5 -12q-73 0 -131 23t-91.5 74t-34.5 135
q0 51 13.5 90t36 67.5t48.5 46.5t52 27z" />
    <glyph glyph-name="uni04AA" unicode="&#x4aa;" horiz-adv-x="605" 
d="M288 -175l2 175l94 40v-215h-96zM451 501q-5 3 -21 7.5t-38 8.5t-48 4q-91 0 -139.5 -59.5t-48.5 -166.5q0 -108 49.5 -167.5t138.5 -59.5q25 0 47 5t38 10.5t22 7.5l21 84l86 -20l-28 -132l-23 -10t-65.5 -20.5t-97.5 -10.5q-88 0 -154.5 36t-103 106t-37.5 171
q0 97 36 167t102.5 108t155.5 37q64 0 106.5 -12t63 -24.5t20.5 -13.5l26 -131l-87 -19z" />
    <glyph glyph-name="uni04AB" unicode="&#x4ab;" horiz-adv-x="491" 
d="M231 -143l-1 143l93 37v-180h-92zM357 369q-20 7 -38 9.5t-38 2.5q-63 0 -99 -41t-36 -122q0 -74 39 -113.5t94 -39.5q33 0 66.5 11.5t66.5 34.5l41 -61q-27 -21 -53.5 -36t-56 -23t-70.5 -8q-69 0 -120.5 27.5t-80 80.5t-28.5 127q0 79 29.5 132.5t82.5 81t125 27.5
q39 0 75.5 -8t77.5 -21l20 -122l-83 -18z" />
    <glyph glyph-name="uni04AC" unicode="&#x4ac;" horiz-adv-x="595" 
d="M344 -175l1 175h-92v89h191v-264h-100zM32 589h526v-186h-92v97h-119l-1 -411h88v-89h-280v89h89v411h-118v-97h-93v186z" />
    <glyph glyph-name="uni04AD" unicode="&#x4ad;" horiz-adv-x="495" 
d="M305 -143l-1 143h-96v80h189v-223h-92zM19 440h457v-167h-75v88h-103v-281h86v-80h-273v80h87v281h-103v-88h-76v167z" />
    <glyph glyph-name="Ustraitcy" unicode="&#x4ae;" horiz-adv-x="658" 
d="M5 589h260v-89h-60l130 -180l137 180h-69v89h250v-89h-70l-201 -255l-1 -157h94v-88h-289v88h94l1 155l-195 257h-81v89z" />
    <glyph glyph-name="ustraitcy" unicode="&#x4af;" horiz-adv-x="588" 
d="M162 -215v79h84v124l-165 373h-77l-1 79h231v-79h-51l78 -202l35 -95l36 95l78 202h-51v79h225v-79h-71l-167 -372v-125h84v-79h-268z" />
    <glyph glyph-name="Ustraitstrokecy" unicode="&#x4b0;" horiz-adv-x="658" 
d="M5 589h260v-89h-60l130 -180l137 180h-69v89h250v-89h-70l-201 -255l-1 -157h94v-88h-289v88h94l1 155l-195 257h-81v89zM172 257h320v-70h-320v70z" />
    <glyph glyph-name="ustraitstrokecy" unicode="&#x4b1;" horiz-adv-x="588" 
d="M162 -215v79h84v124l-165 373h-77l-1 79h231v-79h-51l78 -202l35 -95l36 95l78 202h-51v79h225v-79h-71l-167 -372v-125h84v-79h-268zM136 37h320v-70h-320v70z" />
    <glyph glyph-name="uni04B2" unicode="&#x4b2;" horiz-adv-x="686" 
d="M567 -175l2 175h-93v89h191v-264h-100zM24 0v88h94l161 208l-167 204h-84v89h263v-89h-60l111 -137l109 137h-61v89h258v-89h-92l-155 -202l169 -210h97v-88h-279v88h65l-115 141l-113 -141h59v-88h-260z" />
    <glyph glyph-name="uni04B3" unicode="&#x4b3;" horiz-adv-x="609" 
d="M496 -143v143h-96v80h189l-1 -223h-92zM30 0v80h86l125 145l-134 136h-77v79h239v-79h-43l85 -91l78 91h-40v79h219v-79h-75l-124 -144l136 -137h81v-80h-241v80h43l-88 91l-81 -91h42v-80h-231z" />
    <glyph glyph-name="uni04B4" unicode="&#x4b4;" horiz-adv-x="840" 
d="M32 589h475v-186h-93v97h-289v-97h-93v186zM692 -175l2 175h-533v89h89v411h-89v89h251v-89h-60v-411h249l1 411h-60v89h251v-89h-89l-1 -411h89v-264h-100z" />
    <glyph glyph-name="uni04B5" unicode="&#x4b5;" horiz-adv-x="712" 
d="M19 440h382v-167h-75v88h-231v-88h-76v167zM573 -143v143h-476v80h90v281h-90v79h232v-79h-42v-281h190v281h-43v79h233v-79h-91v-281h90v-223h-93z" />
    <glyph glyph-name="uni04B6" unicode="&#x4b6;" horiz-adv-x="701" 
d="M552 -175l2 175h-92v89h191v-264h-101zM320 0v89h142v159q-16 -10 -47 -21.5t-80 -11.5q-62 0 -109 23t-73.5 70t-26.5 116v76h-89v89h250v-89h-61v-76q0 -67 30.5 -96.5t96.5 -29.5q46 0 72 10.5t37 18.5v173h-60v89h251v-89h-89v-411h88v-89h-332z" />
    <glyph glyph-name="uni04B7" unicode="&#x4b7;" horiz-adv-x="621" 
d="M490 -143l-1 143h-96v80h189v-223h-92zM392 189q-21 -13 -54.5 -24.5t-81.5 -11.5q-50 0 -79.5 15.5t-44.5 40t-19.5 54t-3.5 57.5v40h-84v80h233v-80h-49v-25q0 -34 4.5 -58.5t22 -37.5t55.5 -13q33 0 59 9.5t42 19.5v105h-47v80h232v-80h-85v-280h85v-80h-269v80h84
v109z" />
    <glyph glyph-name="uni04B8" unicode="&#x4b8;" horiz-adv-x="701" 
d="M323 138v256h54v-256h-54zM320 0v89h142v159q-16 -10 -47 -21.5t-80 -11.5q-62 0 -109 23t-73.5 70t-26.5 116v76h-89v89h250v-89h-61v-76q0 -67 30.5 -96.5t96.5 -29.5q46 0 72 10.5t37 18.5v173h-60v89h251v-89h-89v-411h88v-89h-332z" />
    <glyph glyph-name="uni04B9" unicode="&#x4b9;" horiz-adv-x="621" 
d="M346 0v80h46v97q-21 -13 -51.5 -24t-79.5 -11q-44 0 -73 13t-47 36t-25.5 54t-6.5 67v48h-84v80h229v-80h-45v-48q0 -30 7 -52t25 -34t50 -12q30 0 55 7.5t46 21.5v117h-30v79h215v-79h-85v-280h85v-80h-231zM280 74v240h52v-240h-52z" />
    <glyph glyph-name="uni04BA" unicode="&#x4ba;" horiz-adv-x="684" 
d="M327 589v-89h-94v-159q17 10 47 21.5t79 11.5q62 0 110 -23t75 -69.5t27 -116.5l-1 -76h87v-89h-250v89h61v76q0 67 -30 96.5t-97 29.5q-45 0 -70.5 -10.5t-37.5 -18.5v-173h59v-89h-252v89h90v411h-88v89h285z" />
    <glyph glyph-name="uni04BB" unicode="&#x4bb;" horiz-adv-x="624" 
d="M21 0v80h84v470l-95 33l26 80l169 -57v-188q64 40 140 40q85 0 128 -45t43 -133v-200h84v-80h-227v80h42v184q0 58 -22.5 84t-71.5 26q-27 0 -59 -8t-56 -21v-265h43v-80h-228z" />
    <glyph glyph-name="uni04BC" unicode="&#x4bc;" horiz-adv-x="715" 
d="M656 82q-48 -50 -105 -75t-126 -25q-84 0 -147.5 39t-99 110.5t-35.5 169.5q0 92 35 160.5t96.5 107t140.5 38.5q125 0 191 -77t66 -210q0 -13 -0.5 -25.5t-2.5 -26.5l-429 -1q3 -63 28 -107.5t66.5 -68.5t92.5 -24q57 -1 97.5 18t81.5 61zM576 341q0 80 -38 130t-120 49
q-49 0 -87.5 -22t-62 -61.5t-27.5 -95.5h335zM187 272q-48 0 -92 17.5t-71 55t-24 96.5h84q-5 -49 24 -74.5t79 -25.5v-69z" />
    <glyph glyph-name="uni04BD" unicode="&#x4bd;" horiz-adv-x="588" 
d="M136 191q-36 0 -70 18t-55 53t-16 87h77q-6 -47 13.5 -67.5t50.5 -20.5v-70zM541 53q-42 -36 -87.5 -53t-95.5 -17q-74 0 -129 29t-84.5 82.5t-29.5 125.5q0 71 28 124.5t79.5 83.5t118.5 30q66 0 114 -27.5t74.5 -76.5t26.5 -115q0 -11 -1 -24t-3 -25l-340 -1
q3 -44 23.5 -71.5t52 -41t68.5 -13.5q43 0 80 13t67 38zM456 261q0 52 -30.5 84.5t-82.5 32.5q-49 0 -86.5 -32.5t-42.5 -84.5h242z" />
    <glyph glyph-name="uni04BE" unicode="&#x4be;" horiz-adv-x="715" 
d="M367 -157l12 157h81l10 -157h-103zM656 82q-48 -50 -105 -75t-126 -25q-84 0 -147.5 39t-99 110.5t-35.5 169.5q0 92 35 160.5t96.5 107t140.5 38.5q125 0 191 -77t66 -210q0 -13 -0.5 -25.5t-2.5 -26.5l-429 -1q3 -63 28 -107.5t66.5 -68.5t92.5 -24q57 -1 97.5 18
t81.5 61zM576 341q0 80 -38 130t-120 49q-49 0 -87.5 -22t-62 -61.5t-27.5 -95.5h335zM187 272q-48 0 -92 17.5t-71 55t-24 96.5h84q-5 -49 24 -74.5t79 -25.5v-69z" />
    <glyph glyph-name="uni04BF" unicode="&#x4bf;" horiz-adv-x="588" 
d="M296 -143l11 143h73l10 -143h-94zM136 191q-36 0 -70 18t-55 53t-16 87h77q-6 -47 13.5 -67.5t50.5 -20.5v-70zM541 53q-42 -36 -87.5 -53t-95.5 -17q-74 0 -129 29t-84.5 82.5t-29.5 125.5q0 71 28 124.5t79.5 83.5t118.5 30q66 0 114 -27.5t74.5 -76.5t26.5 -115
q0 -11 -1 -24t-3 -25l-340 -1q3 -44 23.5 -71.5t52 -41t68.5 -13.5q43 0 80 13t67 38zM456 261q0 52 -30.5 84.5t-82.5 32.5q-49 0 -86.5 -32.5t-42.5 -84.5h242z" />
    <glyph glyph-name="uni04C0" unicode="&#x4c0;" horiz-adv-x="372" 
d="M41 589h292v-89h-94l-1 -411h95v-89h-293v89h96v411h-95v89z" />
    <glyph glyph-name="uni04C1" unicode="&#x4c1;" horiz-adv-x="988" 
d="M52 589h260v-89h-63l115 -158h79v158h-66v88h235v-88h-67l-1 -158h80l115 158h-62v89h259v-89h-86l-144 -194l146 -217h89v-89h-264v89h56l-103 165l-86 -1v-164h68v-89h-235v89h66v164l-85 1l-103 -165h57v-89h-265v89h89l145 217l-142 194h-87v89zM494 643
q-73 0 -119.5 29.5t-62.5 85.5l84 11q16 -63 98 -63t98 63l83 -11q-16 -56 -63 -85.5t-118 -29.5z" />
    <glyph glyph-name="uni04C2" unicode="&#x4c2;" horiz-adv-x="811" 
d="M30 0v80h84l95 141l-97 140h-77v79h229v-79h-59l72 -108h78v107h-47v80h189v-80h-47v-107h78l72 108h-59v79h229v-79h-79l-95 -140l95 -141h85v-80h-138l-118 180h-70v-100h47v-80h-189v80h47v100h-70l-117 -180h-138zM402 506q-75 0 -116 38.5t-50 94.5l73 11
q3 -32 25.5 -52.5t67.5 -20.5q47 0 69.5 21t25.5 52l73 -11q-8 -56 -49.5 -94.5t-118.5 -38.5z" />
    <glyph glyph-name="uni04C3" unicode="&#x4c3;" horiz-adv-x="684" 
d="M472 -222q-25 0 -52.5 5.5t-58.5 18.5l27 84q38 -15 67 -15q37 0 53.5 17t16.5 49q0 33 -25 77.5t-67 97.5l-109 140h-95l1 -163h59v-89h-249v89h88v411h-88v89h249v-89h-60v-162h82l119 162h-59v89h254v-89h-92l-143 -186l139 -170q53 -65 79 -119.5t26 -100.5
q0 -40 -17.5 -73.5t-53.5 -53t-91 -19.5z" />
    <glyph glyph-name="uni04C4" unicode="&#x4c4;" horiz-adv-x="568" 
d="M406 -211q-23 0 -48 6.5t-52 19.5l24 75q17 -6 31 -9.5t26 -3.5q31 0 48 19.5t17 48.5q0 20 -8.5 43t-26.5 45l-114 144h-74v-97h38v-80h-222v80h84v281h-84v79h222v-79h-38v-104h82l68 104h-51v79h230v-79h-79l-95 -140l99 -121q36 -43 52 -86t16 -82q0 -60 -37 -101.5
t-108 -41.5z" />
    <glyph glyph-name="uni04C5" unicode="&#x4c5;" horiz-adv-x="695" 
d="M498 -175l59 175h-95v89h195v-89l-74 -175h-85zM76 -14h-13.5t-22.5 1v95q56 0 85.5 19.5t42 64t17.5 119.5l16 216h-89v89h535v-89h-95l-1 -412h95v-89h-268v89h71l1 412h-159l-19 -242q-5 -79 -24.5 -140.5t-60 -97t-111.5 -35.5z" />
    <glyph glyph-name="uni04C6" unicode="&#x4c6;" horiz-adv-x="613" 
d="M440 -143l49 143h-101v80h189v-80l-56 -143h-81zM336 0v80h42v281h-290v80h479v-80h-89v-281h90v-80h-232zM35 -7v81q52 -5 79 16.5t38.5 65.5t14.5 104l7 119h88l-10 -144q-5 -77 -28 -135t-69 -86.5t-120 -20.5z" />
    <glyph glyph-name="uni04C7" unicode="&#x4c7;" horiz-adv-x="728" 
d="M40 589h252v-89h-60l-1 -156h266v156h-59v89h250v-89h-88l-2 -500h-101v255h-266v-166h59v-89h-250v89h89v411h-89v89zM598 0q0 -76 -24 -127.5t-67 -77.5t-99 -26q-25 0 -52.5 6.5t-55.5 19.5l26 88q38 -15 68 -15q48 0 75.5 35t27.5 97h101z" />
    <glyph glyph-name="uni04C8" unicode="&#x4c8;" horiz-adv-x="661" 
d="M45 440h232v-79h-47v-102h202v102h-47v79h232v-79h-85v-361h-100v179h-202v-99h47v-80h-232v80h84v281h-84v79zM532 0q0 -114 -40.5 -171t-109.5 -57q-47 0 -101 25l24 74q17 -6 31 -9t25 -3q37 0 54 32.5t17 108.5h100z" />
    <glyph glyph-name="uni04C9" unicode="&#x4c9;" horiz-adv-x="728" 
d="M537 -175l59 175h-95v89h195v-89l-74 -175h-85zM40 589h252v-89h-60l-1 -156h266v156h-59v89h250v-89h-88l-2 -411h89v-89h-249v89h59v166h-266v-166h59v-89h-250v89h89v411h-89v89z" />
    <glyph glyph-name="uni04CA" unicode="&#x4ca;" horiz-adv-x="662" 
d="M486 -143l48 143h-101v80h190v-80l-57 -143h-80zM45 440h232v-79h-47v-102h202v102h-47v79h232v-79h-84v-281h84v-80h-232v80h47v99h-202v-99h47v-80h-232v80h84v281h-84v79z" />
    <glyph glyph-name="uni04CB" unicode="&#x4cb;" horiz-adv-x="704" 
d="M314 -175v264h191v-89h-92l2 -175h-101zM326 0v89h143v159q-17 -10 -47.5 -21.5t-79.5 -11.5q-62 0 -109.5 23t-74 70t-26.5 116l1 76h-89v89h249v-89h-60v-76q0 -67 30.5 -96.5t96.5 -29.5q45 0 71.5 10.5t37.5 18.5v173h-60v89h250v-89h-89v-411h88v-89h-332z" />
    <glyph glyph-name="uni04CC" unicode="&#x4cc;" horiz-adv-x="621" 
d="M303 -143v223h189v-80h-96l-1 -143h-92zM392 189q-21 -13 -54.5 -24.5t-81.5 -11.5q-50 0 -79.5 15.5t-44.5 40t-19.5 54t-3.5 57.5v40h-84v80h233v-80h-49v-25q0 -34 4.5 -58.5t22 -37.5t55.5 -13q33 0 59 9.5t42 19.5v105h-47v80h232v-80h-85v-280h85v-80h-269v80h84
v109z" />
    <glyph glyph-name="uni04CD" unicode="&#x4cd;" horiz-adv-x="860" 
d="M666 -175l60 175h-96v89h196v-89l-74 -175h-86zM41 589h248l147 -389l138 389h246v-89h-88v-411h88v-89h-254v89h64v423l-42 -133l-112 -308h-85l-125 317l-42 120l-2 -419h66v-89h-249v89h89l1 411h-88v89z" />
    <glyph glyph-name="uni04CE" unicode="&#x4ce;" horiz-adv-x="810" 
d="M634 -143l48 143h-100v80h189v-80l-57 -143h-80zM45 0v80h84v281h-84v80h237l144 -311h-31l138 311h232v-80h-84v-281h84v-80h-230v80h48v336l17 -4l-156 -353h-72l-167 350l22 4v-333h48v-80h-230z" />
    <glyph glyph-name="uni04CF" unicode="&#x4cf;" horiz-adv-x="319" 
d="M27 0v80h84v476l-98 27l24 81l174 -49v-535h84v-80h-268z" />
    <glyph glyph-name="uni04D0" unicode="&#x4d0;" horiz-adv-x="669" 
d="M8 0v89h97l157 411h-91v89h215l183 -500h92v-89h-253v89h57l-31 88h-206l-32 -88h60v-89h-248zM255 252h153l-74 228zM323 643q-73 0 -119.5 29.5t-62.5 85.5l84 11q16 -63 98 -63t98 63l83 -11q-16 -56 -63 -85.5t-118 -29.5z" />
    <glyph glyph-name="uni04D1" unicode="&#x4d1;" horiz-adv-x="541" 
d="M362 24q-68 -41 -142 -41q-90 0 -136.5 35t-47.5 102q-1 137 177 137l118 -1q0 63 -24.5 93.5t-68.5 30.5q-23 0 -44 -3t-40 -9l-10 -52l-83 13l18 100q39 14 79 21.5t80 7.5q95 0 144.5 -50.5t49.5 -148.5v-169l88 -29l-26 -82zM216 186q-37 0 -57 -16.5t-20 -47.5
q0 -62 85 -62q60 0 107 32v94h-115zM236 506q-75 0 -116 38.5t-50 94.5l73 11q3 -32 25.5 -52.5t67.5 -20.5q47 0 69.5 21t25.5 52l73 -11q-8 -56 -49.5 -94.5t-118.5 -38.5z" />
    <glyph glyph-name="uni04D2" unicode="&#x4d2;" horiz-adv-x="669" 
d="M8 0v89h97l157 411h-91v89h215l183 -500h92v-89h-253v89h57l-31 88h-206l-32 -88h60v-89h-248zM255 252h153l-74 228zM416 792q26 0 44.5 -19t18.5 -45t-18.5 -45t-44.5 -19q-27 0 -45.5 19t-18.5 45t18.5 45t45.5 19zM230 792q26 0 45 -19t19 -45t-19 -45t-45 -19
t-45 19t-19 45t19 45t45 19z" />
    <glyph glyph-name="uni04D3" unicode="&#x4d3;" horiz-adv-x="541" 
d="M362 24q-68 -41 -142 -41q-90 0 -136.5 35t-47.5 102q-1 137 177 137l118 -1q0 63 -24.5 93.5t-68.5 30.5q-23 0 -44 -3t-40 -9l-10 -52l-83 13l18 100q39 14 79 21.5t80 7.5q95 0 144.5 -50.5t49.5 -148.5v-169l88 -29l-26 -82zM216 186q-37 0 -57 -16.5t-20 -47.5
q0 -62 85 -62q60 0 107 32v94h-115zM329 643q26 0 44.5 -19t18.5 -45t-18.5 -45t-44.5 -19q-27 0 -45.5 19t-18.5 45t18.5 45t45.5 19zM143 643q26 0 45 -19t19 -45t-19 -45t-45 -19t-45 19t-19 45t19 45t45 19z" />
    <glyph glyph-name="uni04D4" unicode="&#x4d4;" horiz-adv-x="931" 
d="M28 0v89h97l256 411h-97v89h537l56 -168l-84 -29l-39 108h-177v-160h161v-88h-162v-163h201l38 103l84 -29l-55 -163h-459v89h89v79h-201l-48 -79h55v-89h-252zM325 256h149l1 244z" />
    <glyph glyph-name="uni04D5" unicode="&#x4d5;" horiz-adv-x="792" 
d="M78 422q37 14 71.5 22.5t81.5 8.5q68 0 108 -25t55 -67q30 43 74.5 67.5t96.5 24.5q44 0 80.5 -17.5t61.5 -51t35.5 -82.5t1.5 -111l-315 -1q5 -61 39.5 -94.5t90.5 -33.5q43 0 74 10.5t50 21.5t25 16l44 -58l-12.5 -11t-37 -24.5t-60.5 -24t-84 -10.5q-49 0 -90.5 14
t-72.5 45q-18 -13 -48 -26.5t-64 -23t-63 -9.5q-86 0 -134.5 38.5t-49.5 99.5q0 51 24 82t64 45t89 14l123 -1q0 34 -7 57.5t-28.5 36.5t-65.5 13q-23 0 -43.5 -3t-37.5 -7l-9 -51l-84 15zM216 185q-19 0 -37 -5t-29 -18t-11 -40q0 -31 25.5 -45t59.5 -14q22 0 47.5 6
t47.5 15.5t36 17.5q-7 19 -12.5 39.5t-7.5 42.5zM662 266q-1 49 -25 77t-78 28q-51 0 -85 -27.5t-44 -77.5h232z" />
    <glyph glyph-name="uni04D6" unicode="&#x4d6;" horiz-adv-x="601" 
d="M41 589h450l56 -168l-84 -29l-39 108h-192v-154h176v-88h-176v-169h216l37 103l84 -29l-56 -163h-473v89h89l1 411h-89v89zM302 643q-73 0 -119.5 29.5t-62.5 85.5l84 11q16 -63 98 -63t98 63l83 -11q-16 -56 -63 -85.5t-118 -29.5z" />
    <glyph glyph-name="uni04D7" unicode="&#x4d7;" horiz-adv-x="510" 
d="M463 53q-42 -36 -87.5 -53t-95.5 -17q-74 0 -129 29t-84.5 82.5t-29.5 125.5q0 71 28 124.5t79.5 83.5t118.5 30q66 0 114 -27.5t74.5 -76.5t26.5 -115q0 -11 -1 -24t-3 -25l-340 -1q3 -44 23.5 -71.5t52 -41t68.5 -13.5q43 0 80 13t67 38zM378 261q0 52 -30.5 84.5
t-82.5 32.5q-49 0 -86.5 -32.5t-42.5 -84.5h242zM269 506q-75 0 -116 38.5t-50 94.5l73 11q3 -32 25.5 -52.5t67.5 -20.5q47 0 69.5 21t25.5 52l73 -11q-8 -56 -49.5 -94.5t-118.5 -38.5z" />
    <glyph glyph-name="uni04D8" unicode="&#x4d8;" horiz-adv-x="618" 
d="M49 435l24 119q50 27 105 40.5t108 13.5q83 0 148.5 -37.5t103 -109t37.5 -173.5q0 -73 -21.5 -129.5t-59 -96.5t-86.5 -60.5t-105 -20.5q-55 0 -103 19t-83 55.5t-54.5 90.5t-19.5 123q0 14 1 27.5t2 27.5l428 1q-3 63 -30 107.5t-71 67.5t-99 23q-28 0 -58 -6.5
t-61 -20.5l-18 -81zM144 245q-4 -83 37.5 -130.5t119.5 -46.5q46 0 84.5 20.5t62.5 60t25 96.5h-329z" />
    <glyph glyph-name="uni04D9" unicode="&#x4d9;" horiz-adv-x="519" 
d="M253 -17q-61 0 -107.5 26t-73 73.5t-26.5 110.5q0 13 1 27.5t3 25.5l324 1q-3 68 -42 101.5t-96 33.5q-24 0 -50 -5.5t-54 -16.5l-12 -59l-75 16l17 98q44 22 90.5 32.5t91.5 10.5q65 0 118 -27t84.5 -80t31.5 -130q0 -71 -28 -125t-78.5 -83.5t-118.5 -29.5zM252 60
q59 0 87 34.5t33 88.5h-230q1 -54 29 -88.5t81 -34.5z" />
    <glyph glyph-name="uni04DA" unicode="&#x4da;" horiz-adv-x="618" 
d="M49 435l24 119q50 27 105 40.5t108 13.5q83 0 148.5 -37.5t103 -109t37.5 -173.5q0 -73 -21.5 -129.5t-59 -96.5t-86.5 -60.5t-105 -20.5q-55 0 -103 19t-83 55.5t-54.5 90.5t-19.5 123q0 14 1 27.5t2 27.5l428 1q-3 63 -30 107.5t-71 67.5t-99 23q-28 0 -58 -6.5
t-61 -20.5l-18 -81zM144 245q-4 -83 37.5 -130.5t119.5 -46.5q46 0 84.5 20.5t62.5 60t25 96.5h-329zM392 792q26 0 44.5 -19t18.5 -45t-18.5 -45t-44.5 -19q-27 0 -45.5 19t-18.5 45t18.5 45t45.5 19zM206 792q26 0 45 -19t19 -45t-19 -45t-45 -19t-45 19t-19 45t19 45
t45 19z" />
    <glyph glyph-name="uni04DB" unicode="&#x4db;" horiz-adv-x="519" 
d="M253 -17q-61 0 -107.5 26t-73 73.5t-26.5 110.5q0 13 1 27.5t3 25.5l324 1q-3 68 -42 101.5t-96 33.5q-24 0 -50 -5.5t-54 -16.5l-12 -59l-75 16l17 98q44 22 90.5 32.5t91.5 10.5q65 0 118 -27t84.5 -80t31.5 -130q0 -71 -28 -125t-78.5 -83.5t-118.5 -29.5zM252 60
q59 0 87 34.5t33 88.5h-230q1 -54 29 -88.5t81 -34.5zM337 643q26 0 44.5 -19t18.5 -45t-18.5 -45t-44.5 -19q-27 0 -45.5 19t-18.5 45t18.5 45t45.5 19zM151 643q26 0 45 -19t19 -45t-19 -45t-45 -19t-45 19t-19 45t19 45t45 19z" />
    <glyph glyph-name="uni04DC" unicode="&#x4dc;" horiz-adv-x="988" 
d="M52 589h260v-89h-63l115 -158h79v158h-66v88h235v-88h-67l-1 -158h80l115 158h-62v89h259v-89h-86l-144 -194l146 -217h89v-89h-264v89h56l-103 165l-86 -1v-164h68v-89h-235v89h66v164l-85 1l-103 -165h57v-89h-265v89h89l145 217l-142 194h-87v89zM587 792
q26 0 44.5 -19t18.5 -45t-18.5 -45t-44.5 -19q-27 0 -45.5 19t-18.5 45t18.5 45t45.5 19zM401 792q26 0 45 -19t19 -45t-19 -45t-45 -19t-45 19t-19 45t19 45t45 19z" />
    <glyph glyph-name="uni04DD" unicode="&#x4dd;" horiz-adv-x="811" 
d="M30 0v80h84l95 141l-97 140h-77v79h229v-79h-59l72 -108h78v107h-47v80h189v-80h-47v-107h78l72 108h-59v79h229v-79h-79l-95 -140l95 -141h85v-80h-138l-118 180h-70v-100h47v-80h-189v80h47v100h-70l-117 -180h-138zM495 643q26 0 44.5 -19t18.5 -45t-18.5 -45
t-44.5 -19q-27 0 -45.5 19t-18.5 45t18.5 45t45.5 19zM309 643q26 0 45 -19t19 -45t-19 -45t-45 -19t-45 19t-19 45t19 45t45 19z" />
    <glyph glyph-name="uni04DE" unicode="&#x4de;" horiz-adv-x="543" 
d="M80 559q46 24 97 36t98 12q62 0 109.5 -19.5t75 -57.5t27.5 -94q0 -47 -24.5 -80.5t-77.5 -50.5q63 -16 93 -52.5t30 -88.5q0 -57 -31 -98t-84.5 -62.5t-121.5 -21.5q-56 0 -107.5 16.5t-96.5 52.5l-24 103l86 22l19 -69q26 -22 55.5 -31t69.5 -9q62 0 95.5 25t33.5 72
q0 44 -28.5 68.5t-80.5 24.5h-91v84h89q45 0 67.5 25.5t22.5 66.5q0 45 -32 66.5t-81 21.5q-27 0 -54.5 -5.5t-50.5 -16.5l-20 -75l-87 19zM365 792q26 0 44.5 -19t18.5 -45t-18.5 -45t-44.5 -19q-27 0 -45.5 19t-18.5 45t18.5 45t45.5 19zM179 792q26 0 45 -19t19 -45
t-19 -45t-45 -19t-45 19t-19 45t19 45t45 19z" />
    <glyph glyph-name="uni04DF" unicode="&#x4df;" horiz-adv-x="460" 
d="M224 -18q-61 0 -111.5 18t-89.5 50l52 65q29 -25 69 -38t79 -13q49 0 77.5 16.5t28.5 48.5q0 31 -24 43.5t-72 12.5h-50v77h55q38 0 56.5 13t18.5 41q0 34 -27 49t-67 15q-50 0 -99 -21l-13 -66l-75 16l18 101q40 22 85.5 34t95.5 12q81 0 129.5 -33.5t48.5 -91.5
q0 -34 -20 -61t-55 -41q44 -8 70 -35.5t26 -70.5q0 -44 -28.5 -76t-75 -48.5t-102.5 -16.5zM314 643q26 0 44.5 -19t18.5 -45t-18.5 -45t-44.5 -19q-27 0 -45.5 19t-18.5 45t18.5 45t45.5 19zM128 643q26 0 45 -19t19 -45t-19 -45t-45 -19t-45 19t-19 45t19 45t45 19z" />
    <glyph glyph-name="uni04E0" unicode="&#x4e0;" horiz-adv-x="554" 
d="M275 -18q-60 0 -110.5 16t-96.5 53l-24 103l85 22l19 -69q26 -22 58 -31t68 -9q60 0 95 26.5t35 73.5q0 50 -30 75.5t-89 25.5h-80v77l151 155h-205l-20 -92l-82 13l29 168h415v-65l-183 -180q100 -6 149.5 -50t49.5 -125q0 -59 -28.5 -101t-81 -64t-124.5 -22z" />
    <glyph glyph-name="uni04E1" unicode="&#x4e1;" horiz-adv-x="469" 
d="M212 -227q-50 0 -99.5 16.5t-87.5 49.5l52 69q30 -26 63 -38.5t66 -12.5q60 0 94.5 32.5t34.5 91.5q0 50 -30 81.5t-89 31.5h-80v78l166 189h-195l-12 -58l-82 18l23 119h373v-68l-184 -205q74 0 119 -26t64.5 -67.5t19.5 -88.5q0 -72 -29.5 -119t-79 -70t-107.5 -23z
" />
    <glyph glyph-name="uni04E2" unicode="&#x4e2;" horiz-adv-x="748" 
d="M40 589h251v-89h-60l-1 -369l289 458h190v-89h-90v-411h88v-89h-248v89h59v365l-288 -454h-190v89h89v411h-89v89zM225 756h321v-69h-321v69z" />
    <glyph glyph-name="uni04E3" unicode="&#x4e3;" horiz-adv-x="652" 
d="M45 441h228v-80h-48v-239l203 318l180 1v-80h-85v-281h85v-80h-228v80h48v242l-203 -322h-180v80h84v281h-84v80zM176 607h321v-69h-321v69z" />
    <glyph glyph-name="uni04E4" unicode="&#x4e4;" horiz-adv-x="748" 
d="M40 589h251v-89h-60l-1 -369l289 458h190v-89h-90v-411h88v-89h-248v89h59v365l-288 -454h-190v89h89v411h-89v89zM478 792q26 0 44.5 -19t18.5 -45t-18.5 -45t-44.5 -19q-27 0 -45.5 19t-18.5 45t18.5 45t45.5 19zM292 792q26 0 45 -19t19 -45t-19 -45t-45 -19t-45 19
t-19 45t19 45t45 19z" />
    <glyph glyph-name="uni04E5" unicode="&#x4e5;" horiz-adv-x="652" 
d="M45 441h228v-80h-48v-239l203 318l180 1v-80h-85v-281h85v-80h-228v80h48v242l-203 -322h-180v80h84v281h-84v80zM429 643q26 0 44.5 -19t18.5 -45t-18.5 -45t-44.5 -19q-27 0 -45.5 19t-18.5 45t18.5 45t45.5 19zM243 643q26 0 45 -19t19 -45t-19 -45t-45 -19t-45 19
t-19 45t19 45t45 19z" />
    <glyph glyph-name="uni04E6" unicode="&#x4e6;" horiz-adv-x="656" 
d="M327 607q85 0 149.5 -37.5t100.5 -107t36 -167.5q0 -97 -36 -167t-100 -108t-149 -38q-84 0 -148.5 38t-100.5 108t-36 167q0 98 36 167.5t100 107t148 37.5zM328 520q-86 0 -132 -58.5t-46 -166.5q0 -109 46 -167.5t132 -58.5t132 58.5t46 167.5q0 108 -46 166.5
t-132 58.5zM420 792q26 0 44.5 -19t18.5 -45t-18.5 -45t-44.5 -19q-27 0 -45.5 19t-18.5 45t18.5 45t45.5 19zM234 792q26 0 45 -19t19 -45t-19 -45t-45 -19t-45 19t-19 45t19 45t45 19z" />
    <glyph glyph-name="uni04E7" unicode="&#x4e7;" horiz-adv-x="542" 
d="M270 458q72 0 123.5 -28.5t79.5 -82t28 -128.5q0 -111 -62 -173.5t-169 -62.5q-70 0 -121.5 28t-79 81.5t-27.5 126.5q0 75 27.5 128.5t79 82t121.5 28.5zM270 376q-63 0 -95.5 -40.5t-32.5 -116.5q0 -75 32.5 -115t95.5 -40q66 0 98.5 40t32.5 115q0 76 -32.5 116.5
t-98.5 40.5zM364 643q26 0 44.5 -19t18.5 -45t-18.5 -45t-44.5 -19q-27 0 -45.5 19t-18.5 45t18.5 45t45.5 19zM178 643q26 0 45 -19t19 -45t-19 -45t-45 -19t-45 19t-19 45t19 45t45 19z" />
    <glyph glyph-name="uni04E8" unicode="&#x4e8;" horiz-adv-x="656" 
d="M112 336h448v-74h-448v74zM327 607q85 0 149.5 -37.5t100.5 -107t36 -167.5q0 -97 -36 -167t-100 -108t-149 -38q-84 0 -148.5 38t-100.5 108t-36 167q0 98 36 167.5t100 107t148 37.5zM328 520q-86 0 -132 -58.5t-46 -166.5q0 -109 46 -167.5t132 -58.5t132 58.5
t46 167.5q0 108 -46 166.5t-132 58.5z" />
    <glyph glyph-name="uni04E9" unicode="&#x4e9;" horiz-adv-x="542" 
d="M270 458q72 0 123.5 -28.5t79.5 -82t28 -128.5q0 -111 -62 -173.5t-169 -62.5q-70 0 -121.5 28t-79 81.5t-27.5 126.5q0 75 27.5 128.5t79 82t121.5 28.5zM270 376q-63 0 -95.5 -40.5t-32.5 -116.5q0 -75 32.5 -115t95.5 -40q66 0 98.5 40t32.5 115q0 76 -32.5 116.5
t-98.5 40.5zM112 257h320v-70h-320v70z" />
    <glyph glyph-name="uni04EA" unicode="&#x4ea;" horiz-adv-x="656" 
d="M112 336h448v-74h-448v74zM327 607q85 0 149.5 -37.5t100.5 -107t36 -167.5q0 -97 -36 -167t-100 -108t-149 -38q-84 0 -148.5 38t-100.5 108t-36 167q0 98 36 167.5t100 107t148 37.5zM328 520q-86 0 -132 -58.5t-46 -166.5q0 -109 46 -167.5t132 -58.5t132 58.5
t46 167.5q0 108 -46 166.5t-132 58.5zM420 792q26 0 44.5 -19t18.5 -45t-18.5 -45t-44.5 -19q-27 0 -45.5 19t-18.5 45t18.5 45t45.5 19zM234 792q26 0 45 -19t19 -45t-19 -45t-45 -19t-45 19t-19 45t19 45t45 19z" />
    <glyph glyph-name="uni04EB" unicode="&#x4eb;" horiz-adv-x="542" 
d="M270 458q72 0 123.5 -28.5t79.5 -82t28 -128.5q0 -111 -62 -173.5t-169 -62.5q-70 0 -121.5 28t-79 81.5t-27.5 126.5q0 75 27.5 128.5t79 82t121.5 28.5zM270 376q-63 0 -95.5 -40.5t-32.5 -116.5q0 -75 32.5 -115t95.5 -40q66 0 98.5 40t32.5 115q0 76 -32.5 116.5
t-98.5 40.5zM112 257h320v-70h-320v70zM364 643q26 0 44.5 -19t18.5 -45t-18.5 -45t-44.5 -19q-27 0 -45.5 19t-18.5 45t18.5 45t45.5 19zM178 643q26 0 45 -19t19 -45t-19 -45t-45 -19t-45 19t-19 45t19 45t45 19z" />
    <glyph glyph-name="uni04EC" unicode="&#x4ec;" horiz-adv-x="609" 
d="M271 -18q-61 0 -105 10.5t-68 20.5l-24 10l-26 121l86 21l18 -73q7 -2 24 -8t41.5 -11t53.5 -5q83 0 130 49t55 137l-138 -7h-106v89h107l138 -8q-7 92 -53 142.5t-133 50.5q-29 0 -53.5 -4t-41.5 -9t-24 -9l-18 -84l-88 20l24 122q14 9 40 20.5t66 20.5t96 9
q89 1 155 -37t103 -108t36 -167q0 -101 -37.5 -171t-103.5 -106t-154 -36zM383 792q26 0 44.5 -19t18.5 -45t-18.5 -45t-44.5 -19q-27 0 -45.5 19t-18.5 45t18.5 45t45.5 19zM197 792q26 0 45 -19t19 -45t-19 -45t-45 -19t-45 19t-19 45t19 45t45 19z" />
    <glyph glyph-name="uni04ED" unicode="&#x4ed;" horiz-adv-x="486" 
d="M341 249q-6 64 -37.5 95t-89.5 31q-22 0 -41.5 -3t-32.5 -7l-14 -73l-83 18l23 121q20 8 44 14t52.5 9.5t58.5 3.5q105 0 164.5 -65t59.5 -175q0 -72 -28.5 -125t-79.5 -81.5t-122 -28.5q-52 0 -95 12.5t-83 33.5l31 70q29 -15 64 -25t82 -10q56 0 88 31.5t38 91.5
l-66 -6h-93v74h93zM318 643q26 0 44.5 -19t18.5 -45t-18.5 -45t-44.5 -19q-27 0 -45.5 19t-18.5 45t18.5 45t45.5 19zM132 643q26 0 45 -19t19 -45t-19 -45t-45 -19t-45 19t-19 45t19 45t45 19z" />
    <glyph glyph-name="uni04EE" unicode="&#x4ee;" horiz-adv-x="639" 
d="M234 -19q-26 0 -52.5 4.5t-63.5 14.5l26 87q22 -9 45.5 -14t40.5 -5q27 0 40 14t26 49l-204 369h-88v89h258v-89h-58l136 -259l98 259h-62v89h260v-89h-99l-159 -396q-25 -61 -55 -92t-89 -31zM162 756h321v-69h-321v69z" />
    <glyph glyph-name="uni04EF" unicode="&#x4ef;" horiz-adv-x="576" 
d="M151 -235q-19 0 -38.5 3.5t-41.5 12.5l17 77q17 -5 30.5 -8t27.5 -3q26 0 43 10t32.5 37t33.5 77l146 390h-53l3 79h222v-79h-75l-176 -442q-32 -79 -73 -116.5t-98 -37.5zM277 -68l-201 429h-73v79h231v-79h-56l143 -333zM148 607h321v-69h-321v69z" />
    <glyph glyph-name="uni04F0" unicode="&#x4f0;" horiz-adv-x="639" 
d="M234 -19q-26 0 -52.5 4.5t-63.5 14.5l26 87q22 -9 45.5 -14t40.5 -5q27 0 40 14t26 49l-204 369h-88v89h258v-89h-58l136 -259l98 259h-62v89h260v-89h-99l-159 -396q-25 -61 -55 -92t-89 -31zM415 792q26 0 44.5 -19t18.5 -45t-18.5 -45t-44.5 -19q-27 0 -45.5 19
t-18.5 45t18.5 45t45.5 19zM229 792q26 0 45 -19t19 -45t-19 -45t-45 -19t-45 19t-19 45t19 45t45 19z" />
    <glyph glyph-name="uni04F1" unicode="&#x4f1;" horiz-adv-x="576" 
d="M151 -235q-19 0 -38.5 3.5t-41.5 12.5l17 77q17 -5 30.5 -8t27.5 -3q26 0 43 10t32.5 37t33.5 77l146 390h-53l3 79h222v-79h-75l-176 -442q-32 -79 -73 -116.5t-98 -37.5zM277 -68l-201 429h-73v79h231v-79h-56l143 -333zM401 643q26 0 44.5 -19t18.5 -45t-18.5 -45
t-44.5 -19q-27 0 -45.5 19t-18.5 45t18.5 45t45.5 19zM215 643q26 0 45 -19t19 -45t-19 -45t-45 -19t-45 19t-19 45t19 45t45 19z" />
    <glyph glyph-name="uni04F2" unicode="&#x4f2;" horiz-adv-x="639" 
d="M234 -19q-26 0 -52.5 4.5t-63.5 14.5l26 87q22 -9 45.5 -14t40.5 -5q27 0 40 14t26 49l-204 369h-88v89h258v-89h-58l136 -259l98 259h-62v89h260v-89h-99l-159 -396q-25 -61 -55 -92t-89 -31zM386 823l51 -63l-167 -108l-26 30zM549 780l32 -74l-193 -52l-18 36z" />
    <glyph glyph-name="uni04F3" unicode="&#x4f3;" horiz-adv-x="576" 
d="M151 -235q-19 0 -38.5 3.5t-41.5 12.5l17 77q17 -5 30.5 -8t27.5 -3q26 0 43 10t32.5 37t33.5 77l146 390h-53l3 79h222v-79h-75l-176 -442q-32 -79 -73 -116.5t-98 -37.5zM277 -68l-201 429h-73v79h231v-79h-56l143 -333zM316 728l71 -53l-155 -175l-44 31zM502 707
l58 -63l-184 -144l-38 39z" />
    <glyph glyph-name="uni04F4" unicode="&#x4f4;" horiz-adv-x="701" 
d="M320 0v89h142v159q-16 -10 -47 -21.5t-80 -11.5q-62 0 -109 23t-73.5 70t-26.5 116v76h-89v89h250v-89h-61v-76q0 -67 30.5 -96.5t96.5 -29.5q46 0 72 10.5t37 18.5v173h-60v89h251v-89h-89v-411h88v-89h-332zM444 792q26 0 44.5 -19t18.5 -45t-18.5 -45t-44.5 -19
q-27 0 -45.5 19t-18.5 45t18.5 45t45.5 19zM258 792q26 0 45 -19t19 -45t-19 -45t-45 -19t-45 19t-19 45t19 45t45 19z" />
    <glyph glyph-name="uni04F5" unicode="&#x4f5;" horiz-adv-x="621" 
d="M392 189q-21 -13 -54.5 -24.5t-81.5 -11.5q-50 0 -79.5 15.5t-44.5 40t-19.5 54t-3.5 57.5v40h-84v80h233v-80h-49v-25q0 -34 4.5 -58.5t22 -37.5t55.5 -13q33 0 59 9.5t42 19.5v105h-47v80h232v-80h-85v-280h85v-80h-269v80h84v109zM402 643q26 0 44.5 -19t18.5 -45
t-18.5 -45t-44.5 -19q-27 0 -45.5 19t-18.5 45t18.5 45t45.5 19zM216 643q26 0 45 -19t19 -45t-19 -45t-45 -19t-45 19t-19 45t19 45t45 19z" />
    <glyph glyph-name="uni04F6" unicode="&#x4f6;" horiz-adv-x="536" 
d="M254 -175l2 175h-93v89h191v-264h-100zM49 589h432l43 -164l-86 -25l-29 100h-164l-1 -411h110v-89h-306v89h95l1 411h-95v89z" />
    <glyph glyph-name="uni04F7" unicode="&#x4f7;" horiz-adv-x="478" 
d="M251 -143l-1 143h-96v80h189v-223h-92zM45 441h388l35 -152l-86 -20l-23 93h-127v-282h111v-80h-298v80h86v282h-86v79z" />
    <glyph glyph-name="uni04F8" unicode="&#x4f8;" horiz-adv-x="888" 
d="M48 1v88h87v412h-85v89h247v-89h-61v-127h103q71 0 118 -19.5t70 -60.5t23 -104q0 -59 -24 -101.5t-69 -65.5t-107 -23zM236 89h93q21 0 41 4t37 14.5t26.5 31t9.5 52.5q0 39 -13 59t-38.5 27.5t-60.5 7.5h-95v-196zM591 0v89h59l1 411h-61v88h250v-88h-88l-1 -411h89
v-89h-249zM536 792q26 0 44.5 -19t18.5 -45t-18.5 -45t-44.5 -19q-27 0 -45.5 19t-18.5 45t18.5 45t45.5 19zM350 792q26 0 45 -19t19 -45t-19 -45t-45 -19t-45 19t-19 45t19 45t45 19z" />
    <glyph glyph-name="uni04F9" unicode="&#x4f9;" horiz-adv-x="796" 
d="M45 0v80h82v281h-82v79h269v-79h-90v-91h84q48 0 88.5 -12t65 -40.5t24.5 -78.5q0 -60 -35.5 -99.5t-104.5 -39.5h-301zM224 81h92q33 0 53.5 15t20.5 45q0 28 -18.5 42.5t-51.5 14.5h-96v-117zM542 0v80h25v281h-62v79h247v-79h-85v-281h85v-80h-210zM500 643
q26 0 44.5 -19t18.5 -45t-18.5 -45t-44.5 -19q-27 0 -45.5 19t-18.5 45t18.5 45t45.5 19zM314 643q26 0 45 -19t19 -45t-19 -45t-45 -19t-45 19t-19 45t19 45t45 19z" />
    <glyph glyph-name="uni04FA" unicode="&#x4fa;" horiz-adv-x="536" 
d="M49 589h432l43 -164l-86 -25l-29 100h-164l-1 -411h110v-89h-306v89h95l1 411h-95v89zM65 332h320v-70h-320v70zM355 0q0 -76 -24.5 -127.5t-67.5 -77.5t-99 -26q-25 0 -52 6.5t-56 19.5l27 88q37 -15 67 -15q49 0 76 35t27 97h102z" />
    <glyph glyph-name="uni04FB" unicode="&#x4fb;" horiz-adv-x="475" 
d="M45 0v80h86v282h-86v79h388l32 -138l-86 -20l-20 79h-127v-282h111v-80h-298zM50 184v64h300v-64h-300zM344 0q0 -114 -41 -171t-110 -57q-47 0 -101 25l24 74q17 -6 31.5 -9t25.5 -3q37 0 54 32.5t17 108.5h100z" />
    <glyph glyph-name="uni04FC" unicode="&#x4fc;" horiz-adv-x="677" 
d="M474 -222q-25 0 -53 5.5t-58 18.5l27 84q37 -15 67 -15q35 0 51.5 17.5t16.5 47.5q0 32 -24 77.5t-68 98.5l-95 117l-113 -141h59v-88h-260v88h94l161 208l-167 204h-84v89h263v-89h-60l111 -137l109 137h-61v89h258v-89h-92l-155 -202l149 -186q37 -46 59 -95.5
t22 -94.5q0 -39 -17 -71.5t-51.5 -52.5t-88.5 -20z" />
    <glyph glyph-name="uni04FD" unicode="&#x4fd;" horiz-adv-x="585" 
d="M417 -211q-23 0 -48 6.5t-52 19.5l25 75q16 -6 30.5 -9.5t25.5 -3.5q27 0 44 19.5t17 51.5q0 25 -13.5 57t-45.5 63l-100 103l-81 -91h42v-80h-231v80h86l125 145l-134 136h-77v79h239v-79h-43l85 -91l78 91h-40v79h219v-79h-75l-124 -144l103 -104q44 -44 64 -90t20 -87
q0 -42 -18 -75t-49 -52.5t-72 -19.5z" />
    <glyph glyph-name="uni04FE" unicode="&#x4fe;" horiz-adv-x="686" 
d="M136 332h167l85 -5h148v-71h-152l-85 5h-163v71zM24 0v88h94l161 208l-167 204h-84v89h263v-89h-60l111 -137l109 137h-61v89h258v-89h-92l-155 -202l169 -210h97v-88h-279v88h65l-115 141l-113 -141h59v-88h-260z" />
    </font>
</defs>
</svg>
